<svg width="147" height="92" viewBox="0 0 147 92" fill="none" xmlns="http://www.w3.org/2000/svg">
<path d="M117.176 64.0588C118.131 67.1308 115.009 69.3024 110.357 70.2767C105.705 71.2508 100.79 69.8587 100.24 67.5464C99.6889 65.2345 100.365 62.2251 100.119 59.9483C99.8731 57.6713 97.0436 52.0735 95.1676 46.1089C93.5166 40.8582 92.2523 31.5723 91.974 29.4252C91.9363 29.133 91.9162 28.9733 91.9162 28.9733C101.474 24.932 111.843 25.6625 111.843 25.6625C114.914 34.003 114.5 53.8777 114.882 56.8724C115.265 59.867 116.221 60.9868 117.176 64.0588Z" fill="#DDD3CE"/>
<path d="M111.843 25.6615C104.439 31.2467 91.974 29.4242 91.974 29.4242C91.9363 29.1321 91.9162 28.9724 91.9162 28.9724C101.474 24.931 111.843 25.6615 111.843 25.6615Z" fill="#AFA39E"/>
<path d="M113.445 63.5318C110.845 64.8768 105.043 65.1727 103.402 64.9947C101.218 64.7582 101.452 61.0892 100.839 57.8595C100.226 54.6297 98.2034 50.8301 96.8299 46.5366C95.4574 42.2421 94.5152 34.3353 94.5152 34.3353C94.89 34.328 95.2628 34.317 95.632 34.3015C104.399 33.9536 111.569 31.5685 111.569 31.5685C113.234 38.8745 113.351 52.2356 113.396 54.9219C113.442 57.6093 114.27 59.0319 114.707 61.8307C114.816 62.5265 114.306 63.0871 113.445 63.5318Z" fill="#EFB961"/>
<path d="M94.515 34.3352C94.515 34.3352 103.938 35.3071 111.569 31.5688C111.569 31.5688 111.464 30.2876 111.319 30.1293C111.173 29.971 110.543 29.5947 110.274 29.6456C110.005 29.6966 108.366 29.8831 108.209 30.0368C108.052 30.1905 106.482 30.7359 106.085 30.9349C105.689 31.1338 104.242 30.3685 103.411 30.891C102.58 31.4133 100.664 31.7761 100.664 31.7761C100.664 31.7761 99.122 31.4923 98.6078 31.7228C98.0935 31.9533 95.9676 31.8604 95.5001 32.011C95.0326 32.1615 93.6167 31.5623 94.515 34.3352Z" fill="#FEFFFF"/>
<path d="M113.445 63.5319C110.845 64.8768 105.043 65.1728 103.402 64.9947C101.218 64.7582 101.452 61.0892 100.839 57.8595C100.226 54.6297 98.2034 50.8302 96.8299 46.5366C95.4574 42.2421 94.5152 34.3353 94.5152 34.3353C94.89 34.328 95.2628 34.317 95.632 34.3015C96.6528 38.2618 99.3595 48.3263 101.253 51.3497C103.132 54.3494 110.46 60.9148 113.445 63.5319Z" fill="#DB9E45"/>
<path d="M105.251 35.9223C105.953 35.9223 106.522 35.3538 106.522 34.6524C106.522 33.9511 105.953 33.3825 105.251 33.3825C104.549 33.3825 103.98 33.9511 103.98 34.6524C103.98 35.3538 104.549 35.9223 105.251 35.9223Z" fill="#FEFFFF"/>
<path d="M108.57 35.9223C108.876 35.9223 109.124 35.6742 109.124 35.3682C109.124 35.0622 108.876 34.8141 108.57 34.8141C108.264 34.8141 108.015 35.0622 108.015 35.3682C108.015 35.6742 108.264 35.9223 108.57 35.9223Z" fill="#FEFFFF"/>
<path d="M102.611 38.6617C103.015 38.6617 103.342 38.3347 103.342 37.9312C103.342 37.5278 103.015 37.2007 102.611 37.2007C102.207 37.2007 101.88 37.5278 101.88 37.9312C101.88 38.3347 102.207 38.6617 102.611 38.6617Z" fill="#FEFFFF"/>
<path d="M99.3339 36.8355C99.5862 36.8355 99.7908 36.6311 99.7908 36.3789C99.7908 36.1267 99.5862 35.9223 99.3339 35.9223C99.0815 35.9223 98.8769 36.1267 98.8769 36.3789C98.8769 36.6311 99.0815 36.8355 99.3339 36.8355Z" fill="#FEFFFF"/>
<path d="M105.982 38.6617C106.386 38.6617 106.713 38.3347 106.713 37.9312C106.713 37.5278 106.386 37.2007 105.982 37.2007C105.578 37.2007 105.251 37.5278 105.251 37.9312C105.251 38.3347 105.578 38.6617 105.982 38.6617Z" stroke="#FEFFFF" stroke-miterlimit="10"/>
<path d="M98.4657 38.753C98.6928 38.753 98.8769 38.5691 98.8769 38.3421C98.8769 38.1152 98.6928 37.9312 98.4657 37.9312C98.2386 37.9312 98.0545 38.1152 98.0545 38.3421C98.0545 38.5691 98.2386 38.753 98.4657 38.753Z" stroke="#FEFFFF" stroke-miterlimit="10"/>
<path d="M110.611 33.8221C110.733 33.8221 110.831 33.7237 110.831 33.6023C110.831 33.4809 110.733 33.3825 110.611 33.3825C110.49 33.3825 110.391 33.4809 110.391 33.6023C110.391 33.7237 110.49 33.8221 110.611 33.8221Z" stroke="#FEFFFF" stroke-miterlimit="10"/>
<path d="M93.4155 29.5761C93.4155 29.5761 102.59 26.2497 110.557 26.5432" stroke="#060606" stroke-width="2" stroke-miterlimit="10"/>
<path d="M100.078 66.5567C100.078 66.5567 110.534 69.5802 116.951 63.3664" stroke="#060606" stroke-width="2" stroke-miterlimit="10"/>
<path d="M120.039 68.4956C117.283 68.6428 113.838 66.6156 113.166 66.6326C112.493 66.6496 106.635 67.2663 103.819 66.7046C101.004 66.1429 99.2782 64.8433 99.0584 64.0109C98.8388 63.1785 100.384 62.7533 100.64 62.846C100.896 62.9388 104.201 63.9332 106.284 63.3845C108.367 62.8358 110.898 62.4504 110.898 62.4504C110.898 62.4504 106.214 61.7376 104.709 61.974C103.203 62.2103 98.2338 62.7268 97.8044 61.6736C97.375 60.6204 97.8382 59.1569 98.0027 59.0766C98.1672 58.996 103.715 57.1252 104.971 56.8566C106.228 56.5879 109.437 55.7006 109.437 55.7006C109.437 55.7006 105.07 55.0679 103.073 55.3001C101.076 55.5324 98.0124 56.3933 97.4709 55.9516C96.9293 55.5099 97.0308 54.5256 97.0869 53.9337C97.143 53.3418 100.335 52.4724 101.282 52.1784C102.229 51.8844 103.835 51.4524 103.835 51.4524C103.835 51.4524 98.9376 51.3478 98.4112 51.2253C97.8848 51.1026 95.7878 51.3158 95.9283 50.5028C96.0687 49.6897 97.9533 48.6126 99.6843 47.6758C101.415 46.7391 107.093 46.8831 108.894 46.9725C110.695 47.0619 115.123 48.0868 115.123 48.0868C115.123 48.0868 117.169 50.3228 118.162 51.5025L124.11 56.8375C125.486 57.5967 144.877 62.1917 144.877 62.1917L147 80.4245C147 80.4244 122.874 68.3443 120.039 68.4956Z" fill="#F15330"/>
<path d="M103.835 51.4524C103.835 51.4524 105.091 51.0484 108.015 51.4524" stroke="#060606" stroke-width="2" stroke-miterlimit="10"/>
<path d="M109.843 55.6004H112.859" stroke="#060606" stroke-width="2" stroke-miterlimit="10"/>
<path d="M110.391 62.3085L111.569 62.7228" stroke="#060606" stroke-width="2" stroke-miterlimit="10"/>
<path d="M115.123 48.0868C115.123 48.0868 115.123 50.5979 114.722 51.2729" stroke="#060606" stroke-width="2" stroke-miterlimit="10"/>
<path d="M115.417 53.5002C115.417 53.5002 115.476 54.7785 115.447 55.0525" stroke="#060606" stroke-width="2" stroke-miterlimit="10"/>
<path d="M114.722 58.5224C114.722 58.5224 114.728 60.0717 114.387 60.2101" stroke="#060606" stroke-width="2" stroke-miterlimit="10"/>
<path d="M113.445 63.5318C113.445 63.5318 113.392 64.7123 113.445 65.0415" stroke="#060606" stroke-width="2" stroke-miterlimit="10"/>
<path d="M125.013 57.8583L123.846 56.6013L126.109 59.8008" stroke="#060606" stroke-width="2" stroke-miterlimit="10"/>
<path d="M129.49 57.8583L127.206 71.5638L131.318 73.5891L133.146 58.201L129.765 57.8583" fill="#EFB961"/>
<path d="M130.267 68.1103C132.21 68.1103 133.785 66.5364 133.785 64.5948C133.785 62.6532 132.21 61.0792 130.267 61.0792C128.324 61.0792 126.749 62.6532 126.749 64.5948C126.749 66.5364 128.324 68.1103 130.267 68.1103Z" fill="#FEFFFF"/>
<path d="M130.267 67.3798C131.806 67.3798 133.054 66.1329 133.054 64.5947C133.054 63.0566 131.806 61.8097 130.267 61.8097C128.728 61.8097 127.48 63.0566 127.48 64.5947C127.48 66.1329 128.728 67.3798 130.267 67.3798Z" stroke="#060606" stroke-width="2" stroke-miterlimit="10"/>
<path d="M129.582 62.7228L130.267 64.5947L131.044 63.6657" stroke="#060606" stroke-width="2" stroke-miterlimit="10"/>
<path d="M0 73.98C0 73.98 5.097 70.0484 8.91227 67.1892C12.7275 64.3299 18.2121 61.7088 21.5504 59.5644C24.8887 57.4201 32.1617 51.1057 33.4731 49.4378C33.4731 49.4378 35.77 45.5389 36.3264 44.1092C36.8828 42.6795 43.0035 41.2498 46.819 41.3293C50.6344 41.4087 52.2242 41.7264 51.9063 45.7772C51.5884 49.8281 46.342 55.3881 43.9574 56.2618C41.5727 57.1354 37.7572 61.0274 36.5649 62.5366C35.3726 64.0456 28.7858 71.9896 22.6543 80.0107C17.7111 86.4775 16.1749 86.9209 16.1749 86.9209H0V73.98Z" fill="#F15330"/>
<path d="M58.2655 59.2005C58.5834 61.9804 55.5628 63.3307 51.4294 63.4102C47.296 63.4897 43.3214 61.504 43.226 59.4388C43.1299 57.3738 44.1958 54.9115 44.3548 52.9258C44.5138 50.9401 43.0035 45.6978 42.3676 40.2967C41.8079 35.5421 42.2332 27.4015 42.3437 25.5215C42.3589 25.2657 42.3676 25.1259 42.3676 25.1259C51.1908 23.2196 59.9347 25.523 59.9347 25.523C61.2065 33.1481 57.6295 50.0663 57.4705 52.6874C57.3115 55.3085 57.9475 56.4205 58.2655 59.2005Z" fill="#DDD3CE"/>
<path d="M59.9347 25.523C52.7011 29.0973 42.3437 25.5215 42.3437 25.5215C42.3589 25.2657 42.3676 25.1259 42.3676 25.1259C51.1909 23.2196 59.9347 25.523 59.9347 25.523Z" fill="#AFA39E"/>
<path d="M56.517 50.7809C56.1195 53.0847 56.5965 54.4353 56.517 56.897C56.4375 59.3598 48.1701 58.327 46.3424 57.7708C44.5138 57.2147 45.3089 54.1174 45.3089 51.2575C45.3089 48.3984 44.1958 44.8245 43.7188 40.9317C43.2418 37.0399 43.7188 30.1293 43.7188 30.1293C46.7262 30.6398 49.6084 30.8215 52.0292 30.8498C56.008 30.8954 58.7422 30.5265 58.7422 30.5265C58.914 35.2182 57.8905 42.4639 57.1558 47.0114C56.8707 48.7774 56.6285 50.1371 56.517 50.7809Z" fill="#EFB961"/>
<path d="M57.1558 47.0114C55.2834 39.1264 53.0381 33.286 52.0292 30.8499C56.008 30.8955 58.7422 30.5266 58.7422 30.5266C58.914 35.2183 57.8905 42.464 57.1558 47.0114Z" fill="#DB9E45"/>
<path d="M43.5423 32.3978C43.5423 32.3978 51.5307 37.5825 58.7417 33.2716C58.7417 33.2716 58.8607 30.8249 58.761 30.4754C58.6613 30.1258 58.8008 25.5301 57.937 27.111C57.8216 27.3222 55.3332 24.7436 55.3952 27.1561C55.4025 27.4392 54.4794 29.8929 54.1041 30.1257C53.7288 30.3588 52.603 28.4039 51.7988 29.0901C50.9946 29.7763 49.2789 29.7763 49.2789 29.7763C49.2789 29.7763 47.9921 28.693 47.5097 28.9432C47.0272 29.1936 45.2043 28.2617 44.7754 28.3781C44.3465 28.4948 43.2206 26.8635 43.5423 32.3978Z" fill="#FEFFFF"/>
<path d="M52.3742 36.8355C53.2889 36.8355 54.0305 36.0945 54.0305 35.1804C54.0305 34.2664 53.2889 33.5254 52.3742 33.5254C51.4594 33.5254 50.7178 34.2664 50.7178 35.1804C50.7178 36.0945 51.4594 36.8355 52.3742 36.8355Z" fill="#FEFFFF"/>
<path d="M48.6865 36.1963C49.2259 36.1963 49.6632 35.7593 49.6632 35.2203C49.6632 34.6813 49.2259 34.2444 48.6865 34.2444C48.1471 34.2444 47.7098 34.6813 47.7098 35.2203C47.7098 35.7593 48.1471 36.1963 48.6865 36.1963Z" fill="#FEFFFF"/>
<path d="M46.2463 36.1963C46.4516 36.1963 46.618 36.03 46.618 35.8248C46.618 35.6197 46.4516 35.4534 46.2463 35.4534C46.041 35.4534 45.8745 35.6197 45.8745 35.8248C45.8745 36.03 46.041 36.1963 46.2463 36.1963Z" fill="#FEFFFF"/>
<path d="M50.6061 39.9907C50.8976 39.9907 51.134 39.7545 51.134 39.4632C51.134 39.1718 50.8976 38.9357 50.6061 38.9357C50.3145 38.9357 50.0782 39.1718 50.0782 39.4632C50.0782 39.7545 50.3145 39.9907 50.6061 39.9907Z" fill="#FEFFFF"/>
<path d="M54.7461 37.6763C55.1046 37.6763 55.3953 37.3859 55.3953 37.0276C55.3953 36.6693 55.1046 36.3789 54.7461 36.3789C54.3876 36.3789 54.0969 36.6693 54.0969 37.0276C54.0969 37.3859 54.3876 37.6763 54.7461 37.6763Z" fill="#FEFFFF"/>
<path d="M54.7461 28.9102C55.1046 28.9102 55.3953 28.6198 55.3953 28.2615C55.3953 27.9032 55.1046 27.6128 54.7461 27.6128C54.3876 27.6128 54.0969 27.9032 54.0969 28.2615C54.0969 28.6198 54.3876 28.9102 54.7461 28.9102Z" fill="#FEFFFF"/>
<path d="M46.3777 34.6907C46.8574 34.6907 47.2464 34.3021 47.2464 33.8227C47.2464 33.3433 46.8574 32.9547 46.3777 32.9547C45.8979 32.9547 45.509 33.3433 45.509 33.8227C45.509 34.3021 45.8979 34.6907 46.3777 34.6907Z" fill="#FEFFFF"/>
<path d="M56.6447 35.4923C57.1061 35.4923 57.4802 35.1186 57.4802 34.6575C57.4802 34.1964 57.1061 33.8226 56.6447 33.8226C56.1832 33.8226 55.8092 34.1964 55.8092 34.6575C55.8092 35.1186 56.1832 35.4923 56.6447 35.4923Z" fill="#FEFFFF"/>
<path d="M48.3914 39.0383C48.7678 39.0383 49.0729 38.7334 49.0729 38.3573C49.0729 37.9812 48.7678 37.6763 48.3914 37.6763C48.015 37.6763 47.7099 37.9812 47.7099 38.3573C47.7099 38.7334 48.015 39.0383 48.3914 39.0383Z" fill="#FEFFFF"/>
<path d="M45.6035 38.9609C45.9585 38.9609 46.2463 38.6733 46.2463 38.3186C46.2463 37.9639 45.9585 37.6763 45.6035 37.6763C45.2485 37.6763 44.9607 37.9639 44.9607 38.3186C44.9607 38.6733 45.2485 38.9609 45.6035 38.9609Z" fill="#FEFFFF"/>
<path d="M52.9276 39.4633C53.2332 39.4633 53.481 39.2157 53.481 38.9103C53.481 38.6049 53.2332 38.3573 52.9276 38.3573C52.6219 38.3573 52.3742 38.6049 52.3742 38.9103C52.3742 39.2157 52.6219 39.4633 52.9276 39.4633Z" stroke="#FEFFFF" stroke-miterlimit="10"/>
<path d="M45.078 36.5553C45.5179 36.5553 45.8745 36.199 45.8745 35.7594C45.8745 35.3199 45.5179 34.9635 45.078 34.9635C44.6381 34.9635 44.2815 35.3199 44.2815 35.7594C44.2815 36.199 44.6381 36.5553 45.078 36.5553Z" stroke="#FEFFFF" stroke-miterlimit="10"/>
<path d="M57.0625 37.3901C57.2932 37.3901 57.4802 37.2032 57.4802 36.9727C57.4802 36.7422 57.2932 36.5553 57.0625 36.5553C56.8318 36.5553 56.6448 36.7422 56.6448 36.9727C56.6448 37.2032 56.8318 37.3901 57.0625 37.3901Z" stroke="#FEFFFF" stroke-miterlimit="10"/>
<path d="M55.7905 40.2531C56.0088 40.2531 56.1858 40.0763 56.1858 39.8582C56.1858 39.6401 56.0088 39.4633 55.7905 39.4633C55.5723 39.4633 55.3953 39.6401 55.3953 39.8582C55.3953 40.0763 55.5723 40.2531 55.7905 40.2531Z" stroke="#FEFFFF" stroke-miterlimit="10"/>
<path d="M36.723 43.6222C36.723 43.6222 39.1172 41.7919 40.7864 41.326C42.4556 40.8601 45.9132 40.7409 47.2247 40.7409C48.5362 40.7409 51.9217 42.691 51.8386 43.6222C51.7554 44.5535 48.7747 44.196 47.8209 44.196C46.867 44.196 43.2774 45.8639 43.2774 45.8639C43.2774 45.8639 44.1982 47.9138 43.8039 49.8076" fill="#F15330"/>
<path d="M60.3616 40.5468C60.3616 40.5468 60.0267 39.2879 59.4915 39.8269C59.1739 40.1465 58.8023 42.3161 58.3435 42.433C57.1113 42.747 53.0171 44.0429 51.7981 44.6057C50.579 45.1686 51.7278 46.4394 52.9861 46.623C54.2443 46.8066 57.5865 46.2988 59.164 45.8003C60.7415 45.3019 61.9157 42.9944 60.3616 40.5468Z" fill="#F15330"/>
<path d="M60.1284 45.0309C60.1284 45.0309 59.9686 43.7987 59.4308 44.2518C59.1118 44.5205 58.5398 46.5401 58.1172 46.6009C56.9819 46.764 53.1816 47.5454 52.0306 47.9462C50.8793 48.3473 51.7649 49.6798 52.8684 49.9922C53.9719 50.3046 57.0133 50.189 58.4774 49.8886C59.9414 49.5882 61.2456 47.5258 60.1284 45.0309Z" fill="#F15330"/>
<path d="M59.5515 49.0408C59.5515 49.0408 59.4059 47.9185 58.9162 48.3311C58.6256 48.5758 58.1046 50.4153 57.7196 50.4707C56.6856 50.6192 53.2244 51.3311 52.176 51.696C51.1273 52.0613 51.9339 53.275 52.939 53.5595C53.9441 53.844 56.7142 53.7388 58.0477 53.4652C59.3813 53.1915 60.5691 51.3131 59.5515 49.0408Z" fill="#F15330"/>
<path d="M58.9779 52.1681C58.9779 52.1681 58.6582 51.3271 58.3556 51.7363C58.1761 51.9791 58.1127 53.4974 57.8252 53.6112C57.0531 53.9166 54.5081 55.1046 53.7647 55.5801C53.0213 56.0556 53.869 56.8455 54.6987 56.8803C55.5285 56.9152 57.6509 56.3233 58.6316 55.8661C59.6122 55.4089 60.184 53.7377 58.9779 52.1681Z" fill="#F15330"/>
<path d="M43.2773 45.8639C43.2773 45.8639 44.7515 49.49 43.4853 52.5452" stroke="#060606" stroke-width="2" stroke-miterlimit="10"/>
<path d="M58.8009 44.0057L58.815 45.4992" stroke="#060606" stroke-width="2" stroke-miterlimit="10"/>
<path d="M58.7613 48.5558L58.815 49.7859" stroke="#060606" stroke-width="2" stroke-miterlimit="10"/>
<path d="M52.0292 45.3733C52.119 45.6168 53.5137 46.577 53.4809 45.2743C53.4481 43.9716 52.0292 45.3733 52.0292 45.3733Z" stroke="#060606" stroke-width="2" stroke-miterlimit="10"/>
<path d="M52.0292 48.7604C51.9414 48.9337 53.4815 50.1044 53.3375 48.5558C53.2821 47.96 52.3972 48.0341 52.0292 48.7604Z" stroke="#060606" stroke-width="2" stroke-miterlimit="10"/>
<path d="M52.0292 52.5955C51.9414 52.7688 53.4815 53.9396 53.3375 52.391C53.2821 51.7952 52.3972 51.8692 52.0292 52.5955Z" stroke="#060606" stroke-width="2" stroke-miterlimit="10"/>
<path d="M54.0396 56.0654C53.9518 56.2387 55.492 57.4095 55.348 55.8609C55.2926 55.2651 54.4076 55.3391 54.0396 56.0654Z" stroke="#060606" stroke-width="2" stroke-miterlimit="10"/>
<path d="M36.0965 58.4669L31.8928 62.9055" stroke="#060606" stroke-width="2" stroke-miterlimit="10"/>
<path d="M43.2773 58.2735C43.2773 58.2735 52.2336 62.848 58.1695 58.4668" stroke="#060606" stroke-width="2" stroke-miterlimit="10"/>
<path d="M43.4853 25.8664C43.4853 25.8664 52.1609 25.1929 58.7613 26.0319" stroke="#060606" stroke-width="2" stroke-miterlimit="10"/>
<path d="M58.2417 23.245C58.8638 21.6045 60.2223 20.9146 61.1644 19.5665C61.5463 19.0202 61.5668 18.373 60.9816 18.025C60.365 17.6583 59.7738 17.9973 59.6565 17.2432C59.497 16.2176 60.4633 14.2888 59.2177 13.6723C57.442 12.7934 56.8828 14.8649 56.7794 16.1381C56.6721 17.4593 56.6918 18.793 56.4627 20.0964C56.2889 21.0848 55.6159 21.9521 55.5598 22.9451C55.5209 23.6323 55.9008 24.4428 56.6078 24.584C57.1809 24.6985 58.3219 24.104 58.1809 23.4275" fill="#FEFFFF"/>
<path d="M60.6786 23.8538C60.823 22.7439 62.1045 22.6359 62.8613 22.0717C63.2496 21.7823 63.3826 21.3408 63.787 21.6016C64.0837 21.793 64.1181 22.265 64.0764 22.5752C63.8429 24.3098 61.6377 23.8424 60.4957 23.9147" fill="#FEFFFF"/>
<path d="M55.3646 20.5395C55.7062 20.5395 55.9832 20.2628 55.9832 19.9214C55.9832 19.58 55.7062 19.3033 55.3646 19.3033C55.023 19.3033 54.746 19.58 54.746 19.9214C54.746 20.2628 55.023 20.5395 55.3646 20.5395Z" stroke="#FEFFFF" stroke-miterlimit="10"/>
<path d="M61.5583 16.4448C61.8156 16.4448 62.0242 16.2364 62.0242 15.9793C62.0242 15.7222 61.8156 15.5138 61.5583 15.5138C61.301 15.5138 61.0924 15.7222 61.0924 15.9793C61.0924 16.2364 61.301 16.4448 61.5583 16.4448Z" stroke="#FEFFFF" stroke-miterlimit="10"/>
<path d="M60.4993 12.6889C60.6603 12.6889 60.7909 12.5584 60.7909 12.3975C60.7909 12.2366 60.6603 12.1061 60.4993 12.1061C60.3382 12.1061 60.2077 12.2366 60.2077 12.3975C60.2077 12.5584 60.3382 12.6889 60.4993 12.6889Z" stroke="#FEFFFF" stroke-miterlimit="10"/>
<path d="M56.5514 11.8612C56.7533 11.8612 56.9169 11.6977 56.9169 11.496C56.9169 11.2943 56.7533 11.1307 56.5514 11.1307C56.3495 11.1307 56.1859 11.2943 56.1859 11.496C56.1859 11.6977 56.3495 11.8612 56.5514 11.8612Z" stroke="#FEFFFF" stroke-miterlimit="10"/>
<path d="M81.4751 53.7419C81.3145 57.2879 77.2592 58.3731 72.0656 57.6429C66.872 56.9125 62.2926 53.6272 62.5884 51.0213C62.8832 48.4152 64.7134 45.5448 65.3118 43.0894C65.9101 40.6341 65.0723 33.7643 65.3616 26.871C65.6166 20.8029 67.786 10.6911 68.3024 8.35827C68.3727 8.04087 68.4118 7.86756 68.4118 7.86756C79.8472 7.25092 90.3368 11.8915 90.3368 11.8915C90.3969 21.6983 82.5149 42.1724 81.7887 45.4238C81.0628 48.6752 81.6358 50.1957 81.4751 53.7419Z" fill="#DDD3CE"/>
<path d="M90.337 11.8917C80.5576 14.9168 68.3025 8.35838 68.3025 8.35838C68.3728 8.04097 68.4119 7.86766 68.4119 7.86766C79.8474 7.25102 90.337 11.8917 90.337 11.8917Z" fill="#AFA39E"/>
<path d="M87.8511 17.9199C87.6856 19.2658 87.3626 20.7652 87.0884 22.344V22.3458C85.9005 27.7206 83.9498 34.0149 82.5316 38.301C81.826 40.4314 81.2502 42.0659 80.9842 42.8448C80.0229 45.65 80.3458 47.437 79.7509 50.506C79.156 53.5741 69.0071 50.6211 66.8286 49.5573C64.65 48.4943 66.2685 44.7732 66.8433 41.1911C67.4181 37.6098 66.7424 32.909 66.927 27.9379C67.1125 22.9677 69.1056 14.4071 69.1056 14.4071C78.7904 17.6943 87.8511 17.9199 87.8511 17.9199Z" fill="#EFB961"/>
<path d="M87.0349 22.3166L86.9971 22.344V22.3459C85.9005 27.7206 83.9041 34.0149 82.4859 38.301L79.2884 38.028L87.0349 22.3166Z" fill="#DB9E45"/>
<path d="M69.0985 14.4071C69.0985 14.4071 78.5153 18.9437 87.8373 17.9203C87.8373 17.9203 88.2085 16.5511 88.1169 16.3323C88.0254 16.1135 87.5122 15.487 87.2138 15.4392C86.9156 15.3914 85.1445 14.9715 84.9243 15.0723C84.7037 15.173 82.8689 15.1512 82.383 15.2093C81.8971 15.2674 80.6817 13.9311 79.6232 14.1622C78.5649 14.3932 76.4408 14.0529 76.4408 14.0529C76.4408 14.0529 74.7538 9.79409 74.1543 9.96001C73.1068 10.25 71.3638 8.84836 70.8222 8.82955C70.2803 8.81074 69.206 11.1926 69.0985 14.4071Z" fill="#FEFFFF"/>
<path d="M62.9129 49.4824C62.9129 49.4824 70.1368 57.9745 80.3489 54.9612" stroke="#060606" stroke-width="2" stroke-miterlimit="10"/>
<path d="M64.8196 29.7508C64.8196 29.7508 62.8431 31.403 63.607 32.2534C64.3707 33.1038 65.5029 33.3581 65.5029 33.3581L67.6664 33.5343C67.6664 33.5343 73.4958 37.2882 73.8156 37.6646C74.1356 38.041 67.2411 34.4455 67.2411 34.4455C67.2411 34.4455 62.8394 35.3839 63.2314 36.8597C63.6233 38.3357 64.8556 38.9832 64.8556 38.9832L66.3561 39.7209L67.5907 41.1708C67.5907 41.1708 64.7842 39.8577 64.2121 40.4241C63.6399 40.9905 63.087 42.3515 63.2919 42.6782C63.4969 43.0049 64.1488 45.4993 64.1488 45.4993C64.1488 45.4993 62.9975 46.7193 63.3549 47.7119C63.7121 48.7044 67.0576 51.6041 68.2976 52.0555C69.5375 52.5069 75.4296 55.7893 76.926 56.7869C78.4223 57.7845 79.8562 61.0436 81.0395 62.0158C82.2226 62.988 91.4076 91.5025 91.4076 91.5025L115.447 88.0776C115.447 88.0776 91.7651 52.9446 90.7656 51.2283C89.7661 49.512 88.2049 43.936 87.6834 42.808C87.1617 41.6803 85.0128 35.4015 85.0128 35.4015L84.0728 38.4335C84.0728 38.4335 78.0853 33.7594 77.1372 32.9816C76.1892 32.2036 71.0979 29.074 69.3564 28.9322C67.615 28.7904 64.8196 29.7508 64.8196 29.7508Z" fill="#F15330"/>
<path d="M73.8156 37.6645L76.4561 39.2046" stroke="#060606" stroke-width="2" stroke-miterlimit="10"/>
<path d="M67.5907 41.1707L72.8326 43.547" stroke="#060606" stroke-width="2" stroke-miterlimit="10"/>
<path d="M64.1488 45.4992L70.2117 48.4779" stroke="#060606" stroke-width="2" stroke-miterlimit="10"/>
<path d="M82.857 41.9487C82.857 41.9487 82.2451 42.9991 81.7882 43.547" stroke="#060606" stroke-width="2" stroke-miterlimit="10"/>
<path d="M80.3489 45.4992C80.3489 45.4992 79.595 46.4123 79.3208 46.9886" stroke="#060606" stroke-width="2" stroke-miterlimit="10"/>
<path d="M77.4018 49.4824C77.4018 49.4824 77.1553 50.6695 76.4561 50.9434" stroke="#060606" stroke-width="2" stroke-miterlimit="10"/>
<path d="M66.3444 36.4246V37.7029" stroke="#060606" stroke-width="2" stroke-miterlimit="10"/>
<path d="M67.5907 30.0326L67.1802 31.3976" stroke="#060606" stroke-width="2" stroke-miterlimit="10"/>
<path d="M69.0985 8.7554C69.0985 8.7554 79.6849 8.9142 88.7783 12.351" stroke="#060606" stroke-width="2" stroke-miterlimit="10"/>
<path d="M80.6688 18.5728C81.2366 18.5728 81.6968 18.2253 81.6968 17.7966C81.6968 17.3679 81.2366 17.0204 80.6688 17.0204C80.101 17.0204 79.6407 17.3679 79.6407 17.7966C79.6407 18.2253 80.101 18.5728 80.6688 18.5728Z" fill="#FEFFFF"/>
<path d="M75.2086 18.5728C75.6376 18.5728 75.9853 18.3275 75.9853 18.0249C75.9853 17.7223 75.6376 17.477 75.2086 17.477C74.7796 17.477 74.4318 17.7223 74.4318 18.0249C74.4318 18.3275 74.7796 18.5728 75.2086 18.5728Z" fill="#FEFFFF"/>
<path d="M73.4952 17.7966C73.7097 17.7966 73.8835 17.6229 73.8835 17.4085C73.8835 17.1942 73.7097 17.0204 73.4952 17.0204C73.2807 17.0204 73.1068 17.1942 73.1068 17.4085C73.1068 17.6229 73.2807 17.7966 73.4952 17.7966Z" fill="#FEFFFF"/>
<path d="M71.1877 17.0204C71.3896 17.0204 71.5533 16.8264 71.5533 16.5871C71.5533 16.3477 71.3896 16.1537 71.1877 16.1537C70.9858 16.1537 70.8222 16.3477 70.8222 16.5871C70.8222 16.8264 70.9858 17.0204 71.1877 17.0204Z" fill="#FEFFFF"/>
<path d="M78.2597 19.8512C78.4559 19.8512 78.615 19.6672 78.615 19.4403C78.615 19.2133 78.4559 19.0293 78.2597 19.0293C78.0635 19.0293 77.9044 19.2133 77.9044 19.4403C77.9044 19.6672 78.0635 19.8512 78.2597 19.8512Z" fill="#FEFFFF"/>
<path d="M84.9866 19.0293C85.239 19.0293 85.4435 18.8045 85.4435 18.5271C85.4435 18.2498 85.239 18.0249 84.9866 18.0249C84.7343 18.0249 84.5297 18.2498 84.5297 18.5271C84.5297 18.8045 84.7343 19.0293 84.9866 19.0293Z" fill="#FEFFFF"/>
<path d="M76.1224 17.477C76.6271 17.477 77.0363 17.1091 77.0363 16.6552C77.0363 16.2013 76.6271 15.8334 76.1224 15.8334C75.6177 15.8334 75.2086 16.2013 75.2086 16.6552C75.2086 17.1091 75.6177 17.477 76.1224 17.477Z" fill="#FEFFFF"/>
<path d="M69.6799 16.6552C69.8313 16.6552 69.9541 16.4712 69.9541 16.2443C69.9541 16.0173 69.8313 15.8334 69.6799 15.8334C69.5285 15.8334 69.4058 16.0173 69.4058 16.2443C69.4058 16.4712 69.5285 16.6552 69.6799 16.6552Z" fill="#FEFFFF"/>
<path d="M71.9645 19.4403C72.1916 19.4403 72.3757 19.2461 72.3757 19.0065C72.3757 18.767 72.1916 18.5728 71.9645 18.5728C71.7374 18.5728 71.5533 18.767 71.5533 19.0065C71.5533 19.2461 71.7374 19.4403 71.9645 19.4403Z" fill="#FEFFFF"/>
<path d="M76.4194 22.3166C76.9368 22.3166 77.3561 21.9896 77.3561 21.5861C77.3561 21.1827 76.9368 20.8556 76.4194 20.8556C75.9021 20.8556 75.4827 21.1827 75.4827 21.5861C75.4827 21.9896 75.9021 22.3166 76.4194 22.3166Z" fill="#FEFFFF"/>
<path d="M82.862 22.3166C83.2531 22.3166 83.5702 22.0611 83.5702 21.7459C83.5702 21.4307 83.2531 21.1752 82.862 21.1752C82.4708 21.1752 82.1537 21.4307 82.1537 21.7459C82.1537 22.0611 82.4708 22.3166 82.862 22.3166Z" fill="#FEFFFF"/>
<path d="M83.2161 14.4071C83.4117 14.4071 83.5702 14.2562 83.5702 14.0701C83.5702 13.884 83.4117 13.7332 83.2161 13.7332C83.0205 13.7332 82.862 13.884 82.862 14.0701C82.862 14.2562 83.0205 14.4071 83.2161 14.4071Z" fill="#FEFFFF"/>
<path d="M76.8878 13.5505C77.1464 13.5505 77.3561 13.3577 77.3561 13.1197C77.3561 12.8818 77.1464 12.6889 76.8878 12.6889C76.6291 12.6889 76.4194 12.8818 76.4194 13.1197C76.4194 13.3577 76.6291 13.5505 76.8878 13.5505Z" fill="#FEFFFF"/>
<path d="M73.6893 12.351C73.7966 12.351 73.8835 12.2414 73.8835 12.1062C73.8835 11.9709 73.7966 11.8613 73.6893 11.8613C73.5821 11.8613 73.4952 11.9709 73.4952 12.1062C73.4952 12.2414 73.5821 12.351 73.6893 12.351Z" fill="#FEFFFF"/>
<path d="M85.969 14.6006C86.2592 14.6006 86.4945 14.4819 86.4945 14.3354C86.4945 14.1889 86.2592 14.0701 85.969 14.0701C85.6788 14.0701 85.4436 14.1889 85.4436 14.3354C85.4436 14.4819 85.6788 14.6006 85.969 14.6006Z" fill="#FEFFFF"/>
<path d="M83.1818 18.5728C83.5982 18.5728 83.9357 18.2253 83.9357 17.7966C83.9357 17.3679 83.5982 17.0204 83.1818 17.0204C82.7654 17.0204 82.4279 17.3679 82.4279 17.7966C82.4279 18.2253 82.7654 18.5728 83.1818 18.5728Z" fill="#FEFFFF"/>
<path d="M80.3603 23.1841C80.7578 23.1841 81.08 22.8621 81.08 22.465C81.08 22.0679 80.7578 21.7459 80.3603 21.7459C79.9629 21.7459 79.6407 22.0679 79.6407 22.465C79.6407 22.8621 79.9629 23.1841 80.3603 23.1841Z" stroke="#FEFFFF" stroke-miterlimit="10"/>
<path d="M72.7412 21.27C72.9431 21.27 73.1068 21.1065 73.1068 20.9047C73.1068 20.703 72.9431 20.5395 72.7412 20.5395C72.5394 20.5395 72.3757 20.703 72.3757 20.9047C72.3757 21.1065 72.5394 21.27 72.7412 21.27Z" stroke="#FEFFFF" stroke-miterlimit="10"/>
<path d="M69.3041 19.8512C69.4177 19.8512 69.5097 19.7592 69.5097 19.6457C69.5097 19.5322 69.4177 19.4403 69.3041 19.4403C69.1906 19.4403 69.0985 19.5322 69.0985 19.6457C69.0985 19.7592 69.1906 19.8512 69.3041 19.8512Z" stroke="#FEFFFF" stroke-miterlimit="10"/>
<path d="M70.4567 23.6739C70.6585 23.6739 70.8222 23.5104 70.8222 23.3087C70.8222 23.1069 70.6585 22.9434 70.4567 22.9434C70.2548 22.9434 70.0911 23.1069 70.0911 23.3087C70.0911 23.5104 70.2548 23.6739 70.4567 23.6739Z" stroke="#FEFFFF" stroke-miterlimit="10"/>
<path d="M83.1818 20.81C83.5982 20.81 83.9357 20.4727 83.9357 20.0566C83.9357 19.6406 83.5982 19.3033 83.1818 19.3033C82.7654 19.3033 82.4279 19.6406 82.4279 20.0566C82.4279 20.4727 82.7654 20.81 83.1818 20.81Z" stroke="#FEFFFF" stroke-miterlimit="10"/>
<path d="M84.1185 24.7821C84.2194 24.7821 84.3012 24.7003 84.3012 24.5995C84.3012 24.4986 84.2194 24.4168 84.1185 24.4168C84.0176 24.4168 83.9357 24.4986 83.9357 24.5995C83.9357 24.7003 84.0176 24.7821 84.1185 24.7821Z" stroke="#FEFFFF" stroke-miterlimit="10"/>
<path d="M78.9908 27.1562C79.3945 27.1562 79.7218 26.8292 79.7218 26.4257C79.7218 26.0223 79.3945 25.6952 78.9908 25.6952C78.587 25.6952 78.2597 26.0223 78.2597 26.4257C78.2597 26.8292 78.587 27.1562 78.9908 27.1562Z" stroke="#FEFFFF" stroke-miterlimit="10"/>
<path d="M74.1348 25.6952C74.4881 25.6952 74.7745 25.4091 74.7745 25.056C74.7745 24.703 74.4881 24.4168 74.1348 24.4168C73.7816 24.4168 73.4952 24.703 73.4952 25.056C73.4952 25.4091 73.7816 25.6952 74.1348 25.6952Z" stroke="#FEFFFF" stroke-miterlimit="10"/>
<path d="M82.1537 69.3042L84.1185 76.2893L104.618 70.5906L100.759 62.3085L82.1537 69.3042Z" fill="#CEA3A3"/>
<path d="M115.417 86.6469H87.8515L86.7101 79.1985L86.1755 75.7131L103.086 71.0159L104.619 70.5904L115.417 86.6469Z" fill="#CEA3A3"/>
<path d="M103.086 71.0159L86.7101 79.1985L86.1755 75.7131L103.086 71.0159Z" fill="#BC8E8E"/>
<path d="M86.394 71.5638C86.8685 71.5638 87.2531 71.1794 87.2531 70.7053C87.2531 70.2312 86.8685 69.8469 86.394 69.8469C85.9196 69.8469 85.5349 70.2312 85.5349 70.7053C85.5349 71.1794 85.9196 71.5638 86.394 71.5638Z" stroke="#060606" stroke-width="2" stroke-miterlimit="10"/>
<path d="M68.964 3.58221C69.6143 4.38422 70.0156 5.30247 70.5008 6.19341C70.7873 6.71938 71.4359 7.17174 71.8138 6.49246C72.1348 5.91536 71.7684 5.22339 71.599 4.67797C71.2947 3.69864 71.4671 1.03585 69.7681 1.65093C69.5306 1.73686 69.3428 1.94679 69.0723 1.92944C68.8142 1.91282 68.3299 1.55715 68.0943 1.45014C67.3776 1.12433 66.7582 0.584301 66.0278 0.31027C65.1952 -0.00211336 63.661 -0.123469 62.7959 0.158325C61.2182 0.672054 62.4057 2.13553 63.2986 2.80605C64.0108 3.34078 64.7527 3.71416 65.5459 4.12516C66.1124 4.41864 66.8349 4.61853 67.3204 5.05866C68.0181 5.6911 68.4587 6.86356 69.4984 6.98355C69.7236 6.41147 69.954 5.30795 69.4513 4.86069" fill="#FEFFFF"/>
<path d="M73.6246 5.59102C73.9107 5.59102 74.1425 5.35934 74.1425 5.07355C74.1425 4.78776 73.9107 4.55608 73.6246 4.55608C73.3386 4.55608 73.1068 4.78776 73.1068 5.07355C73.1068 5.35934 73.3386 5.59102 73.6246 5.59102Z" stroke="#FEFFFF" stroke-miterlimit="10"/>
<path d="M77.5458 8.82955C77.8272 8.82955 78.0554 8.60159 78.0554 8.32038C78.0554 8.03918 77.8272 7.81122 77.5458 7.81122C77.2644 7.81122 77.0363 8.03918 77.0363 8.32038C77.0363 8.60159 77.2644 8.82955 77.5458 8.82955Z" stroke="#FEFFFF" stroke-miterlimit="10"/>
<path d="M75.5986 9.60881C75.814 9.60881 75.9886 9.43433 75.9886 9.21909C75.9886 9.00385 75.814 8.82936 75.5986 8.82936C75.3832 8.82936 75.2086 9.00385 75.2086 9.21909C75.2086 9.43433 75.3832 9.60881 75.5986 9.60881Z" stroke="#FEFFFF" stroke-miterlimit="10"/>
<path d="M76.6555 6.1389C76.9499 6.1389 77.1885 5.90043 77.1885 5.60627C77.1885 5.31211 76.9499 5.07364 76.6555 5.07364C76.3611 5.07364 76.1224 5.31211 76.1224 5.60627C76.1224 5.90043 76.3611 6.1389 76.6555 6.1389Z" stroke="#FEFFFF" stroke-miterlimit="10"/>
<path d="M73.4952 2.65383C73.7097 2.65383 73.8835 2.48008 73.8835 2.26575C73.8835 2.05142 73.7097 1.87767 73.4952 1.87767C73.2807 1.87767 73.1068 2.05142 73.1068 2.26575C73.1068 2.48008 73.2807 2.65383 73.4952 2.65383Z" stroke="#FEFFFF" stroke-miterlimit="10"/>
<path d="M31.9385 18.5271C33.0236 18.5271 33.9033 17.6481 33.9033 16.5639C33.9033 15.4796 33.0236 14.6006 31.9385 14.6006C30.8534 14.6006 29.9738 15.4796 29.9738 16.5639C29.9738 17.6481 30.8534 18.5271 31.9385 18.5271Z" stroke="#F15330" stroke-width="2" stroke-miterlimit="10"/>
<path d="M35.3654 10.7046C35.6682 10.7046 35.9137 10.4593 35.9137 10.1567C35.9137 9.85409 35.6682 9.6088 35.3654 9.6088C35.0626 9.6088 34.8171 9.85409 34.8171 10.1567C34.8171 10.4593 35.0626 10.7046 35.3654 10.7046Z" stroke="#F15330" stroke-width="2" stroke-miterlimit="10"/>
<path d="M39.832 16.5871C40.3809 16.5871 40.8259 16.1424 40.8259 15.5938C40.8259 15.0453 40.3809 14.6006 39.832 14.6006C39.283 14.6006 38.838 15.0453 38.838 15.5938C38.838 16.1424 39.283 16.5871 39.832 16.5871Z" stroke="#F15330" stroke-width="2" stroke-miterlimit="10"/>
<path d="M25.0948 7.89385C25.5798 7.89385 25.973 7.50097 25.973 7.01633C25.973 6.53169 25.5798 6.13881 25.0948 6.13881C24.6098 6.13881 24.2166 6.53169 24.2166 7.01633C24.2166 7.50097 24.6098 7.89385 25.0948 7.89385Z" stroke="#F15330" stroke-width="2" stroke-miterlimit="10"/>
<path d="M118.824 25.6101C119.344 25.6101 119.764 25.1897 119.764 24.671C119.764 24.1524 119.344 23.732 118.824 23.732C118.305 23.732 117.885 24.1524 117.885 24.671C117.885 25.1897 118.305 25.6101 118.824 25.6101Z" stroke="#F15330" stroke-width="2" stroke-miterlimit="10"/>
<path d="M122.347 32.8347C123.045 32.8347 123.611 32.2693 123.611 31.5718C123.611 30.8743 123.045 30.3088 122.347 30.3088C121.649 30.3088 121.083 30.8743 121.083 31.5718C121.083 32.2693 121.649 32.8347 122.347 32.8347Z" stroke="#F15330" stroke-width="2" stroke-miterlimit="10"/>
<path d="M127.571 30.5615C128.026 30.5615 128.394 30.1935 128.394 29.7397C128.394 29.2858 128.026 28.9178 127.571 28.9178C127.117 28.9178 126.749 29.2858 126.749 29.7397C126.749 30.1935 127.117 30.5615 127.571 30.5615Z" stroke="#F15330" stroke-width="2" stroke-miterlimit="10"/>
<path d="M124.253 24.4168C124.792 24.4168 125.23 23.9799 125.23 23.4409C125.23 22.9019 124.792 22.4649 124.253 22.4649C123.714 22.4649 123.276 22.9019 123.276 23.4409C123.276 23.9799 123.714 24.4168 124.253 24.4168Z" stroke="#F15330" stroke-width="2" stroke-miterlimit="10"/>
<path d="M133.374 40.9445C134.005 40.9445 134.516 40.4335 134.516 39.8031C134.516 39.1727 134.005 38.6617 133.374 38.6617C132.743 38.6617 132.232 39.1727 132.232 39.8031C132.232 40.4335 132.743 40.9445 133.374 40.9445Z" stroke="#F15330" stroke-width="2" stroke-miterlimit="10"/>
</svg>
