<svg width="316" height="336" viewBox="0 0 316 336" fill="none" xmlns="http://www.w3.org/2000/svg">
<path d="M0 151.671V190.209C0 197.182 5.65214 202.835 12.6253 202.835H150.814C157.787 202.835 163.44 197.182 163.44 190.209V157.645L180.643 139.57L12.6648 139.045C5.67679 139.023 0 144.682 0 151.671Z" fill="#F3F2F1"/>
<path d="M143.069 162.393L17.6722 161.815L17.6858 157.961L143.082 158.54L143.069 162.393Z" fill="#DADBD8"/>
<path d="M143.069 175.074L17.6722 174.495L17.6858 170.641L143.082 171.22L143.069 175.074Z" fill="#DADBD8"/>
<path d="M143.069 187.433L93.4541 187.188L93.4694 183.334L143.085 183.579L143.069 187.433Z" fill="#DADBD8"/>
<path d="M128.045 284.836V323.375C128.045 330.347 133.697 336 140.671 336H278.859C285.832 336 291.485 330.347 291.485 323.375V290.811L308.689 272.735L140.709 272.211C133.722 272.189 128.045 277.848 128.045 284.836Z" fill="#F3F2F1"/>
<path d="M271.715 294.559L146.318 293.98L146.331 290.124L271.727 290.705L271.715 294.559Z" fill="#DADBD8"/>
<path d="M271.715 307.238L146.318 306.659L146.331 302.804L271.727 303.384L271.715 307.238Z" fill="#DADBD8"/>
<path d="M271.715 319.597L222.099 319.353L222.115 315.5L271.73 315.744L271.715 319.597Z" fill="#DADBD8"/>
<path d="M73.863 6.49443H155.368C159.403 6.49443 162.673 9.76452 162.673 13.7991V53.6648C162.673 57.6994 159.403 60.9703 155.368 60.9703H86.2052C82.1706 60.9703 78.8995 57.6994 78.8995 53.6648V11.5306L73.863 6.49443Z" fill="#F3F2F1"/>
<path d="M121.112 45.2501V70.8114C121.112 75.4358 117.364 79.1848 112.739 79.1848H21.0863C16.4609 79.1848 12.7118 75.4358 12.7118 70.8114V49.2136L1.30139 37.2254L112.713 36.8767C117.347 36.8621 121.112 40.6152 121.112 45.2501Z" fill="#DADBD8"/>
<path d="M26.2223 52.3623L109.391 51.9788L109.383 49.4223L26.2141 49.8066L26.2223 52.3623Z" fill="#F3F2F1"/>
<path d="M26.2223 60.7721L109.391 60.3886L109.383 57.8321L26.2141 58.2164L26.2223 60.7721Z" fill="#F3F2F1"/>
<path d="M26.2223 68.97L59.1298 68.8074L59.1194 66.2516L26.2122 66.4134L26.2223 68.97Z" fill="#F3F2F1"/>
<path d="M294.739 163.782V189.342C294.739 193.966 290.99 197.716 286.365 197.716H194.712C190.087 197.716 186.338 193.966 186.338 189.342V167.745L174.927 155.756L286.339 155.408C290.973 155.394 294.739 159.147 294.739 163.782Z" fill="#DADBD8"/>
<path d="M199.849 170.894L283.017 170.51L283.009 167.954L199.84 168.338L199.849 170.894Z" fill="#F3F2F1"/>
<path d="M199.849 179.304L283.017 178.919L283.009 176.363L199.84 176.748L199.849 179.304Z" fill="#F3F2F1"/>
<path d="M199.849 187.501L232.756 187.339L232.746 184.782L199.838 184.945L199.849 187.501Z" fill="#F3F2F1"/>
<path d="M216.227 290.675C202.528 277.336 202.303 256.703 205.867 238.772C206.462 235.779 206.651 232.551 208.514 230.145C210.379 227.739 214.015 226.481 216.502 228.192C218.565 229.609 219.113 232.369 220.011 234.724C221.207 237.857 223.297 240.63 225.967 242.621C227.72 243.93 229.992 244.926 232.055 244.192C234.885 243.184 235.779 239.648 236.251 236.652C237.129 231.065 238.008 225.481 238.886 219.897C239.357 216.901 239.849 213.843 241.245 211.154C242.641 208.466 245.131 206.163 248.109 205.832C251.088 205.501 254.34 207.719 254.461 210.747C254.512 212.008 254.056 213.233 253.936 214.488C253.816 215.745 254.17 217.214 255.294 217.754C256.43 218.3 257.767 217.648 258.806 216.919C262.39 214.402 265.124 210.852 267.717 207.3C270.311 203.749 272.862 200.096 276.205 197.258C279.548 194.421 283.853 192.443 288.18 192.903C292.508 193.362 296.641 196.755 297.035 201.141C297.432 205.54 294.269 209.419 291.03 212.395C286.225 216.813 280.789 220.525 274.947 223.379C273.893 223.894 272.752 224.451 272.21 225.501C271.232 227.39 272.799 229.682 274.662 230.661C276.772 231.769 279.231 231.933 281.52 232.589C283.809 233.247 286.169 234.691 286.69 237.041C287.416 240.302 284.331 243.09 281.47 244.778C275.739 248.158 269.439 250.539 262.928 251.784C260.594 252.229 258.162 252.555 256.133 253.812C254.104 255.069 252.591 257.584 253.319 259.868C254.047 262.154 256.689 263.28 259.067 263.229C261.442 263.179 263.712 262.266 266.046 261.795C270.414 260.917 275.68 262.07 277.733 266.056C279.082 268.677 278.702 271.956 277.37 274.598C276.038 277.241 273.869 279.35 271.62 281.254C263.761 287.909 254.3 292.755 244.216 294.502C234.132 296.248 225.143 295.696 216.227 290.675Z" fill="#F03D5F"/>
<path d="M213.802 304.004C215.625 296.968 218.572 288.789 222.732 280.134C226.876 271.469 232.205 262.348 238.107 252.999C239.591 250.667 241.058 248.363 242.503 246.093C243.95 243.83 245.387 241.584 246.927 239.477C249.989 235.246 253.255 231.41 256.47 227.867C259.683 224.322 262.863 221.074 265.857 218.059C268.86 215.05 271.712 212.297 274.417 209.899C279.817 205.081 284.623 201.719 288.016 199.545C289.71 198.452 291.053 197.648 291.971 197.114C292.412 196.862 292.756 196.664 293.018 196.514C293.256 196.383 293.379 196.319 293.383 196.327C293.389 196.336 293.274 196.416 293.047 196.564C292.793 196.725 292.456 196.94 292.028 197.212C291.13 197.776 289.808 198.61 288.132 199.728C284.78 201.956 280.028 205.357 274.678 210.198C271.996 212.607 269.168 215.369 266.185 218.39C263.205 221.417 260.043 224.671 256.847 228.218C253.651 231.761 250.406 235.589 247.368 239.801C245.839 241.901 244.418 244.127 242.968 246.397C241.524 248.666 240.06 250.97 238.577 253.301C232.68 262.643 227.35 271.733 223.192 280.359C219.021 288.976 216.047 297.107 214.182 304.106" fill="#17282F"/>
<path d="M247.087 239.481C247.049 239.481 247.022 239.009 247.004 238.156C246.982 237.303 246.991 236.068 247.025 234.543C247.09 231.493 247.323 227.285 247.597 222.646C247.872 218.004 248.046 213.805 248.063 210.762C248.076 209.241 248.075 208.009 248.063 207.159C248.055 206.307 248.07 205.834 248.109 205.832C248.147 205.829 248.206 206.297 248.279 207.148C248.358 207.998 248.421 209.231 248.457 210.757C248.541 213.81 248.429 218.029 248.154 222.675C247.872 227.253 247.616 231.394 247.419 234.557C247.34 235.987 247.275 237.192 247.221 238.16C247.172 239.01 247.126 239.482 247.087 239.481Z" fill="#17282F"/>
<path d="M286.752 238.589C286.746 238.627 286.188 238.601 285.186 238.521C284.184 238.448 282.735 238.334 280.941 238.249C277.353 238.052 272.388 237.954 266.906 238.086C261.422 238.228 256.465 238.567 252.887 238.915C251.095 239.077 249.65 239.247 248.65 239.358C247.65 239.473 247.094 239.52 247.087 239.481C247.081 239.442 247.627 239.324 248.62 239.14C249.613 238.962 251.055 238.732 252.846 238.517C256.424 238.067 261.395 237.664 266.896 237.521C272.393 237.39 277.376 237.551 280.967 237.851C282.765 237.986 284.213 238.161 285.211 238.304C286.208 238.451 286.755 238.55 286.752 238.589Z" fill="#17282F"/>
<path d="M223.321 279.503C223.302 279.507 223.238 279.333 223.134 278.99C223.017 278.585 222.875 278.09 222.704 277.49C222.335 276.186 221.853 274.284 221.287 271.928C220.152 267.215 218.789 260.656 217.383 253.398C215.976 246.136 214.676 239.573 213.641 234.843C213.131 232.543 212.71 230.651 212.399 229.244C212.266 228.634 212.158 228.132 212.07 227.718C212 227.369 211.973 227.183 211.991 227.176C212.011 227.172 212.074 227.349 212.179 227.69C212.295 228.096 212.437 228.59 212.609 229.189C212.977 230.493 213.46 232.394 214.025 234.751C215.16 239.464 216.523 246.024 217.929 253.285C219.336 260.544 220.636 267.107 221.671 271.838C222.183 274.137 222.602 276.03 222.913 277.435C223.045 278.045 223.153 278.549 223.243 278.961C223.312 279.312 223.34 279.498 223.321 279.503Z" fill="#17282F"/>
<path d="M277.162 271.394C277.163 271.413 276.976 271.455 276.62 271.519C276.198 271.588 275.68 271.672 275.053 271.775C273.608 271.994 271.658 272.292 269.286 272.652C264.416 273.395 257.702 274.498 250.285 275.727C242.866 276.957 236.136 277.998 231.249 278.639C228.806 278.962 226.826 279.202 225.456 279.339C224.823 279.4 224.301 279.448 223.877 279.49C223.514 279.518 223.323 279.523 223.321 279.504C223.318 279.484 223.506 279.441 223.863 279.376C224.284 279.309 224.801 279.224 225.43 279.122C226.874 278.901 228.823 278.605 231.196 278.244C236.065 277.503 242.78 276.399 250.199 275.17C257.616 273.94 264.346 272.899 269.232 272.258C271.676 271.935 273.655 271.694 275.026 271.557C275.66 271.497 276.181 271.447 276.606 271.408C276.968 271.379 277.158 271.374 277.162 271.394Z" fill="#17282F"/>
<path d="M80.1304 108.756C77.6297 106.817 76.512 103.383 77.0344 100.262C77.5571 97.1396 79.5717 94.3768 82.1819 92.5872C83.3889 91.7604 84.884 91.1043 86.2885 91.5169C87.6007 91.9028 88.5149 93.1794 88.7803 94.5216C89.0465 95.863 88.7593 97.257 88.3119 98.5498C86.7771 102.983 84.4779 106.992 80.1304 108.756Z" fill="#33535F"/>
<path d="M76.0281 116.33C71.0984 111.833 63.9097 109.951 57.4094 111.455C55.7543 111.839 53.8914 112.713 53.6183 114.391C53.3459 116.07 54.8458 117.495 56.3185 118.348C62.4447 121.9 70.7435 121.232 76.2227 116.747" fill="#33535F"/>
<path d="M52.2781 81.2681C55.0104 80.5181 58.0051 81.1929 60.423 82.6693C62.8413 84.1458 64.733 86.3617 66.2483 88.7556C69.1801 93.3865 70.2129 99.6112 70.3431 105.092C64.2605 104.845 59.0628 100.064 56.5782 97.4737C52.6516 93.3784 48.0417 83.5924 52.2781 81.2681Z" fill="#33535F"/>
<path d="M85.2278 124.604C84.871 123.956 84.2902 123.499 83.7101 122.311C82.5685 119.937 81.0298 116.562 80.2843 112.544C79.5413 108.521 80.0448 104.723 81.0435 102.243C81.5306 100.996 82.0767 100.053 82.5152 99.4509C82.9504 98.8458 83.2392 98.5505 83.2667 98.5723C83.3719 98.6403 82.2951 99.917 81.4521 102.39C80.5855 104.839 80.1664 108.515 80.8885 112.435C81.6147 116.357 83.0669 119.719 84.1049 122.13" fill="#17282F"/>
<path d="M85.2853 124.678C84.4706 123.628 83.4043 122.252 82.118 120.592C79.4519 117.137 75.7579 112.373 71.6085 107.164C67.4591 101.958 63.6399 97.2948 60.8668 93.9244C59.5362 92.2999 58.4337 90.9528 57.5921 89.9254C56.8245 88.9756 56.4149 88.4376 56.4468 88.4092C56.479 88.3817 56.9496 88.8672 57.7731 89.77C58.5983 90.6705 59.7695 91.9941 61.1989 93.6453C64.0593 96.9453 67.9353 101.571 72.0889 106.781C76.2427 111.996 79.8862 116.807 82.4651 120.331C83.7547 122.093 84.7829 123.531 85.4771 124.536" fill="#17282F"/>
<path d="M61.2071 115.055C61.1976 115.013 61.5718 114.901 62.2626 114.732C62.6065 114.64 63.0312 114.547 63.5334 114.489C64.0336 114.425 64.6031 114.318 65.2402 114.306C66.5109 114.207 68.0354 114.26 69.7088 114.476C71.3768 114.727 73.1898 115.163 75.0121 115.858C76.826 116.577 78.4577 117.481 79.857 118.423C81.2369 119.395 82.3962 120.386 83.266 121.318C83.7271 121.757 84.075 122.221 84.4002 122.606C84.7319 122.988 84.9811 123.345 85.1737 123.644C85.5685 124.235 85.5118 124.511 85.477 124.536C85.38 124.606 84.7602 123.361 82.9593 121.626C82.0678 120.75 80.9052 119.816 79.5407 118.893C78.1565 117.999 76.5587 117.132 74.7896 116.431C73.0116 115.753 71.2491 115.312 69.6251 115.035C67.9956 114.794 66.5074 114.697 65.2585 114.74C62.7585 114.802 61.2314 115.172 61.2071 115.055Z" fill="#17282F"/>
<path d="M196.927 321.485L103.484 321.053C92.2462 321.003 83.1761 311.852 83.2239 300.614L84.2141 66.3496C84.2611 55.1041 93.4176 46.0284 104.662 46.0802L198.106 46.5122C209.345 46.564 218.414 55.7141 218.366 66.9523L217.377 301.217C217.328 312.462 208.173 321.538 196.927 321.485Z" fill="#17282F"/>
<path d="M197.972 54.5968L179.856 54.5135C177.426 54.5022 175.447 56.5531 175.438 59.0918L175.422 62.3781C175.413 64.9184 173.434 66.9685 171.004 66.9572L135.69 66.7937C133.261 66.7832 131.3 64.7146 131.311 62.1742L131.325 58.8879C131.335 56.3484 129.374 54.2797 126.945 54.2692L120.573 54.2393L104.716 54.1664C96.8407 54.13 90.4283 60.4866 90.3951 68.3616L89.4284 297.021C89.3952 304.891 95.7469 311.3 103.618 311.336L196.875 311.767C204.749 311.803 211.162 305.447 211.195 297.572L212.162 68.9126C212.195 61.0415 205.843 54.6332 197.972 54.5968Z" fill="#FAFAF9"/>
<path d="M145.195 289.875C145.191 290.789 144.327 291.524 143.264 291.519C142.201 291.514 141.343 290.77 141.347 289.857C141.351 288.945 142.215 288.208 143.278 288.213C144.34 288.218 145.199 288.962 145.195 289.875Z" fill="#33535F"/>
<path d="M151.157 289.903C151.153 290.815 150.289 291.552 149.226 291.547C148.164 291.542 147.305 290.798 147.309 289.885C147.313 288.972 148.178 288.236 149.24 288.24C150.303 288.245 151.16 288.989 151.157 289.903Z" fill="#33535F"/>
<path d="M157.119 289.929C157.116 290.843 156.251 291.579 155.188 291.574C154.126 291.569 153.267 290.826 153.271 289.912C153.275 288.999 154.139 288.263 155.202 288.268C156.265 288.272 157.123 289.016 157.119 289.929Z" fill="#33535F"/>
<path d="M118.269 164.829C119.788 165.046 211.456 183.026 211.456 183.026V164.829H118.269Z" fill="#E7E8E5"/>
<path d="M89.4283 280.355C89.4283 280.355 189.146 266.248 188.278 266.681C187.41 267.116 89.4283 266.681 89.4283 266.681V280.355Z" fill="#E7E8E5"/>
<path d="M205.232 13.3841C205.348 13.3841 205.443 18.4252 205.443 24.6425C205.443 30.8623 205.348 35.9026 205.232 35.9026C205.115 35.9026 205.021 30.8623 205.021 24.6425C205.021 18.4252 205.115 13.3841 205.232 13.3841Z" fill="#17282F"/>
<path d="M245.134 39.2973C245.182 39.4041 240.607 41.5253 234.918 44.0357C229.228 46.547 224.579 48.4959 224.532 48.3891C224.485 48.2831 229.058 46.1619 234.748 43.6506C240.437 41.1402 245.088 39.1913 245.134 39.2973Z" fill="#17282F"/>
<path d="M244.126 0.000354767C244.139 0.00844574 244.064 0.156506 243.909 0.431572C243.729 0.743858 243.5 1.13866 243.217 1.62489C242.614 2.65883 241.709 4.13691 240.578 5.9556C238.313 9.59056 235.053 14.5297 231.36 19.917C227.666 25.3059 224.371 30.2127 222.043 33.804C220.905 35.566 219.973 37.0085 219.293 38.0611C218.984 38.5295 218.733 38.9106 218.534 39.2115C218.357 39.4728 218.257 39.6055 218.245 39.5982C218.233 39.5909 218.307 39.4421 218.462 39.167C218.643 38.8555 218.871 38.4599 219.154 37.9745C219.757 36.9406 220.662 35.4625 221.793 33.6438C224.057 30.0088 227.319 25.0689 231.012 19.68C234.705 14.2926 238 9.38669 240.327 5.79541C241.466 4.03335 242.398 2.59084 243.078 1.5383C243.387 1.06987 243.639 0.688011 243.837 0.387054C244.014 0.126545 244.113 -0.00692749 244.126 0.000354767Z" fill="#17282F"/>
<path d="M300.064 95.2473H117.673C113.734 95.2473 110.541 98.4405 110.541 102.38V158.956C110.541 162.895 113.734 166.088 117.673 166.088H131.262C132.356 171.997 133.637 179.451 133.637 179.451L145.935 166.088H300.064C304.004 166.088 307.197 162.895 307.197 158.956V102.38C307.197 98.4405 304.004 95.2473 300.064 95.2473Z" fill="#F03D5F"/>
<path d="M224.813 125.936C224.813 126.052 203.105 126.146 176.333 126.146C149.552 126.146 127.848 126.052 127.848 125.936C127.848 125.82 149.552 125.725 176.333 125.725C203.105 125.725 224.813 125.82 224.813 125.936Z" fill="#F3F2F1"/>
<path d="M224.813 117.239C224.813 117.356 203.105 117.449 176.333 117.449C149.552 117.449 127.848 117.356 127.848 117.239C127.848 117.123 149.552 117.029 176.333 117.029C203.105 117.029 224.813 117.123 224.813 117.239Z" fill="#F3F2F1"/>
<path d="M224.813 134.537C224.813 134.653 203.105 134.747 176.333 134.747C149.552 134.747 127.848 134.653 127.848 134.537C127.848 134.42 149.552 134.326 176.333 134.326C203.105 134.326 224.813 134.42 224.813 134.537Z" fill="#F3F2F1"/>
<path d="M191.362 143.446C191.362 143.562 177.142 143.657 159.607 143.657C142.065 143.657 127.848 143.562 127.848 143.446C127.848 143.329 142.065 143.236 159.607 143.236C177.142 143.236 191.362 143.329 191.362 143.446Z" fill="#F3F2F1"/>
<path d="M217.655 196.961H33.7674C31.0116 196.961 28.7773 199.195 28.7773 201.951V261.808C28.7773 264.565 31.0116 266.798 33.7674 266.798H167.321L179.479 280.008C179.479 280.008 180.754 272.584 181.828 266.798H217.655C220.411 266.798 222.645 264.565 222.645 261.808V201.951C222.645 199.195 220.411 196.961 217.655 196.961Z" fill="#33535F"/>
<path d="M210.442 227.828C210.442 227.943 188.733 228.037 161.962 228.037C135.18 228.037 113.477 227.943 113.477 227.828C113.477 227.711 135.18 227.616 161.962 227.616C188.733 227.616 210.442 227.711 210.442 227.828Z" fill="#F3F2F1"/>
<path d="M210.442 219.13C210.442 219.247 188.733 219.341 161.962 219.341C135.18 219.341 113.477 219.247 113.477 219.13C113.477 219.014 135.18 218.92 161.962 218.92C188.733 218.92 210.442 219.014 210.442 219.13Z" fill="#F3F2F1"/>
<path d="M210.442 236.428C210.442 236.544 188.733 236.639 161.962 236.639C135.18 236.639 113.477 236.544 113.477 236.428C113.477 236.312 135.18 236.217 161.962 236.217C188.733 236.217 210.442 236.312 210.442 236.428Z" fill="#F3F2F1"/>
<path d="M176.991 245.337C176.991 245.454 162.771 245.548 145.235 245.548C127.693 245.548 113.477 245.454 113.477 245.337C113.477 245.221 127.693 245.126 145.235 245.126C162.771 245.126 176.991 245.221 176.991 245.337Z" fill="#F3F2F1"/>
<path d="M254.214 71.2499C254.323 69.7637 252.997 67.712 251.767 66.5341C250.538 65.3553 249.776 63.7567 250.417 61.3797C250.913 59.5424 252.077 59.68 252.537 58.5999C252.878 57.8006 252.735 56.8888 252.806 56.0224C253.046 53.0484 256.319 50.7167 259.21 51.4594C260.023 48.6311 262.661 46.4216 265.589 46.1166C268.516 45.8116 271.553 47.4313 272.931 50.0315C274.603 49.1626 276.709 49.1925 278.354 50.1084C280 51.0242 281.135 52.7976 281.277 54.6753C282.907 53.499 285.405 53.9529 286.694 55.4941C287.983 57.0353 288.063 59.3952 287.084 61.15C286.105 62.9056 284.207 64.0471 282.222 64.3529C280.236 64.6579 278.183 64.1887 276.384 63.2915C274.586 62.3951 273.02 61.0901 271.595 59.6735" fill="#17282F"/>
<path d="M302.464 130.016C302.464 148.905 286.784 164.218 267.441 164.218C248.099 164.218 232.418 148.905 232.418 130.016C232.418 111.127 248.099 95.8135 267.441 95.8135C286.784 95.8135 302.464 111.127 302.464 130.016Z" fill="#DADBD8"/>
<path d="M302.607 130.044L298.731 120.105L284.837 128.833L297.217 147.923C297.217 147.923 302.254 141.382 302.607 130.044Z" fill="#F68260"/>
<path d="M264.252 108.523C269.245 108.531 273.365 104.652 273.611 99.7098C273.816 95.5935 273.989 91.6301 273.989 91.6301C273.989 91.6301 281.631 91.0759 282.337 83.6045C283.042 76.1331 283.138 58.8539 283.138 58.8539C274.707 54.4277 264.521 54.8703 256.515 60.01L255.789 60.4768L254.905 99.1427C254.849 104.3 259.048 108.514 264.252 108.523Z" fill="#F8A58D"/>
<path d="M268.639 70.3479C269.215 70.5372 269.526 71.1537 269.336 71.7257C269.145 72.296 268.522 72.6051 267.946 72.4158C267.369 72.2264 267.058 71.61 267.249 71.0388C267.439 70.4676 268.062 70.1578 268.639 70.3479Z" fill="#17282F"/>
<path d="M270.732 70.7362C270.605 70.8584 269.897 70.2484 268.857 70.182C267.817 70.1003 267.029 70.6035 266.923 70.4636C266.869 70.4021 267.001 70.1755 267.346 69.9458C267.684 69.7184 268.253 69.5138 268.902 69.5599C269.551 69.606 270.085 69.89 270.387 70.1634C270.695 70.4385 270.793 70.682 270.732 70.7362Z" fill="#17282F"/>
<path d="M280.044 70.3479C280.62 70.5372 280.933 71.1537 280.742 71.7257C280.551 72.296 279.929 72.6051 279.353 72.4158C278.776 72.2264 278.463 71.61 278.655 71.0388C278.846 70.4676 279.468 70.1578 280.044 70.3479Z" fill="#17282F"/>
<path d="M282.278 70.7588C282.152 70.8818 281.444 70.2718 280.403 70.2054C279.364 70.1229 278.575 70.6262 278.468 70.487C278.416 70.4247 278.548 70.1982 278.892 69.9684C279.231 69.7411 279.801 69.5364 280.448 69.5825C281.097 69.6286 281.631 69.9126 281.933 70.186C282.241 70.4619 282.339 70.7054 282.278 70.7588Z" fill="#17282F"/>
<path d="M274.428 78.8377C274.427 78.7568 275.081 78.6799 276.137 78.6209C276.412 78.6136 276.631 78.5691 276.662 78.4267C276.724 78.2673 276.642 77.9704 276.531 77.6387C276.319 76.9365 276.104 76.2246 275.879 75.4794C274.988 72.4059 274.393 69.8785 274.55 69.834C274.708 69.7887 275.558 72.2441 276.45 75.3176C276.658 76.0668 276.858 76.7828 277.056 77.4899C277.13 77.8086 277.289 78.1881 277.112 78.6217C277.019 78.8377 276.792 78.9817 276.608 79.0141C276.425 79.0529 276.271 79.0408 276.14 79.0367C275.083 78.989 274.429 78.9186 274.428 78.8377Z" fill="#17282F"/>
<path d="M274.01 91.5233C274.01 91.5233 269.209 91.5233 264.398 87.9579C264.398 87.9579 266.283 93.5289 273.869 93.4625L274.01 91.5233Z" fill="#F68260"/>
<path d="M255.605 71.4513C255.613 70.8469 255.146 70.3251 254.537 70.2968C253.129 70.2312 250.812 70.7409 250.52 74.5919C250.104 80.0941 255.476 78.8239 255.498 78.667C255.515 78.544 255.578 73.5919 255.605 71.4513Z" fill="#F8A58D"/>
<path d="M254.316 76.4785C254.292 76.4591 254.214 76.5384 254.045 76.6007C253.879 76.6606 253.602 76.6905 253.32 76.5611C252.75 76.3038 252.326 75.3443 252.374 74.3508C252.398 73.8492 252.54 73.3799 252.748 72.9981C252.948 72.6089 253.233 72.3468 253.532 72.3169C253.831 72.2716 254.027 72.4625 254.083 72.6227C254.146 72.7821 254.102 72.8889 254.13 72.9002C254.146 72.9156 254.256 72.8177 254.229 72.5871C254.214 72.4763 254.159 72.3412 254.037 72.2255C253.912 72.1082 253.72 72.0386 253.513 72.0459C253.082 72.0434 252.668 72.4051 252.438 72.8233C252.185 73.2424 252.013 73.7683 251.986 74.3314C251.938 75.443 252.432 76.523 253.217 76.8135C253.6 76.9437 253.934 76.8515 254.113 76.7342C254.295 76.6112 254.333 76.4899 254.316 76.4785Z" fill="#F68260"/>
<path d="M265.807 67.8059C266.081 68.1586 267.038 67.9935 268.281 67.9401C269.522 67.8406 270.493 67.8884 270.719 67.5049C270.976 67.1052 269.774 66.1878 268.175 66.3189C266.571 66.3844 265.5 67.4402 265.807 67.8059Z" fill="#17282F"/>
<path d="M277.922 67.4393C278.073 67.9199 278.984 68.0639 279.995 68.0574C281.006 68.0372 281.914 67.8689 282.052 67.3851C282.195 66.9142 281.277 66.2395 279.974 66.2581C278.671 66.2735 277.769 66.9733 277.922 67.4393Z" fill="#17282F"/>
<path d="M284.2 61.2195C284.2 61.2195 279.666 63.4144 273.766 60.4695C269.894 58.5368 265.381 57.5934 264.385 58.3709C263.391 59.15 263.181 63.1393 259.345 64.3043C259.345 64.3043 259.609 71.9165 256.574 71.6446C253.539 71.3728 255.436 59.5836 255.436 59.5836L262.86 55.9576L270.962 54.4269L278.596 55.5029L284.504 57.121L284.2 61.2195Z" fill="#17282F"/>
<path d="M233.389 105.267C241.322 97.1072 255.287 97.9979 255.287 97.9979L266.862 106.285L273.426 98.6427C273.426 98.6427 280.324 99.4 286.788 102.777L287.233 102.915L287.228 103.007C292.305 105.765 299.495 112.377 306.344 118.795L298.148 126.401L289.076 134.454C289.076 134.454 289.112 134.512 289.092 134.615C288.997 135.103 290.354 146.18 291.742 154.598C283.479 162.483 272.948 165.858 261.256 163.809C257.546 163.159 255.749 162.254 252.313 161.352C247.234 160.02 243.553 155.617 243.097 150.386C242.479 143.33 242.008 134.594 242.008 134.594L233.389 105.267Z" fill="#33535F"/>
<path d="M280.684 100.066C280.712 100.057 280.888 100.521 281.183 101.368C281.48 102.214 281.884 103.447 282.36 104.977C283.316 108.039 284.533 112.301 285.683 117.058C286.831 121.817 287.694 126.165 288.24 129.325C288.514 130.904 288.718 132.186 288.84 133.074C288.965 133.962 289.019 134.455 288.99 134.46C288.962 134.465 288.852 133.981 288.678 133.102C288.492 132.154 288.245 130.899 287.948 129.379C287.326 126.238 286.419 121.907 285.274 117.157C284.125 112.408 282.957 108.142 282.075 105.063C281.647 103.575 281.293 102.346 281.026 101.417C280.78 100.555 280.657 100.075 280.684 100.066Z" fill="#17282F"/>
<path d="M288.137 129.233C288.064 129.143 291.525 126.201 295.866 122.664C300.21 119.126 303.789 116.331 303.863 116.421C303.936 116.512 300.475 119.453 296.133 122.991C291.791 126.528 288.211 129.323 288.137 129.233Z" fill="#17282F"/>
<path d="M239.402 141.2L236.76 139.826L240.21 128.477L242.008 134.594L239.402 141.2Z" fill="#A7AAA9"/>
<path d="M242.008 134.594L240.21 128.477L243.861 116.467C244.685 120.716 242.008 134.594 242.008 134.594Z" fill="#263F48"/>
<path d="M279.687 99.9752C276.73 99.1185 274.39 98.7681 273.663 98.6719C273.663 98.6597 273.663 98.6476 273.664 98.6347C275.12 98.8782 278.44 99.4663 279.687 99.9752Z" fill="#A7AAA9"/>
<path d="M272.514 99.705L272.963 98.5205C272.963 98.5205 273.231 98.5626 273.664 98.6346C273.663 98.6476 273.663 98.6597 273.663 98.6718C273.508 98.6516 273.426 98.6427 273.426 98.6427L272.514 99.705Z" fill="#D8866F"/>
<path d="M269.992 106.825C269.932 106.825 269.874 106.824 269.816 106.823L272.514 99.7049L273.426 98.6427C273.426 98.6427 273.508 98.6516 273.663 98.6718C274.39 98.7681 276.73 99.1184 279.687 99.9752C279.773 100.011 279.85 100.046 279.915 100.08C283.692 102.071 274.402 106.825 269.992 106.825Z" fill="#263F48"/>
<path d="M254.146 98.5205V92.3347C254.146 92.3347 266.228 95.4438 266.666 102.673C266.666 102.673 268.203 94.6825 274.428 94.299L275.307 105.54L268.063 111.843H260.721L254.905 106.826L254.146 99.0205" fill="#33535F"/>
<path d="M269.385 137.349C269.357 137.347 269.351 136.873 269.364 136.018C269.382 135.164 269.397 133.927 269.401 132.399C269.412 129.345 269.317 125.124 268.933 120.48C268.546 115.835 267.942 111.656 267.428 108.645C267.17 107.195 266.957 105.995 266.795 105.082C266.639 104.241 266.567 103.773 266.595 103.766C266.624 103.76 266.75 104.216 266.955 105.048C267.163 105.879 267.427 107.089 267.721 108.591C268.313 111.596 268.963 115.784 269.354 120.445C269.738 125.105 269.787 129.343 269.699 132.404C269.658 133.934 269.596 135.172 269.528 136.026C269.464 136.88 269.414 137.351 269.385 137.349Z" fill="#17282F"/>
<path d="M266.11 100.593C266.105 100.628 265.836 100.489 265.394 100.66C264.932 100.809 264.519 101.383 264.181 102.204C263.439 103.812 262.521 106.129 261.882 108.888L261.818 109.164L261.574 109.017C260.852 108.581 260.112 108.109 259.367 107.604C257.923 106.621 256.603 105.619 255.449 104.627C254.869 104.129 254.391 103.524 254.116 102.881C253.845 102.238 253.739 101.594 253.709 101.015C253.661 99.8515 253.851 98.934 253.977 98.3095C254.112 97.6849 254.215 97.3467 254.242 97.3524C254.272 97.358 254.222 97.7084 254.138 98.3378C254.063 98.9648 253.922 99.8814 254.006 100.995C254.053 101.55 254.172 102.152 254.434 102.738C254.703 103.325 255.138 103.86 255.705 104.336C256.849 105.291 258.175 106.283 259.603 107.255C260.342 107.756 261.075 108.227 261.789 108.665L261.481 108.794C262.148 106.003 263.127 103.677 263.94 102.088C264.14 101.691 264.335 101.324 264.576 101.046C264.812 100.765 265.1 100.593 265.347 100.523C265.86 100.38 266.13 100.587 266.11 100.593Z" fill="#17282F"/>
<path d="M274.428 94.299C274.457 94.2982 274.494 94.6429 274.542 95.265C274.594 95.9745 274.658 96.8548 274.735 97.8976C274.825 99.0076 274.96 100.325 275.187 101.776C275.275 102.493 275.527 103.271 275.332 104.151C275.082 105.015 274.431 105.66 273.742 106.181C272.774 106.9 271.763 107.438 271.083 108.2L270.762 108.561L270.731 108.079C270.562 105.524 269.709 103.422 268.946 102.055C268.178 100.677 267.544 99.9679 267.594 99.9283C267.61 99.9137 267.783 100.076 268.071 100.406C268.356 100.736 268.747 101.243 269.166 101.927C270.005 103.282 270.935 105.42 271.134 108.052L270.781 107.931C271.52 107.092 272.565 106.536 273.489 105.845C274.146 105.354 274.727 104.747 274.932 104.048C275.104 103.34 274.891 102.567 274.803 101.834C274.595 100.366 274.49 99.0343 274.438 97.917C274.384 96.7997 274.375 95.8953 274.378 95.2707C274.381 94.6461 274.4 94.3007 274.428 94.299Z" fill="#17282F"/>
<path d="M313.316 95.8517C312.826 96.4301 295.039 120.215 295.039 120.215L297.542 121.634L315.795 98.1518L313.316 95.8517Z" fill="#17282F"/>
<path d="M241.861 114.656C241.861 114.656 260.573 141.592 261.701 142.122C263.922 143.164 289.521 121.042 291.963 118.925C292.299 118.475 292.994 117.527 294.357 115.64C294.357 115.64 296.377 106.398 298.532 107.108C300.687 107.818 297.351 111.804 298.755 115.316C300.158 118.827 306.587 110.452 306.844 109.7L308.503 107.534C308.503 107.534 310.241 112.463 310.123 114.521C309.745 121.115 303.507 128.957 303.507 128.957C303.507 128.957 275.491 163.662 256.3 164.739C250.773 165.049 240.95 149.366 234.384 137.606C230.418 130.504 232.397 121.557 238.969 116.764L241.861 114.656Z" fill="#F8A58D"/>
<path d="M306.974 115.693C306.911 115.655 307.512 114.596 308.173 113.253C308.838 111.912 309.317 110.793 309.385 110.819C309.448 110.841 309.071 112.011 308.399 113.365C307.731 114.721 307.03 115.729 306.974 115.693Z" fill="#F68260"/>
<path d="M238.693 101.511C238.693 101.511 218.608 108.651 233.541 142.427L256.726 128.433L253.429 120.535L238.693 101.511Z" fill="#33535F"/>
<path d="M237.154 102.095C237.154 102.095 238.031 101.95 239.573 102.299C240.333 102.495 241.247 102.83 242.206 103.41C243.166 103.986 244.164 104.795 245.132 105.811C247.082 107.842 248.901 110.678 250.588 113.962C252.287 117.246 253.872 120.986 255.499 124.916C255.985 126.093 256.465 127.254 256.92 128.353L256.992 128.527L256.827 128.616C250.119 132.274 244.278 135.698 240.149 138.261C238.083 139.54 236.438 140.591 235.309 141.321C234.769 141.668 234.337 141.946 234.007 142.157C233.709 142.345 233.549 142.438 233.541 142.427C233.533 142.415 233.679 142.301 233.963 142.092C234.248 141.885 234.669 141.576 235.223 141.195C236.328 140.424 237.951 139.336 239.999 138.024C244.093 135.394 249.918 131.921 256.626 128.25L256.534 128.514C256.078 127.414 255.597 126.254 255.109 125.077C253.484 121.148 251.914 117.414 250.243 114.139C248.584 110.863 246.807 108.041 244.916 106.015C243.975 105.002 243.011 104.193 242.083 103.611C241.155 103.024 240.271 102.674 239.531 102.457C238.031 102.067 237.15 102.154 237.154 102.095Z" fill="#17282F"/>
<path d="M280.36 52.02C280.374 52.0168 280.408 52.1373 280.459 52.3719C280.496 52.6082 280.547 52.9633 280.518 53.4212C280.473 54.3184 280.146 55.7092 278.986 56.9235C277.864 58.1395 275.731 58.9065 273.58 58.2884C272.527 57.9809 271.464 57.3402 270.812 56.282C270.497 55.7585 270.307 55.1073 270.399 54.4552C270.486 53.8169 270.808 53.1696 271.392 52.7862C271.976 52.3897 272.742 52.4011 273.334 52.6616C273.934 52.9156 274.429 53.4043 274.661 53.9957C275.135 55.1825 274.786 56.4664 274.13 57.358C272.736 59.2026 270.219 59.3514 268.825 58.5108C268.088 58.1727 267.439 57.8539 266.827 57.7447C266.218 57.6193 265.677 57.7261 265.28 57.9073C264.487 58.2892 264.166 58.7115 264.13 58.6654C264.119 58.6548 264.2 58.5602 264.367 58.3863C264.449 58.2989 264.551 58.1896 264.697 58.0893C264.837 57.9801 264.999 57.8547 265.212 57.7584C265.617 57.5424 266.208 57.4 266.866 57.5125C267.526 57.608 268.211 57.9227 268.944 58.2374C269.313 58.3879 269.698 58.5497 270.111 58.6241C270.515 58.6937 270.969 58.6856 271.414 58.5998C272.306 58.4396 273.22 57.9502 273.817 57.1282C274.403 56.324 274.693 55.1534 274.28 54.1542C273.918 53.1777 272.559 52.5167 271.622 53.1381C271.166 53.435 270.888 53.9714 270.813 54.511C270.737 55.0547 270.89 55.6024 271.168 56.0708C271.736 57.0109 272.714 57.6233 273.689 57.9154C275.688 58.5116 277.695 57.8304 278.774 56.714C279.898 55.5951 280.263 54.2748 280.354 53.4075C280.45 52.5208 280.314 52.0257 280.36 52.02Z" fill="#33535F"/>
<path d="M275.986 82.5276C275.995 82.5786 275.737 82.6854 275.292 82.7048C274.851 82.7259 274.224 82.6263 273.612 82.3205C273.002 82.0107 272.55 81.5657 272.304 81.1984C272.054 80.8303 271.987 80.5601 272.033 80.5366C272.14 80.4719 272.679 81.3942 273.803 81.9435C274.913 82.5196 275.974 82.4047 275.986 82.5276Z" fill="#17282F"/>
<path d="M254.77 78.9518C254.807 78.9162 255.034 79.3078 254.741 79.8644C254.598 80.1249 254.327 80.4064 253.917 80.5181C253.503 80.6338 253.012 80.4986 252.66 80.1888C252.304 79.8822 252.107 79.4267 252.128 79.0141C252.14 78.6039 252.313 78.2714 252.498 78.0457C252.885 77.5894 253.28 77.5473 253.287 77.5926C253.317 77.6533 253.002 77.7965 252.739 78.2204C252.467 78.6209 252.361 79.3927 252.937 79.8717C253.202 80.1014 253.545 80.2017 253.827 80.1402C254.115 80.0828 254.348 79.8935 254.489 79.705C254.783 79.3118 254.704 78.9607 254.77 78.9518Z" fill="#17282F"/>
<path d="M281.692 54.745C281.729 54.7256 282.029 55.2628 282.081 56.2312C282.141 57.1794 281.866 58.5895 280.881 59.7335C279.888 60.871 278.531 61.3426 277.583 61.4179C276.618 61.5028 276.044 61.2836 276.058 61.2431C276.067 61.1711 276.645 61.2779 277.544 61.1226C278.429 60.9786 279.658 60.4948 280.562 59.4568C281.46 58.4156 281.766 57.1308 281.783 56.2344C281.81 55.3226 281.622 54.7652 281.692 54.745Z" fill="#33535F"/>
<path d="M254.333 122.435C254.384 122.54 249.05 125.283 242.419 128.561C235.786 131.841 230.368 134.415 230.317 134.31C230.266 134.206 235.599 131.463 242.232 128.184C248.863 124.905 254.282 122.331 254.333 122.435Z" fill="#DADBD8"/>
<path d="M249.47 113.26C249.526 113.363 244.777 116.018 238.866 119.191C232.952 122.365 228.115 124.854 228.06 124.751C228.005 124.649 232.753 121.994 238.667 118.82C244.578 115.647 249.415 113.158 249.47 113.26Z" fill="#DADBD8"/>
<path d="M244.774 105.84C244.801 105.893 243.886 106.418 242.398 107.246C240.807 108.133 238.805 109.251 236.591 110.486C234.386 111.743 232.394 112.879 230.812 113.781C229.334 114.626 228.411 115.137 228.38 115.087C228.351 115.039 229.217 114.437 230.659 113.526C232.099 112.614 234.117 111.398 236.383 110.119C238.649 108.841 240.734 107.744 242.259 106.982C243.784 106.221 244.749 105.79 244.774 105.84Z" fill="#DADBD8"/>
<path d="M262.541 104.086C262.53 104.134 261.907 104.053 260.978 103.665C260.049 103.286 258.846 102.555 257.706 101.536C256.566 100.516 255.682 99.4558 255.068 98.6783C254.457 97.8968 254.112 97.3895 254.155 97.3531C254.201 97.3151 254.628 97.7568 255.295 98.4857C255.964 99.2106 256.873 100.226 257.987 101.22C259.098 102.215 260.232 102.957 261.103 103.395C261.973 103.84 262.559 104.021 262.541 104.086Z" fill="#DADBD8"/>
<path d="M274.343 99.7033C274.445 99.7332 273.955 101.05 272.662 102.128C271.38 103.219 269.999 103.477 269.986 103.371C269.945 103.251 271.19 102.831 272.391 101.806C273.605 100.798 274.231 99.6426 274.343 99.7033Z" fill="#DADBD8"/>
<path d="M295.38 111.878C295.381 111.893 295.226 111.921 294.929 111.962C294.585 112.005 294.154 112.058 293.628 112.123C292.496 112.248 290.856 112.406 288.827 112.564C284.768 112.887 279.154 113.204 272.948 113.43C266.741 113.647 261.117 113.731 257.047 113.698C255.011 113.686 253.364 113.644 252.227 113.601C251.697 113.573 251.264 113.551 250.918 113.534C250.618 113.513 250.461 113.496 250.462 113.482C250.463 113.467 250.62 113.456 250.919 113.449C251.265 113.445 251.699 113.441 252.23 113.437C253.426 113.428 255.057 113.415 257.046 113.4C261.112 113.357 266.729 113.226 272.933 113.009C279.134 112.783 284.747 112.513 288.807 112.267C290.792 112.14 292.419 112.036 293.612 111.959C294.142 111.927 294.574 111.9 294.921 111.878C295.22 111.865 295.379 111.864 295.38 111.878Z" fill="#DADBD8"/>
<path d="M288.99 121.472C288.994 121.501 288.52 121.574 287.661 121.682C286.802 121.788 285.557 121.923 284.016 122.061C280.933 122.345 276.668 122.639 271.95 122.83C267.23 123.02 262.953 123.071 259.858 123.037C258.311 123.024 257.059 122.99 256.195 122.953C255.33 122.915 254.853 122.88 254.854 122.851C254.854 122.821 255.332 122.801 256.197 122.788C257.133 122.775 258.368 122.759 259.857 122.739C262.949 122.697 267.219 122.598 271.932 122.41C276.645 122.218 280.908 121.972 283.992 121.764C285.479 121.664 286.711 121.581 287.646 121.518C288.508 121.461 288.987 121.443 288.99 121.472Z" fill="#DADBD8"/>
<path d="M274.489 133.305C274.494 133.361 273.47 133.512 271.808 133.683C270.145 133.854 267.842 134.038 265.295 134.166C262.747 134.292 260.437 134.337 258.766 134.332C257.094 134.327 256.061 134.279 256.061 134.222C256.06 134.162 257.092 134.105 258.76 134.034C260.548 133.954 262.792 133.855 265.275 133.745C267.754 133.608 269.997 133.484 271.784 133.386C273.45 133.291 274.483 133.246 274.489 133.305Z" fill="#DADBD8"/>
<path d="M255.949 105.227C255.947 105.346 253.464 105.374 250.411 105.502C247.355 105.625 244.881 105.801 244.867 105.682C244.854 105.57 247.321 105.204 250.393 105.081C253.464 104.952 255.953 105.114 255.949 105.227Z" fill="#DADBD8"/>
<path d="M290.08 104.79C290.079 104.905 286.86 104.988 282.89 104.973C278.92 104.958 275.702 104.851 275.702 104.735C275.703 104.619 278.921 104.536 282.892 104.552C286.862 104.566 290.08 104.672 290.08 104.79Z" fill="#DADBD8"/>
<path d="M291.322 154.019C291.335 154.045 291.071 154.194 290.585 154.442C290.1 154.693 289.381 155.023 288.48 155.401C286.681 156.157 284.123 157.051 281.213 157.724C278.302 158.393 275.611 158.709 273.661 158.816C272.686 158.872 271.895 158.889 271.349 158.876C270.804 158.866 270.503 158.847 270.502 158.817C270.501 158.75 271.705 158.703 273.638 158.52C275.571 158.337 278.232 157.977 281.119 157.313C284.003 156.647 286.553 155.805 288.371 155.123C290.19 154.443 291.294 153.958 291.322 154.019Z" fill="#DADBD8"/>
<path d="M37.7595 230.725C37.7595 249.176 53.4398 264.134 72.7822 264.134C92.1248 264.134 107.805 249.176 107.805 230.725C107.805 212.273 92.1248 197.315 72.7822 197.315C53.4398 197.315 37.7595 212.273 37.7595 230.725Z" fill="#DADBD8"/>
<path d="M65.6466 150.171C60.0902 150.461 57.909 156.253 57.2444 157.546C56.5798 158.838 56.4765 160.336 56.3541 161.784C56.2322 163.233 56.0603 164.737 55.2882 165.968C54.0652 167.921 51.4963 168.929 50.7959 171.124C50.0036 173.605 52.0363 176.259 51.4946 178.807C51.2039 180.174 50.2055 181.299 49.8526 182.652C49.4844 184.065 49.8683 185.591 50.6025 186.853C52.4272 189.987 56.2101 191.561 59.8349 191.691C63.4594 191.82 67.0049 190.736 70.4698 189.663" fill="#17282F"/>
<path d="M90.0958 157.371C89.5521 158.546 90.0659 159.975 90.9178 160.95C91.7713 161.926 92.9169 162.588 93.9257 163.401C94.9346 164.214 95.8617 165.286 95.979 166.576C96.0866 167.76 95.4912 168.936 95.653 170.115C96.068 173.144 100.898 174.052 101.155 177.098C101.327 179.126 99.2443 180.99 99.8211 182.942C100.043 183.69 100.622 184.269 101.024 184.938C102.395 187.213 101.465 190.353 99.4797 192.118C97.4935 193.883 94.7323 194.504 92.0787 194.624C89.8466 194.724 87.3111 194.359 85.9964 192.552C84.7942 190.899 85.041 188.645 85.2813 186.615C86.4026 177.134 86.2125 167.553 86.0199 158.008" fill="#17282F"/>
<path d="M67.1061 201.245C67.148 196.264 67.1016 191.019 67.1016 191.019C67.1016 191.019 60.6977 189.88 59.4652 181.494C58.2895 173.495 60.2834 156.292 60.2834 156.292C69.5615 152.632 80.0079 154.048 86.5078 161.516L85.4973 201.964C85.38 206.659 81.2491 210.299 76.2222 210.134H76.2219C71.1449 209.968 67.0656 205.99 67.1061 201.245Z" fill="#F8A58D"/>
<path d="M62.0265 169.501C62 170.068 62.4579 170.558 63.0492 170.597C63.6395 170.635 64.1405 170.208 64.1673 169.641C64.1939 169.074 63.7359 168.585 63.1459 168.546C62.5543 168.507 62.0531 168.935 62.0265 169.501Z" fill="#17282F"/>
<path d="M60.3001 168.671C60.4312 168.813 61.2517 168.22 62.407 168.236C64.581 168.552 64.5412 168.883 64.5291 168.701C64.5917 168.638 64.4587 168.384 64.0927 168.112C63.7325 167.84 63.1153 167.572 62.396 167.567C61.6761 167.562 61.0677 167.82 60.7166 168.087C60.3583 168.356 60.235 168.608 60.3001 168.671Z" fill="#17282F"/>
<path d="M73.8513 169.842C73.8248 170.409 74.2827 170.899 74.8739 170.937C75.4639 170.976 75.9649 170.549 75.9918 169.983C76.0183 169.416 75.5604 168.925 74.9704 168.887C74.3787 168.848 73.8775 169.276 73.8513 169.842Z" fill="#17282F"/>
<path d="M72.3496 169.07C72.481 169.212 73.3024 168.619 74.4572 168.636C75.611 168.635 76.4519 169.24 76.5793 169.099C76.6412 169.038 76.5101 168.784 76.1422 168.51C75.7826 168.239 75.1654 167.972 74.4461 167.966C73.7265 167.961 73.1178 168.219 72.7668 168.486C72.4093 168.755 72.2851 169.006 72.3496 169.07Z" fill="#17282F"/>
<path d="M68.0578 177.358C68.0639 177.293 67.3471 177.16 66.1851 176.997C65.8909 176.963 65.6118 176.902 65.5644 176.7C65.4974 176.486 65.6248 176.17 65.7714 175.827C66.0571 175.117 66.3561 174.372 66.6702 173.591C67.9185 170.407 68.8259 167.787 68.6975 167.739C68.5689 167.689 67.4524 170.231 66.2038 173.415C65.9032 174.2 65.6156 174.948 65.3416 175.665C65.2262 175.999 65.0301 176.377 65.1754 176.821C65.2525 177.042 65.4668 177.204 65.6554 177.258C65.8438 177.318 66.0097 177.322 66.1561 177.333C67.326 177.41 68.0525 177.424 68.0578 177.358Z" fill="#17282F"/>
<path d="M67.1016 191.019C67.1016 191.019 72.7295 191.448 78.3474 188.158C78.3474 188.158 75.5614 193.878 67.1917 192.998L67.1016 191.019Z" fill="#F68260"/>
<path d="M68.5142 180.147C68.9358 179.603 69.6674 179.31 70.3892 179.396C70.8898 179.456 71.3936 179.703 71.6935 180.115C71.9934 180.527 72.0506 181.108 71.7693 181.494C71.4524 181.928 70.7997 182.021 70.2498 181.859C69.7006 181.696 69.2304 181.327 68.7835 180.961C68.6606 180.859 68.5338 180.753 68.4577 180.615C68.3815 180.477 68.367 180.298 68.4646 180.185" fill="#F68260"/>
<path d="M71.4486 178.196C71.2605 178.183 71.2437 179.437 70.1604 180.315C69.0784 181.195 67.7431 181.039 67.7311 181.214C67.7131 181.293 68.0263 181.461 68.5904 181.483C69.1434 181.509 69.9537 181.341 70.617 180.804C71.2779 180.265 71.5677 179.54 71.617 179.025C71.6707 178.503 71.5342 178.19 71.4486 178.196Z" fill="#17282F"/>
<path d="M82.8712 155.541C79.8084 159.91 71.6985 164.402 65.8915 165.444C66.5694 164.552 70.1368 162.353 70.8146 161.46C68.1818 163.426 64.4151 166.056 60.923 166.233C60.51 166.254 60.0624 166.253 59.7224 166.046C59.2595 165.765 59.1653 165.216 59.1115 164.731C58.8862 162.685 59.0278 159.176 59.3536 157.144C59.6788 155.114 60.6123 153.094 62.3745 151.732C64.6123 150.004 67.8143 149.577 70.8311 149.505C73.3618 149.443 75.9699 149.593 78.2829 150.506C80.596 151.42 82.5743 153.224 82.9124 155.394" fill="#17282F"/>
<path d="M91.654 175.112C92.0755 172.945 92.412 170.889 92.4897 169.516C92.7373 165.196 91.4898 149.251 76.5938 150.534L75.9931 155.071C75.9931 155.071 73.6907 170.599 83.3258 170.713C83.3258 170.713 83.8582 175.34 88.2213 179.841C88.2213 179.841 90.7487 179.764 91.654 175.112Z" fill="#17282F"/>
<path d="M83.3258 170.713C84.223 170.551 85.1696 170.586 86.0191 170.917C86.8686 171.248 87.6121 171.892 87.9705 172.73C88.3305 173.571 88.2827 174.55 87.9624 175.407C87.6428 176.263 87.07 177.005 86.4115 177.64C85.939 178.096 85.4026 178.511 84.774 178.7C84.1454 178.889 83.4092 178.818 82.9124 178.389" fill="#F8A58D"/>
<path d="M83.7579 176.147C83.6551 176.179 84.0386 176.725 84.8589 176.514C85.2546 176.415 85.6429 176.072 85.8807 175.643C86.1202 175.205 86.278 174.725 86.3435 174.162C86.4066 173.604 86.2861 173.009 85.9835 172.581C85.6947 172.147 85.2182 171.886 84.8153 171.874C83.9731 171.844 83.7061 172.425 83.8015 172.443C83.8679 172.512 84.198 172.215 84.7481 172.354C85.2748 172.457 85.7853 173.191 85.6607 174.094C85.5499 175.013 85.1866 175.852 84.6939 176.057C84.1802 176.312 83.8153 176.073 83.7579 176.147Z" fill="#F68260"/>
<path d="M84.952 153.904C86.0919 154.554 87.4883 154.738 88.7576 154.404C90.0262 154.071 91.1532 153.224 91.8255 152.098C92.2599 151.37 92.5091 150.488 92.2963 149.668C92.0051 148.547 90.9153 147.79 89.794 147.499C88.1687 147.076 86.3265 147.481 85.0976 148.627C83.8687 149.773 83.3396 151.647 83.8849 153.236C84.4302 154.825 86.0709 155.998 87.7488 155.902" fill="#17282F"/>
<path d="M86.3095 178.053C85.4811 178.651 84.6421 179.258 83.9941 180.05C83.3469 180.84 82.9011 181.85 82.995 182.867C83.0475 183.436 83.2652 183.999 83.1827 184.565C83.0694 185.343 82.4302 185.92 82.0087 186.583C80.919 188.301 81.3874 190.71 82.7652 192.205C84.143 193.702 86.2367 194.377 88.269 194.443C89.4478 194.482 90.6856 194.316 91.6524 193.64C93.0447 192.665 93.5811 190.837 93.6167 189.137" fill="#17282F"/>
<path d="M87.3208 157.246C87.3645 157.271 87.0692 157.88 86.443 158.773C85.82 159.665 84.8387 160.824 83.5742 161.912C82.3073 162.999 81.0144 163.795 80.0384 164.278C79.0616 164.761 78.4166 164.962 78.397 164.915C78.336 164.793 80.8232 163.743 83.2999 161.593C85.7966 159.468 87.2091 157.167 87.3208 157.246Z" fill="#33535F"/>
<path d="M88.8661 157.163C88.9122 157.169 88.8823 157.961 88.5918 159.205C88.3046 160.447 87.7051 162.13 86.6995 163.808C85.6882 165.483 84.4811 166.8 83.5184 167.637C82.5557 168.476 81.8696 168.873 81.8437 168.835C81.7442 168.731 84.3735 166.903 86.3379 163.591C88.3443 160.304 88.7269 157.123 88.8661 157.163Z" fill="#33535F"/>
<path d="M56.5261 163.905C56.6503 163.897 56.8099 165.299 57.2934 166.953C57.7662 168.611 58.378 169.882 58.2686 169.942C58.1764 169.999 57.3775 168.781 56.8886 167.07C56.3902 165.362 56.418 163.906 56.5261 163.905Z" fill="#33535F"/>
<path d="M92.2081 192.529C92.23 192.477 92.5835 192.906 93.4395 192.925C93.8545 192.929 94.3788 192.808 94.865 192.475C95.3504 192.148 95.7484 191.559 95.9442 190.84C96.14 190.117 96.1441 189.274 95.9596 188.402C95.7857 187.523 95.4451 186.616 95.1449 185.625C94.8529 184.64 94.5972 183.531 94.7849 182.365C94.9718 181.179 95.7395 180.218 96.1149 179.153C96.4968 178.091 96.3431 176.914 95.8755 175.962C95.3973 174.996 94.5915 174.295 93.6579 173.934C93.1943 173.737 92.7146 173.569 92.2696 173.327C91.8271 173.09 91.4137 172.759 91.1621 172.335C90.6435 171.482 90.6645 170.556 90.6621 169.79C90.6766 169.006 90.7187 168.32 90.5788 167.732C90.4525 167.146 90.2333 166.664 89.9712 166.339C89.4275 165.672 88.8523 165.719 88.8798 165.665C88.8798 165.657 89.0044 165.638 89.2333 165.692C89.4607 165.741 89.794 165.896 90.0966 166.233C90.3992 166.567 90.654 167.068 90.8085 167.68C90.9784 168.295 90.955 169.027 90.9598 169.79C90.976 170.548 90.9938 171.425 91.4565 172.147C91.9096 172.89 92.8521 173.198 93.8084 173.577C94.7954 173.941 95.7298 174.73 96.2444 175.777C96.7613 176.813 96.9361 178.108 96.513 179.292C96.0915 180.453 95.3528 181.377 95.1926 182.435C95.0147 183.49 95.2396 184.548 95.5171 185.516C95.801 186.49 96.136 187.418 96.3026 188.335C96.4798 189.249 96.4612 190.15 96.2306 190.922C96 191.693 95.5486 192.326 94.996 192.67C94.4483 193.017 93.8804 193.118 93.4338 193.088C92.9824 193.062 92.6563 192.902 92.4654 192.772C92.2721 192.638 92.2081 192.529 92.2081 192.529Z" fill="#33535F"/>
<path d="M86.367 191.96C86.405 191.936 86.473 192.219 86.8653 192.398C87.2181 192.568 88.0053 192.579 88.4357 191.972C88.8733 191.361 88.8054 190.332 88.3046 189.44C87.8435 188.525 86.926 187.63 86.6922 186.294C86.5684 185.649 86.7229 184.913 87.142 184.428C87.5376 183.939 88.0036 183.614 88.3062 183.214C88.9162 182.409 88.968 181.398 88.8693 180.632C88.7657 179.847 88.5408 179.226 88.4057 178.796C88.2641 178.366 88.1913 178.123 88.2188 178.112C88.2447 178.101 88.3685 178.321 88.5586 178.737C88.7415 179.152 89.0149 179.764 89.1646 180.588C89.3029 181.393 89.3021 182.493 88.6161 183.449C88.2714 183.913 87.8014 184.254 87.4673 184.682C87.1218 185.099 87.0077 185.654 87.108 186.226C87.2982 187.388 88.1582 188.271 88.6484 189.261C89.1727 190.236 89.2414 191.423 88.6759 192.148C88.4025 192.52 87.9875 192.674 87.6493 192.709C87.303 192.743 87.0013 192.67 86.7909 192.543C86.3573 192.279 86.3516 191.947 86.367 191.96Z" fill="#33535F"/>
<path d="M54.6546 189.846C54.6337 189.864 54.3945 189.636 53.9956 189.188C53.6092 188.736 53.0198 188.074 52.5843 187.061C52.3691 186.557 52.2281 185.952 52.2448 185.295C52.2597 184.646 52.4525 183.915 52.9578 183.336C53.459 182.754 54.1868 182.454 54.6251 181.91C55.078 181.371 55.1356 180.579 54.9598 179.827C54.7854 179.061 54.4327 178.375 54.0724 177.69C53.7242 177.002 53.4034 176.302 53.2859 175.567C53.1566 174.836 53.3181 174.068 53.7024 173.524C54.0756 172.972 54.5433 172.595 54.9352 172.239C55.7515 171.568 56.2135 170.837 56.3162 170.268C56.4297 169.699 56.2347 169.388 56.2818 169.377C56.2916 169.371 56.3456 169.438 56.4041 169.59C56.4638 169.739 56.5166 169.984 56.4784 170.293C56.424 170.918 55.9456 171.747 55.1371 172.458C54.7554 172.829 54.3148 173.213 53.9956 173.714C53.6689 174.208 53.5472 174.845 53.6689 175.504C53.7836 176.164 54.0908 176.827 54.4396 177.501C54.7962 178.168 55.1839 178.907 55.371 179.734C55.5656 180.545 55.5088 181.508 54.9456 182.169C54.3954 182.816 53.672 183.096 53.2486 183.593C52.8111 184.078 52.6213 184.716 52.5937 185.31C52.5644 185.908 52.6756 186.47 52.8611 186.951C53.2365 187.921 53.7779 188.607 54.1227 189.086C54.4801 189.56 54.678 189.827 54.6546 189.846Z" fill="#33535F"/>
<path d="M88.3936 154.962C88.2795 155.019 87.7164 153.78 86.4212 152.818C85.1429 151.833 83.7975 151.629 83.8218 151.504C83.8056 151.396 85.2877 151.42 86.6752 152.483C88.0748 153.529 88.502 154.948 88.3936 154.962Z" fill="#F03D5F"/>
<path d="M89.5619 147.215C89.6039 147.188 89.8749 147.505 90.0934 148.133C90.3134 148.752 90.4396 149.706 90.1654 150.7C89.8903 151.694 89.2924 152.448 88.786 152.866C88.2755 153.293 87.8807 153.425 87.858 153.382C87.8249 153.325 88.1558 153.103 88.5813 152.65C89.0061 152.203 89.5101 151.489 89.7593 150.588C90.0076 149.687 89.9421 148.815 89.807 148.214C89.6743 147.606 89.5036 147.247 89.5619 147.215Z" fill="#33535F"/>
<path d="M48.4791 246.739H48.4788L49.1032 242.231L49.1036 242.231C48.9124 243.667 48.7019 245.192 48.4791 246.739Z" fill="#8F9192"/>
<path d="M36.5873 228.859L40.4637 218.918L54.3572 227.648L41.9775 246.739C41.9775 246.739 36.9416 240.197 36.5873 228.859Z" fill="#F68260"/>
<path d="M52.2657 201.394C58.7298 198.017 67.1016 197.045 67.1016 197.045C69.5319 201.908 77.1895 202.525 81.8259 199.207L85.736 196.563C85.736 196.563 86.3419 196.539 87.3742 196.63C96.5203 197.439 104.006 204.269 105.87 213.26C106.549 216.533 107.049 220.288 106.848 223.771C106.34 232.609 97.1869 233.408 97.1869 233.408C97.1869 233.408 96.7161 242.144 96.0972 249.2C95.6377 254.473 92.9023 258.411 88.0927 260.618C84.5119 262.261 82.5371 263.02 77.8879 263.763C66.1665 265.638 54.9065 261.189 47.4824 253.236C48.8707 244.816 50.1974 233.917 50.1029 233.429C50.083 233.327 50.1183 233.268 50.1183 233.268L41.0465 225.215L35.9051 220.897C35.9051 220.897 47.1884 204.151 52.2657 201.394Z" fill="#F03D5F"/>
<path d="M63.5065 206.841C63.4721 206.925 62.7322 206.22 61.264 206.221C60.5536 206.222 59.6731 206.429 58.9503 207.023C58.5907 207.312 58.2842 207.722 57.9208 208.129C57.5655 208.528 57.1051 208.984 56.4521 209.103C55.7992 209.226 55.1956 208.938 54.7434 208.646C54.2773 208.348 53.8791 208.021 53.4698 207.786C52.6699 207.296 51.7592 207.342 51.0964 207.579C50.4205 207.816 49.9727 208.222 49.7173 208.531C49.4626 208.846 49.37 209.06 49.3353 209.045C49.3163 209.039 49.3564 208.8 49.5846 208.434C49.8137 208.075 50.2647 207.599 50.9906 207.3C51.6928 207.002 52.7398 206.911 53.6607 207.448C54.112 207.696 54.5219 208.022 54.9627 208.296C55.3979 208.571 55.8871 208.783 56.3779 208.688C56.868 208.603 57.2663 208.239 57.6145 207.853C57.9678 207.467 58.2911 207.044 58.7079 206.72C59.5357 206.071 60.5055 205.887 61.2684 205.922C62.043 205.958 62.6393 206.196 63.0014 206.417C63.3665 206.642 63.5198 206.827 63.5065 206.841Z" fill="#FAFAF9"/>
<path d="M72.7243 218.918C72.6656 218.986 72.1896 218.083 70.7975 217.614C70.1241 217.389 69.2241 217.304 68.3496 217.635C67.916 217.795 67.4948 218.085 67.02 218.355C66.5555 218.62 65.974 218.903 65.3176 218.808C64.6594 218.716 64.1796 218.251 63.8446 217.829C63.4976 217.398 63.2246 216.961 62.9117 216.607C62.3109 215.888 61.4334 215.64 60.7293 215.653C60.0131 215.661 59.4588 215.902 59.1184 216.114C58.7768 216.332 58.6201 216.504 58.5922 216.479C58.5758 216.469 58.6902 216.254 59.0237 215.98C59.3548 215.714 59.9347 215.406 60.7179 215.356C61.4785 215.297 62.4999 215.545 63.2009 216.348C63.5495 216.728 63.8336 217.168 64.1638 217.567C64.4887 217.967 64.8844 218.325 65.3792 218.392C65.871 218.467 66.3646 218.25 66.8178 217.995C67.276 217.742 67.7178 217.444 68.2163 217.271C69.2079 216.92 70.1857 217.056 70.8974 217.334C71.6202 217.615 72.1091 218.03 72.3818 218.356C72.6555 218.686 72.7424 218.909 72.7243 218.918Z" fill="#FAFAF9"/>
<path d="M93.1992 201.233C93.183 201.322 92.3109 200.79 90.8757 201.101C90.1824 201.254 89.3661 201.642 88.7852 202.376C88.4947 202.735 88.282 203.199 88.0134 203.675C87.7496 204.14 87.3961 204.682 86.7844 204.938C86.172 205.196 85.5207 205.042 85.0175 204.852C84.4981 204.66 84.0402 204.425 83.5904 204.282C82.7045 203.972 81.8251 204.21 81.2264 204.582C80.6165 204.957 80.2644 205.447 80.0805 205.804C79.8985 206.166 79.8529 206.395 79.8157 206.388C79.7964 206.386 79.7851 206.144 79.9304 205.738C80.0783 205.339 80.4177 204.776 81.0646 204.333C81.6876 203.892 82.6916 203.581 83.7053 203.911C84.1988 204.058 84.668 204.29 85.1567 204.464C85.6413 204.64 86.1639 204.744 86.6234 204.548C87.0838 204.361 87.3961 203.921 87.655 203.469C87.9187 203.018 88.1452 202.536 88.4842 202.131C89.1557 201.322 90.0642 200.936 90.8175 200.809C91.582 200.681 92.2155 200.787 92.6167 200.927C93.0204 201.068 93.2097 201.215 93.1992 201.233Z" fill="#FAFAF9"/>
<path d="M83.7514 214.508C83.6923 214.563 83.3469 213.861 82.2992 213.466C81.7919 213.276 81.1091 213.184 80.4369 213.408C80.1048 213.514 79.7727 213.722 79.3953 213.916C79.0271 214.106 78.5588 214.311 78.0374 214.212C77.5147 214.114 77.1516 213.725 76.9069 213.386C76.6532 213.038 76.4594 212.693 76.2345 212.412C75.8072 211.847 75.1555 211.627 74.6189 211.607C73.4986 211.573 72.9809 212.208 72.9433 212.135C72.9266 212.121 73.0176 211.955 73.2834 211.75C73.5473 211.549 74.0087 211.324 74.6214 211.309C75.2165 211.285 76.011 211.513 76.535 212.166C76.7941 212.474 76.9992 212.823 77.2381 213.14C77.4736 213.456 77.7567 213.733 78.1173 213.798C78.8616 213.929 79.5445 213.26 80.3207 213.038C81.1107 212.801 81.868 212.945 82.4116 213.191C83.5354 213.708 83.7943 214.516 83.7514 214.508Z" fill="#FAFAF9"/>
<path d="M62.9146 225.688C62.8555 225.743 62.5098 225.043 61.4621 224.647C60.955 224.458 60.2726 224.365 59.6004 224.59C59.2686 224.696 58.9359 224.904 58.5585 225.098C58.1907 225.286 57.722 225.493 57.2005 225.393C56.6778 225.295 56.3147 224.907 56.0705 224.567C55.8163 224.22 55.6226 223.874 55.3976 223.594C54.9707 223.027 54.3187 222.807 53.7827 222.788C52.6621 222.754 52.1441 223.389 52.1068 223.316C52.09 223.303 52.1807 223.137 52.4466 222.931C52.7104 222.731 53.1718 222.505 53.785 222.49C54.38 222.467 55.1748 222.694 55.6981 223.347C55.9573 223.654 56.1624 224.005 56.4013 224.321C56.6368 224.637 56.9199 224.914 57.2808 224.98C58.0251 225.11 58.7076 224.441 59.4838 224.219C60.2739 223.982 61.0317 224.126 61.5744 224.371C62.6984 224.89 62.9573 225.698 62.9146 225.688Z" fill="#FAFAF9"/>
<path d="M82.393 225.941C82.355 226.012 81.8008 225.461 80.6816 225.426C80.1402 225.409 79.4649 225.543 78.9017 225.974C78.6217 226.181 78.3746 226.485 78.0803 226.791C77.7928 227.089 77.4164 227.435 76.8905 227.51C76.3643 227.587 75.8953 227.336 75.5541 227.095C75.2013 226.849 74.9062 226.583 74.6025 226.391C74.015 225.993 73.3276 225.997 72.8135 226.151C71.7424 226.482 71.458 227.251 71.3992 227.193C71.3787 227.187 71.4109 227 71.5958 226.718C71.7807 226.444 72.1441 226.082 72.7193 225.869C73.2749 225.655 74.1003 225.612 74.8069 226.061C75.152 226.268 75.4589 226.532 75.7875 226.754C76.1128 226.978 76.4702 227.148 76.8326 227.093C77.5791 226.976 78.0086 226.121 78.6713 225.661C79.3422 225.181 80.1057 225.072 80.6989 225.129C81.9302 225.255 82.4367 225.936 82.393 225.941Z" fill="#FAFAF9"/>
<path d="M75.959 234.826C75.9207 234.898 75.367 234.346 74.2473 234.311C73.7063 234.295 73.0309 234.428 72.4674 234.858C72.1877 235.067 71.9403 235.371 71.6461 235.677C71.3585 235.974 70.9821 236.321 70.4563 236.395C69.9304 236.472 69.4611 236.222 69.1201 235.98C68.7674 235.733 68.472 235.469 68.1686 235.276C67.5814 234.878 66.8934 234.881 66.3795 235.037C65.3085 235.368 65.0238 236.135 64.965 236.079C64.9444 236.072 64.977 235.885 65.1616 235.604C65.3471 235.329 65.7105 234.967 66.285 234.754C66.841 234.539 67.6661 234.497 68.3733 234.946C68.7178 235.152 69.025 235.417 69.3533 235.64C69.6785 235.863 70.0363 236.033 70.3991 235.979C71.1449 235.86 71.574 235.007 72.2374 234.546C72.908 234.065 73.6715 233.958 74.2647 234.013C75.4956 234.14 76.0022 234.821 75.959 234.826Z" fill="#FAFAF9"/>
<path d="M62.3713 256.881C62.3132 256.937 61.9573 256.241 60.9044 255.86C60.3943 255.677 59.7114 255.595 59.0423 255.829C58.7114 255.94 58.3821 256.152 58.0076 256.351C57.642 256.546 57.1764 256.758 56.6538 256.666C56.1295 256.576 55.7613 256.192 55.512 255.857C55.2528 255.512 55.0544 255.17 54.8256 254.893C54.3904 254.332 53.7356 254.123 53.1993 254.11C52.078 254.092 51.5692 254.734 51.531 254.662C51.5139 254.649 51.6024 254.482 51.8657 254.272C52.1267 254.068 52.5846 253.836 53.1974 253.812C53.7919 253.78 54.5898 253.996 55.1223 254.642C55.3862 254.945 55.5957 255.293 55.839 255.606C56.0796 255.919 56.3662 256.191 56.7281 256.251C57.4738 256.372 58.147 255.693 58.9203 255.46C59.7066 255.212 60.4666 255.345 61.013 255.583C62.1441 256.084 62.4143 256.889 62.3713 256.881Z" fill="#FAFAF9"/>
<path d="M78.2703 261.572C78.2311 261.642 77.6853 261.083 76.5662 261.033C76.0249 261.009 75.3483 261.134 74.7789 261.556C74.4963 261.76 74.2444 262.061 73.9461 262.363C73.6547 262.656 73.2733 262.997 72.7465 263.065C72.2197 263.133 71.7538 262.878 71.4166 262.631C71.0671 262.38 70.7754 262.111 70.4743 261.913C69.8924 261.508 69.2051 261.503 68.6887 261.65C67.6135 261.966 67.3184 262.73 67.2599 262.672C67.2397 262.664 67.2751 262.479 67.4635 262.201C67.6525 261.928 68.0209 261.571 68.5989 261.366C69.157 261.159 69.9828 261.129 70.6838 261.587C71.0254 261.798 71.3288 262.067 71.6543 262.294C71.9763 262.521 72.3316 262.697 72.695 262.647C73.4427 262.54 73.8838 261.692 74.5532 261.24C75.2301 260.769 75.9956 260.671 76.5874 260.736C77.8168 260.879 78.3139 261.567 78.2703 261.572Z" fill="#FAFAF9"/>
<path d="M25.8775 194.665C26.369 195.245 44.1562 219.029 44.1562 219.029L41.6523 220.448L23.3989 196.965L25.8775 194.665Z" fill="#17282F"/>
<path d="M95.3051 211.636C95.3051 211.636 78.6217 240.406 77.4941 240.936C75.2734 241.978 49.673 219.855 47.2321 217.739C46.8961 217.29 46.2011 216.341 44.8375 214.454C44.8375 214.454 42.8181 205.212 40.6624 205.921C38.5072 206.632 41.8435 210.619 40.44 214.13C39.0359 217.642 32.6076 209.266 32.35 208.514L30.6921 206.348C30.6921 206.348 28.9537 211.276 29.0713 213.335C29.4486 219.929 35.6872 227.771 35.6872 227.771C35.6872 227.771 61.0373 259.537 80.228 260.613C85.7561 260.924 96.3131 245.011 102.881 233.251C106.846 226.149 105.005 218.935 98.4328 214.143L95.3051 211.636Z" fill="#F8A58D"/>
<path d="M32.2208 214.508C32.1648 214.544 31.4632 213.535 30.7949 212.179C30.1223 210.825 29.7466 209.657 29.8092 209.633C29.8771 209.607 30.3556 210.726 31.0214 212.067C31.6839 213.41 32.2824 214.469 32.2208 214.508Z" fill="#F68260"/>
<path d="M94.5212 203.631C93.8618 204.028 78.3474 232.828 78.3474 232.828L98.3171 248.471C98.3171 248.471 103.512 235.674 106.252 225.269C106.996 222.446 106.613 214.9 105.563 211.989C104.071 207.853 101.822 208.883 98.4522 206.46L94.5212 203.631Z" fill="#F03D5F"/>
<path d="M97.2872 247.667C97.2678 247.667 97.1359 247.578 96.9005 247.407C96.7282 247.279 96.5235 247.127 96.2856 246.95C96.2873 246.928 96.2889 246.906 96.2913 246.883L97.2897 247.666C97.2888 247.667 97.2888 247.667 97.2872 247.667Z" fill="#353638"/>
<path d="M96.2857 246.95C96.1425 246.844 95.9871 246.728 95.8189 246.604C95.5875 246.426 95.3342 246.233 95.06 246.023C95.0754 246.001 95.0907 245.977 95.1061 245.956L96.2913 246.883C96.2889 246.906 96.2873 246.928 96.2857 246.95ZM81.2458 235.338C80.2663 234.577 79.2563 233.793 78.2213 232.989L78.082 232.881L78.1702 232.727C79.3783 230.619 80.6636 228.377 81.9869 226.068C82.0346 225.985 82.0824 225.901 82.1301 225.819C82.1325 225.82 82.1341 225.821 82.1366 225.822C79.9449 229.862 78.3474 232.828 78.3474 232.828L81.3453 235.177C81.3122 235.23 81.279 235.285 81.2458 235.338ZM82.1964 225.711C82.1956 225.71 82.1948 225.71 82.1932 225.709C82.2167 225.669 82.2393 225.63 82.262 225.59C82.2401 225.631 82.2183 225.67 82.1964 225.711Z" fill="#440D17"/>
<path d="M82.1365 225.822C82.1341 225.821 82.1325 225.82 82.1301 225.819C82.1511 225.782 82.1721 225.745 82.1932 225.709C82.1948 225.71 82.1956 225.71 82.1964 225.711C82.1762 225.748 82.156 225.785 82.1365 225.822Z" fill="#3C3E40"/>
<path d="M95.06 246.023C94.1871 245.356 93.0997 244.526 91.8247 243.551C89.0562 241.401 85.4212 238.579 81.2458 235.338C81.279 235.285 81.3122 235.23 81.3454 235.177L95.1061 245.955C95.0908 245.977 95.0754 246.001 95.06 246.023Z" fill="#432923"/>
<path d="M101.081 203.632C101.073 203.622 101.065 203.612 101.056 203.602C101.076 203.619 101.084 203.629 101.082 203.631C101.081 203.631 101.081 203.632 101.081 203.632Z" fill="#0B1214"/>
<path d="M95.6619 204.452L95.4556 204.303C95.6392 204.146 95.8237 203.999 96.0098 203.863C96.9418 203.182 97.9223 202.803 98.75 202.801C98.7847 202.8 98.8187 202.799 98.8527 202.799C99.6286 202.799 100.205 203.052 100.551 203.258C100.743 203.353 100.864 203.466 100.955 203.525C101.001 203.559 101.035 203.585 101.056 203.603C101.065 203.612 101.073 203.622 101.081 203.632C101.08 203.633 101.079 203.633 101.077 203.633C101.045 203.633 100.862 203.509 100.512 203.333C100.178 203.162 99.652 202.958 98.9692 202.958C98.8996 202.958 98.8284 202.96 98.7564 202.964C97.9693 202.99 97.0429 203.373 96.1505 204.053C95.9871 204.176 95.8237 204.31 95.6619 204.452Z" fill="#440D17"/>
<path d="M97.2897 247.666L96.2913 246.883L95.1061 245.955L81.3453 235.177L78.3474 232.828C78.3474 232.828 79.9449 229.862 82.1366 225.822C82.156 225.785 82.1762 225.748 82.1964 225.711C82.2183 225.67 82.2401 225.631 82.262 225.59C84.3476 221.969 86.3338 218.521 88.1509 215.365C89.1015 213.725 90.0052 212.164 90.8522 210.701C91.7114 209.256 92.4355 207.839 93.3092 206.678C93.9953 205.745 94.7145 204.939 95.4556 204.303L95.6619 204.452C94.9362 205.09 94.2275 205.905 93.5511 206.853C92.7073 208.003 92.0108 209.405 91.1589 210.869C90.3223 212.338 89.43 213.905 88.4915 215.553C86.6024 218.852 84.5305 222.473 82.3542 226.275C81.0581 228.527 79.7992 230.714 78.6129 232.777C83.9634 237.006 88.6201 240.685 91.9849 243.345C93.6304 244.666 94.9556 245.73 95.9054 246.493C96.3358 246.847 96.6805 247.132 96.945 247.349C97.1788 247.548 97.297 247.656 97.2897 247.666Z" fill="#440D17"/>
<path d="M95.1182 230.637C95.0592 230.693 94.7137 229.992 93.6652 229.596C93.1588 229.407 92.4759 229.314 91.8044 229.539C91.4719 229.645 91.1394 229.852 90.7624 230.047C90.3943 230.235 89.9251 230.441 89.4041 230.342C88.8814 230.244 88.5182 229.855 88.2738 229.516C88.0198 229.169 87.8265 228.823 87.6007 228.542C87.1744 227.976 86.5223 227.757 85.9859 227.737C84.8654 227.703 84.3476 228.338 84.3104 228.266C84.2934 228.251 84.384 228.086 84.6502 227.88C84.9148 227.679 85.3751 227.455 85.9883 227.439C86.5838 227.416 87.3783 227.643 87.9017 228.297C88.1606 228.604 88.3661 228.954 88.6047 229.27C88.8402 229.586 89.1233 229.863 89.485 229.929C90.2285 230.059 90.9113 229.39 91.688 229.168C92.4776 228.931 93.2348 229.076 93.7785 229.32C94.9022 229.839 95.1611 230.647 95.1182 230.637Z" fill="#FAFAF9"/>
<path d="M104.246 226.913C104.174 226.95 104.03 226.181 103.128 225.518C102.691 225.198 102.059 224.926 101.351 224.96C101.002 224.973 100.626 225.083 100.21 225.168C99.8049 225.251 99.2985 225.323 98.8228 225.087C98.3463 224.851 98.1011 224.38 97.9579 223.986C97.8066 223.583 97.7136 223.198 97.5728 222.867C97.3139 222.207 96.746 221.82 96.2347 221.656C95.1644 221.322 94.4945 221.794 94.4783 221.713C94.4662 221.695 94.598 221.56 94.9095 221.433C95.2178 221.312 95.7226 221.22 96.3172 221.37C96.8965 221.508 97.6003 221.941 97.928 222.711C98.0947 223.077 98.1982 223.469 98.343 223.838C98.4846 224.207 98.682 224.55 99.0121 224.71C99.6933 225.037 100.531 224.576 101.339 224.572C102.163 224.558 102.853 224.9 103.31 225.282C104.253 226.084 104.285 226.933 104.246 226.913Z" fill="#FAFAF9"/>
<path d="M104.715 215.007C104.643 215.044 104.499 214.276 103.597 213.612C103.16 213.293 102.528 213.02 101.82 213.055C101.472 213.067 101.095 213.178 100.679 213.263C100.274 213.345 99.7669 213.417 99.292 213.181C98.8155 212.945 98.5704 212.474 98.4263 212.081C98.2759 211.679 98.182 211.293 98.0412 210.963C97.7824 210.302 97.2144 209.914 96.7031 209.751C95.6336 209.416 94.9637 209.888 94.9467 209.807C94.9346 209.79 95.0665 209.655 95.3787 209.527C95.687 209.406 96.1918 209.315 96.7856 209.464C97.3649 209.603 98.0688 210.035 98.3972 210.806C98.5639 211.172 98.6666 211.564 98.8114 211.933C98.953 212.301 99.1512 212.645 99.4805 212.805C100.162 213.132 101 212.67 101.807 212.666C102.632 212.652 103.323 212.996 103.78 213.377C104.722 214.178 104.754 215.027 104.715 215.007Z" fill="#FAFAF9"/>
<path d="M100.296 242.376C100.224 242.414 100.081 241.646 99.178 240.982C98.7411 240.662 98.1092 240.389 97.4013 240.424C97.0526 240.437 96.6764 240.547 96.2606 240.633C95.8561 240.715 95.3488 240.787 94.8731 240.55C94.3966 240.316 94.1523 239.843 94.0083 239.452C93.857 239.048 93.7639 238.662 93.6232 238.332C93.3643 237.672 92.7963 237.284 92.285 237.12C91.2147 236.786 90.5448 237.258 90.5286 237.177C90.5157 237.16 90.6484 237.025 90.9598 236.898C91.2681 236.776 91.7729 236.684 92.3676 236.834C92.9468 236.972 93.6507 237.405 93.9783 238.177C94.145 238.542 94.2485 238.934 94.3934 239.303C94.5341 239.671 94.7323 240.014 95.0624 240.174C95.7436 240.501 96.581 240.04 97.3892 240.036C98.2136 240.021 98.9045 240.365 99.3608 240.747C100.304 241.549 100.335 242.397 100.296 242.376Z" fill="#FAFAF9"/>
</svg>
