<svg width="71" height="45" viewBox="0 0 71 45" fill="none" xmlns="http://www.w3.org/2000/svg">
<path d="M25.3768 15.7333C25.3768 15.7333 25.3768 26.6394 25.3768 32.0925C25.3768 33.1528 27.1945 33.1528 27.1945 32.0925C27.1945 26.6394 27.1945 21.1864 27.1945 15.7333C27.1945 14.5215 25.3768 14.5215 25.3768 15.7333C25.3768 14.5215 25.3768 15.7333 25.3768 15.7333Z" fill="#21409A"/>
<path d="M30.4379 15.6995C30.1107 21.14 29.7838 26.5808 29.4568 32.0213C29.3874 33.1737 31.1763 33.1669 31.2453 32.0213C31.5721 26.5808 31.899 21.14 32.2263 15.6995C32.2956 14.5471 30.5068 14.5538 30.4379 15.6995Z" fill="#21409A"/>
<path d="M35.6087 15.7542C34.9005 21.1587 34.1919 26.5626 33.4833 31.9671C33.3339 33.108 35.1239 33.0936 35.2717 31.9671C35.9803 26.5626 36.6889 21.1587 37.3972 15.7542C37.5465 14.6132 35.7563 14.6277 35.6087 15.7542Z" fill="#21409A"/>
<path d="M20.065 15.6995C20.3918 21.14 20.719 26.5808 21.0461 32.0213C21.1148 33.1669 22.9037 33.1737 22.8345 32.0213C22.5076 26.5808 22.1804 21.14 21.8534 15.6995C21.7843 14.5538 19.9954 14.5471 20.065 15.6995Z" fill="#21409A"/>
<path d="M14.8941 15.7542C15.6024 21.1587 16.311 26.5626 17.0194 31.9671C17.1671 33.0936 18.9572 33.108 18.8079 31.9671C18.0993 26.5626 17.3909 21.1587 16.6826 15.7542C16.5347 14.6277 14.7446 14.6132 14.8941 15.7542Z" fill="#21409A"/>
<path d="M37.6462 31.4866C29.6181 31.4866 21.5588 31.4866 13.4688 31.4866C13.7559 31.7896 14.0436 31.9435 14.3308 32.1622C13.3089 26.3715 12.2871 20.562 11.2651 14.7711C10.9778 15.1485 10.6903 15.5819 10.4029 15.8848C21.2184 15.8848 32.0338 15.8848 42.8493 15.8848C42.562 15.5819 42.2745 15.1581 41.9871 14.7806C40.2841 20.5716 38.5807 26.3767 36.8775 32.1673C36.5512 33.2764 38.2771 33.7537 38.602 32.6499C40.3052 26.8589 42.0087 21.1046 43.7118 15.3139C43.8763 14.7541 43.4234 14.2188 42.8495 14.2188C32.034 14.2188 21.2186 14.2188 10.4031 14.2188C9.78067 14.2188 9.44121 14.753 9.54088 15.3174C10.5629 21.1081 11.5847 26.8782 12.6066 32.6692C12.6749 33.0559 13.0998 33.3045 13.4689 33.3045C21.5588 33.3043 29.6181 33.3043 37.6462 33.3043C38.858 33.3043 38.858 31.4866 37.6462 31.4866Z" fill="#21409A"/>
<path d="M10.786 35.8793C10.786 35.8793 12.5343 33.3043 14.2252 33.3043C16.0555 33.3043 17.886 33.3043 19.7166 33.3043C22.8759 33.3043 26.1342 33.3043 29.1637 33.3043C30.527 33.3043 30.527 31.4866 29.1637 31.4866C25.5283 31.4866 21.8981 31.4866 18.2497 31.4866C16.6523 31.4866 15.0544 31.4866 13.4571 31.4866C10.9844 31.4866 8.99756 33.3043 8.99756 35.8793C8.99756 37.0911 10.786 37.0911 10.786 35.8793C10.786 35.8793 10.786 37.0911 10.786 35.8793Z" fill="#21409A"/>
<path d="M10.078 36.9397C10.078 36.9397 29.4666 36.9397 39.161 36.9397C40.3727 36.9397 40.3727 35.122 39.161 35.122C29.4666 35.122 19.7723 35.122 10.078 35.122C8.71476 35.122 8.71476 36.9397 10.078 36.9397C8.71476 36.9397 10.078 36.9397 10.078 36.9397Z" fill="#21409A"/>
<path d="M16.9601 40.6373C16.8449 42.7787 13.7544 42.7787 13.6388 40.6373C13.5234 38.4942 16.8454 38.5061 16.9601 40.6373C17.022 41.7842 18.8109 41.7902 18.7485 40.6373C18.6438 38.6877 17.2492 37.2932 15.2994 37.1882C13.3544 37.0834 11.9469 38.8454 11.8504 40.6373C11.7457 42.5825 13.5077 43.9897 15.2994 44.0863C17.2448 44.1912 18.6523 42.4292 18.7485 40.6373C18.8108 39.4843 17.022 39.4903 16.9601 40.6373Z" fill="#21409A"/>
<path d="M16.137 40.7265C16.137 40.7265 16.137 38 16.137 36.6367C16.137 35.4249 14.3193 35.4249 14.3193 36.6367C14.3193 38 14.3193 39.3632 14.3193 40.7265C14.3193 41.9383 16.137 41.9383 16.137 40.7265C16.137 41.9383 16.137 40.7265 16.137 40.7265Z" fill="#21409A"/>
<path d="M38.6762 40.6373C38.561 42.7787 35.4706 42.7787 35.3549 40.6373C35.2396 38.4942 38.5616 38.5061 38.6762 40.6373C38.7382 41.7842 40.5271 41.7902 40.4647 40.6373C40.3599 38.6877 38.9652 37.2932 37.0156 37.1882C35.0706 37.0834 33.6631 38.8454 33.5664 40.6373C33.4618 42.5825 35.2238 43.9897 37.0156 44.0863C38.961 44.1912 40.3683 42.4292 40.4647 40.6373C40.5271 39.4843 38.7382 39.4903 38.6762 40.6373Z" fill="#21409A"/>
<path d="M37.7977 40.7265C37.7977 40.7265 37.7977 38 37.7977 36.6367C37.7977 35.4249 36.1315 35.4249 36.1315 36.6367C36.1315 38 36.1315 39.3632 36.1315 40.7265C36.1315 41.9383 37.7977 41.9383 37.7977 40.7265C37.7977 41.9383 37.7977 40.7265 37.7977 40.7265Z" fill="#21409A"/>
<path d="M10.8542 14.2739C9.023 13.4935 7.19229 12.7128 5.36128 11.9321C4.31278 11.4853 3.40044 13.0255 4.45864 13.4765C6.28965 14.2569 8.12036 15.0376 9.95153 15.8183C10.9999 16.2652 11.9122 14.725 10.8542 14.2739Z" fill="#21409A"/>
<path d="M10.9868 14.2186H43.2859C44.1031 14.2186 44.7655 14.8143 44.7655 15.6315V15.7383C44.7655 16.5555 44.1031 16.6423 43.2859 16.6423H11.5927" fill="#21409A"/>
<path d="M8.3709 14.0988C8.09673 14.7173 7.24697 14.941 6.47309 14.5979L0.991416 12.3306C0.217234 11.9878 -0.188418 11.2088 0.0855976 10.5902C0.359765 9.97173 1.20893 9.74801 1.98311 10.0908L7.46524 12.3584C8.23912 12.7011 8.64492 13.4805 8.3709 14.0988Z" fill="#21409A"/>
<path d="M11.7442 22.5496C11.7442 22.5496 30.9814 22.5496 40.6757 22.5496C41.8875 22.5496 41.8875 20.732 40.6757 20.732C30.9814 20.732 21.4385 20.732 11.7442 20.732C10.6839 20.732 10.6839 22.5496 11.7442 22.5496C10.6839 22.5496 11.7442 22.5496 11.7442 22.5496Z" fill="#21409A"/>
<path d="M12.5016 28.0027C12.5016 28.0027 30.0725 28.0027 38.858 28.0027C40.0698 28.0027 40.0698 26.185 38.858 26.185C30.0725 26.185 21.2871 26.185 12.5016 26.185C11.4413 26.185 11.4413 28.0027 12.5016 28.0027C11.4413 28.0027 12.5016 28.0027 12.5016 28.0027Z" fill="#21409A"/>
<path d="M25.3768 15.7333C25.3768 15.7333 25.3768 26.6394 25.3768 32.0925C25.3768 33.1528 27.1945 33.1528 27.1945 32.0925C27.1945 26.6394 27.1945 21.1864 27.1945 15.7333C27.1945 14.5215 25.3768 14.5215 25.3768 15.7333C25.3768 15.7333 25.3768 14.5215 25.3768 15.7333Z" fill="#21409A"/>
<path d="M30.4379 15.6995C30.1107 21.14 29.7838 26.5808 29.4568 32.0213C29.3874 33.1737 31.1763 33.1669 31.2453 32.0213C31.5721 26.5808 31.899 21.14 32.2263 15.6995C32.2956 14.5471 30.5068 14.5538 30.4379 15.6995Z" fill="#21409A"/>
<path d="M35.6087 15.7542C34.9005 21.1587 34.1919 26.5626 33.4833 31.9671C33.3339 33.108 35.1239 33.0936 35.2717 31.9671C35.9803 26.5626 36.6889 21.1587 37.3972 15.7542C37.5465 14.6132 35.7563 14.6277 35.6087 15.7542Z" fill="#21409A"/>
<path d="M20.065 15.6995C20.3918 21.14 20.719 26.5808 21.0461 32.0213C21.1148 33.1669 22.9037 33.1737 22.8345 32.0213C22.5076 26.5808 22.1804 21.14 21.8534 15.6995C21.7843 14.5538 19.9954 14.5471 20.065 15.6995Z" fill="#21409A"/>
<path d="M14.8941 15.7542C15.6024 21.1587 16.311 26.5626 17.0194 31.9671C17.1671 33.0936 18.9572 33.108 18.8079 31.9671C18.0993 26.5626 17.3909 21.1587 16.6826 15.7542C16.5347 14.6277 14.7446 14.6132 14.8941 15.7542Z" fill="#21409A"/>
<path d="M37.6462 31.4866C29.6181 31.4866 21.5588 31.4866 13.4688 31.4866C13.7559 31.7896 14.0436 31.9435 14.3308 32.1622C13.3089 26.3715 12.2871 20.562 11.2651 14.7711C10.9778 15.1485 10.6903 15.5819 10.4029 15.8848C21.2184 15.8848 32.0338 15.8848 42.8493 15.8848C42.562 15.5819 42.2745 15.1581 41.9871 14.7806C40.2841 20.5716 38.5807 26.3767 36.8775 32.1673C36.5512 33.2764 38.2771 33.7537 38.602 32.6499C40.3052 26.8589 42.0087 21.1046 43.7118 15.3139C43.8763 14.7541 43.4234 14.2188 42.8495 14.2188C32.034 14.2188 21.2186 14.2188 10.4031 14.2188C9.78067 14.2188 9.44121 14.753 9.54088 15.3174C10.5629 21.1081 11.5847 26.8782 12.6066 32.6692C12.6749 33.0559 13.0998 33.3045 13.4689 33.3045C21.5588 33.3043 29.6181 33.3043 37.6462 33.3043C38.858 33.3043 38.858 31.4866 37.6462 31.4866Z" fill="#21409A"/>
<path d="M10.786 35.8793C10.786 35.8793 12.5343 33.3043 14.2252 33.3043C16.0555 33.3043 17.886 33.3043 19.7166 33.3043C22.8759 33.3043 26.1342 33.3043 29.1637 33.3043C30.527 33.3043 30.527 31.4866 29.1637 31.4866C25.5283 31.4866 21.8981 31.4866 18.2497 31.4866C16.6523 31.4866 15.0544 31.4866 13.4571 31.4866C10.9844 31.4866 8.99756 33.3043 8.99756 35.8793C8.99756 37.0911 10.786 37.0911 10.786 35.8793C10.786 37.0911 10.786 35.8793 10.786 35.8793Z" fill="#21409A"/>
<path d="M10.078 36.9397C10.078 36.9397 29.4666 36.9397 39.161 36.9397C40.3727 36.9397 40.3727 35.122 39.161 35.122C29.4666 35.122 19.7723 35.122 10.078 35.122C8.71476 35.122 8.71476 36.9397 10.078 36.9397C10.078 36.9397 8.71476 36.9397 10.078 36.9397Z" fill="#21409A"/>
<path d="M16.9601 40.6373C16.8449 42.7787 13.7544 42.7787 13.6388 40.6373C13.5234 38.4942 16.8454 38.5061 16.9601 40.6373C17.022 41.7842 18.8109 41.7902 18.7485 40.6373C18.6438 38.6877 17.2492 37.2932 15.2994 37.1882C13.3544 37.0834 11.9469 38.8454 11.8504 40.6373C11.7457 42.5825 13.5077 43.9897 15.2994 44.0863C17.2448 44.1912 18.6523 42.4292 18.7485 40.6373C18.8108 39.4843 17.022 39.4903 16.9601 40.6373Z" fill="#21409A"/>
<path d="M16.137 40.7265C16.137 40.7265 16.137 38 16.137 36.6367C16.137 35.4249 14.3193 35.4249 14.3193 36.6367C14.3193 38 14.3193 39.3632 14.3193 40.7265C14.3193 41.9383 16.137 41.9383 16.137 40.7265C16.137 40.7265 16.137 41.9383 16.137 40.7265Z" fill="#21409A"/>
<path d="M38.6762 40.6373C38.561 42.7787 35.4706 42.7787 35.3549 40.6373C35.2396 38.4942 38.5616 38.5061 38.6762 40.6373C38.7382 41.7842 40.5271 41.7902 40.4647 40.6373C40.3599 38.6877 38.9652 37.2932 37.0156 37.1882C35.0706 37.0834 33.6631 38.8454 33.5664 40.6373C33.4618 42.5825 35.2238 43.9897 37.0156 44.0863C38.961 44.1912 40.3683 42.4292 40.4647 40.6373C40.5271 39.4843 38.7382 39.4903 38.6762 40.6373Z" fill="#21409A"/>
<path d="M37.7977 40.7265C37.7977 40.7265 37.7977 38 37.7977 36.6367C37.7977 35.4249 36.1315 35.4249 36.1315 36.6367C36.1315 38 36.1315 39.3632 36.1315 40.7265C36.1315 41.9383 37.7977 41.9383 37.7977 40.7265C37.7977 40.7265 37.7977 41.9383 37.7977 40.7265Z" fill="#21409A"/>
<path d="M10.8542 14.2739C9.023 13.4935 7.19229 12.7128 5.36128 11.9321C4.31278 11.4853 3.40044 13.0255 4.45864 13.4765C6.28965 14.2569 8.12036 15.0376 9.95153 15.8183C10.9999 16.2652 11.9122 14.725 10.8542 14.2739Z" fill="#21409A"/>
<path d="M10.9868 14.2186H43.2859C44.1031 14.2186 44.7655 14.8143 44.7655 15.6315V15.7383C44.7655 16.5555 44.1031 16.6423 43.2859 16.6423H11.5927" fill="#21409A"/>
<path d="M8.3709 14.0988C8.09673 14.7173 7.24697 14.941 6.47309 14.5979L0.991416 12.3306C0.217234 11.9878 -0.188418 11.2088 0.0855976 10.5902C0.359765 9.97173 1.20893 9.74801 1.98311 10.0908L7.46524 12.3584C8.23912 12.7011 8.64492 13.4805 8.3709 14.0988Z" fill="#21409A"/>
<path d="M11.7442 22.5496C11.7442 22.5496 30.9814 22.5496 40.6757 22.5496C41.8875 22.5496 41.8875 20.732 40.6757 20.732C30.9814 20.732 21.4385 20.732 11.7442 20.732C10.6839 20.732 10.6839 22.5496 11.7442 22.5496C11.7442 22.5496 10.6839 22.5496 11.7442 22.5496Z" fill="#21409A"/>
<path d="M12.5016 28.0027C12.5016 28.0027 30.0725 28.0027 38.858 28.0027C40.0698 28.0027 40.0698 26.185 38.858 26.185C30.0725 26.185 21.2871 26.185 12.5016 26.185C11.4413 26.185 11.4413 28.0027 12.5016 28.0027C12.5016 28.0027 11.4413 28.0027 12.5016 28.0027Z" fill="#21409A"/>
<path fill-rule="evenodd" clip-rule="evenodd" d="M59.0486 1.99997C54.0786 1.99997 50.0486 6.02897 50.0486 11C50.0486 15.971 54.0786 20 59.0486 20C64.0186 20 68.0486 15.971 68.0486 11C68.0486 6.02897 64.0186 1.99997 59.0486 1.99997ZM48.0486 11C48.0486 4.92497 52.9686 -3.05176e-05 59.0486 -3.05176e-05C65.1286 -3.05176e-05 70.0486 4.92497 70.0486 11C70.0486 17.075 65.1286 22 59.0486 22C52.9686 22 48.0486 17.075 48.0486 11Z" fill="#21409A"/>
<path fill-rule="evenodd" clip-rule="evenodd" d="M54.0486 11C54.0486 10.448 54.4986 9.99997 55.0486 9.99997H63.0486C63.5986 9.99997 64.0486 10.448 64.0486 11C64.0486 11.552 63.5986 12 63.0486 12H55.0486C54.4986 12 54.0486 11.552 54.0486 11Z" fill="#21409A"/>
<path fill-rule="evenodd" clip-rule="evenodd" d="M59.0486 5.99997C59.5986 5.99997 60.0486 6.44797 60.0486 6.99997V15C60.0486 15.552 59.5986 16 59.0486 16C58.4986 16 58.0486 15.552 58.0486 15V6.99997C58.0486 6.44797 58.4986 5.99997 59.0486 5.99997Z" fill="#21409A"/>
</svg>
