<svg width="267" height="408" viewBox="0 0 287 428" fill="none" xmlns="http://www.w3.org/2000/svg">
<path d="M80.7865 400.972L78.6599 409.911C78.6599 409.911 64.0474 428.896 59.5408 427.967C56.5871 427.359 60.2167 422.406 65.7742 407.986L66.9416 402.03L80.7865 400.972Z" fill="#F03D5F"/>
<path d="M58.9469 425.164C58.9469 425.164 58.9612 425.266 59.0635 425.432C59.1635 425.593 59.3503 425.826 59.6776 426.002C59.9965 426.185 60.4487 426.313 60.9759 426.286C61.5067 426.26 62.0791 426.035 62.6265 425.68C64.6948 424.105 67.2593 421.646 69.9881 418.812C72.7014 415.964 74.9565 413.205 76.5202 411.159C77.2985 410.134 77.9102 409.289 78.3207 408.698C78.4873 408.453 78.6397 408.229 78.7872 408.012C78.8908 407.854 78.9419 407.768 78.9348 407.762C78.9265 407.757 78.861 407.834 78.742 407.981C78.5837 408.187 78.4159 408.402 78.2362 408.636C77.6972 409.33 77.0783 410.128 76.3691 411.042C74.7709 413.054 72.4979 415.786 69.7917 418.627C67.0808 421.446 64.5139 423.941 62.5218 425.52C61.4829 426.28 60.3416 426.255 59.7264 425.909C59.0897 425.581 58.9755 425.135 58.9469 425.164Z" fill="#17282F"/>
<path d="M61.0152 419.06C61.0223 419.106 61.4769 419.014 62.1981 419.116C62.9157 419.208 63.8868 419.527 64.8305 420.111C65.7873 420.685 66.4679 421.444 66.8047 422.086C67.1487 422.726 67.2427 423.181 67.2891 423.168C67.3141 423.167 67.2891 422.691 66.9749 422.001C66.6702 421.308 65.9622 420.472 64.9733 419.882C63.9962 419.275 62.9704 418.974 62.2171 418.925C61.4591 418.869 61.0057 419.036 61.0152 419.06Z" fill="#17282F"/>
<path d="M74.8482 414.605C74.8958 414.592 74.6911 413.965 74.5721 412.928C74.4424 411.899 74.5709 410.423 75.3051 409.008C76.0192 407.592 77.1783 406.64 78.1017 406.187C79.0323 405.718 79.6988 405.668 79.6881 405.614C79.6869 405.598 79.5215 405.6 79.2263 405.643C78.9324 405.688 78.5099 405.795 78.0196 406.013C77.0438 406.438 75.8097 407.407 75.0648 408.886C74.3019 410.349 74.1996 411.907 74.3829 412.953C74.465 413.481 74.5804 413.895 74.6721 414.178C74.7661 414.46 74.8315 414.61 74.8482 414.605Z" fill="#17282F"/>
<path d="M79.8559 402.488C79.7821 402.46 79.3287 403.702 79.055 405.29C78.7884 406.875 78.4969 408.128 78.5564 408.151C78.6385 408.181 79.055 406.925 79.3204 405.34C79.5929 403.761 79.9225 402.513 79.8559 402.488Z" fill="#17282F"/>
<path d="M65.516 409.246C65.5219 409.327 66.3502 409.297 67.3296 409.527C68.3102 409.749 69.0432 410.139 69.0825 410.069C69.123 410.015 68.4208 409.499 67.3891 409.265C66.3609 409.024 65.5029 409.178 65.516 409.246Z" fill="#17282F"/>
<path d="M65.216 410.776C65.2268 410.856 65.9206 410.78 66.7334 410.979C67.5497 411.167 68.134 411.548 68.1792 411.481C68.228 411.432 67.6758 410.921 66.7952 410.717C65.9182 410.504 65.1946 410.711 65.216 410.776Z" fill="#17282F"/>
<path d="M64.0498 412.699C64.0724 412.775 64.7769 412.545 65.6254 412.748C66.4787 412.931 67.0142 413.444 67.0689 413.385C67.1332 413.351 66.6298 412.693 65.6849 412.483C64.7436 412.263 64.007 412.641 64.0498 412.699Z" fill="#17282F"/>
<path d="M66.5215 408.605C66.5251 408.62 66.7 408.607 67.0106 408.546C67.32 408.485 67.7663 408.379 68.303 408.194C68.8385 408.01 69.4645 407.749 70.1214 407.384C70.451 407.201 70.7854 406.996 71.1246 406.761C71.4435 406.51 71.8434 406.194 71.8505 405.644C71.816 405.062 71.1651 404.831 70.7462 404.955C70.2963 405.068 69.9976 405.379 69.7323 405.633C69.1967 406.156 68.7469 406.659 68.3887 407.095C68.0293 407.533 67.7615 407.902 67.5842 408.164C67.4081 408.427 67.3236 408.58 67.3379 408.589C67.3712 408.614 67.7877 408.055 68.5339 407.22C68.9075 406.803 69.3669 406.32 69.9048 405.812C70.1702 405.562 70.457 405.294 70.8057 405.212C71.1401 405.126 71.5744 405.307 71.5804 405.658C71.5923 406.004 71.2662 406.326 70.9687 406.546C70.6462 406.776 70.3166 406.984 69.9988 407.168C69.3622 407.537 68.7564 407.811 68.2376 408.015C67.1963 408.42 66.512 408.559 66.5215 408.605Z" fill="#17282F"/>
<path d="M67.2891 408.42C67.3081 408.418 67.3117 408.259 67.3022 407.973C67.2915 407.686 67.2724 407.27 67.2082 406.758C67.1392 406.249 67.0273 405.633 66.7476 404.995C66.6024 404.677 66.4323 404.358 66.1728 404.061C65.942 403.793 65.491 403.443 65.0149 403.693C64.5687 403.971 64.5758 404.487 64.6139 404.85C64.6758 405.234 64.79 405.578 64.9328 405.898C65.2196 406.533 65.6171 407.024 65.9729 407.398C66.3359 407.769 66.6667 408.027 66.9023 408.193C67.1368 408.36 67.2796 408.433 67.2891 408.42C67.3188 408.382 66.7905 408.02 66.1133 407.268C65.7849 406.888 65.4184 406.403 65.1601 405.798C65.0316 405.498 64.9281 405.16 64.8769 404.817C64.8352 404.486 64.8793 404.075 65.1446 403.93C65.416 403.771 65.7539 403.986 65.9765 404.238C66.205 404.494 66.3811 404.805 66.5215 405.099C66.7988 405.698 66.9285 406.291 67.019 406.788C67.1844 407.79 67.2439 408.425 67.2891 408.42Z" fill="#17282F"/>
<path d="M78.66 409.911L79.6881 405.614C79.6881 405.614 76.1085 406.277 75.1791 408.958C74.2497 411.639 74.4805 413.547 74.4805 413.547L66.6977 421.931C66.6977 421.931 64.7448 418.115 61.2092 419.033C61.2092 419.033 58.4269 425.153 58.5126 426.689C58.6066 428.374 60.3821 428.036 61.0152 427.749C61.302 427.62 64.6651 425.694 67.9841 422.248C72.1076 417.967 76.6631 412.541 78.66 409.911Z" fill="#040606"/>
<path d="M153.425 405.489L153.493 393.569L131.175 393.3L130.891 410.737L132.274 410.842C138.427 411.259 163.595 412.528 167.727 411.329C172.336 409.99 153.425 405.489 153.425 405.489Z" fill="#F03D5F"/>
<path d="M138.984 410.66C138.689 408.789 137.673 407.045 136.195 405.864C134.715 404.684 132.885 404.05 130.998 404.177L130.917 410.418L138.984 410.66Z" fill="#040606"/>
<path d="M162.661 408.019C162.661 408.019 169.284 410.018 168.441 411.104C167.6 412.188 142.118 411.863 130.891 410.737L130.932 410.238L160.652 410.869C160.652 410.869 161.362 408.057 162.661 408.019Z" fill="#040606"/>
<path d="M130.581 410.22C130.581 410.228 130.713 410.245 130.965 410.267C131.295 410.29 131.658 410.318 132.066 410.347C133.168 410.408 134.522 410.483 136.121 410.573C139.545 410.74 144.28 410.908 149.51 410.979C154.743 411.049 159.481 411.01 162.909 410.934C164.508 410.888 165.864 410.849 166.967 410.817C167.376 410.799 167.739 410.781 168.07 410.766C168.322 410.753 168.454 410.74 168.454 410.73C168.453 410.721 168.321 410.715 168.069 410.712C167.737 410.712 167.374 410.712 166.964 410.712C165.861 410.721 164.506 410.731 162.906 410.743C159.479 410.768 154.744 410.777 149.514 410.708C144.286 410.637 139.554 410.5 136.128 410.382C134.529 410.326 133.174 410.28 132.071 410.242C131.662 410.23 131.299 410.22 130.968 410.212C130.716 410.208 130.582 410.211 130.581 410.22Z" fill="#17282F"/>
<path d="M160.642 411.216C160.724 411.227 160.8 410.26 161.424 409.289C162.03 408.307 162.872 407.823 162.827 407.753C162.811 407.686 161.848 408.094 161.195 409.144C160.529 410.187 160.574 411.232 160.642 411.216Z" fill="#17282F"/>
<path d="M154.099 407.79C154.161 407.832 154.481 407.451 154.813 406.943C155.145 406.435 155.364 405.988 155.301 405.948C155.239 405.906 154.919 406.286 154.587 406.795C154.255 407.303 154.036 407.749 154.099 407.79Z" fill="#17282F"/>
<path d="M152.303 406.811C152.353 406.868 152.708 406.637 153.097 406.296C153.486 405.955 153.761 405.634 153.712 405.577C153.662 405.521 153.307 405.752 152.918 406.093C152.53 406.433 152.254 406.755 152.303 406.811Z" fill="#17282F"/>
<path d="M151.188 404.689C151.186 404.764 151.707 404.838 152.351 404.853C152.994 404.868 153.518 404.82 153.519 404.745C153.522 404.67 153 404.598 152.357 404.582C151.713 404.567 151.189 404.615 151.188 404.689Z" fill="#17282F"/>
<path d="M150.814 403.199C150.788 403.265 151.353 403.529 152.109 403.593C152.865 403.662 153.467 403.501 153.454 403.431C153.442 403.355 152.851 403.389 152.133 403.324C151.415 403.263 150.839 403.125 150.814 403.199Z" fill="#17282F"/>
<path d="M154.881 405.852C154.878 405.882 155.428 405.956 156.315 405.861C156.757 405.814 157.281 405.715 157.846 405.544C158.126 405.449 158.42 405.377 158.725 405.195C158.867 405.102 159.027 404.97 159.085 404.754C159.147 404.539 159.035 404.296 158.874 404.177C157.513 403.45 156.13 404.203 155.613 404.906C155.328 405.264 155.196 405.615 155.133 405.857C155.072 406.102 155.075 406.243 155.091 406.245C155.141 406.263 155.195 405.681 155.76 405.028C156.039 404.709 156.458 404.4 156.994 404.248C157.504 404.105 158.225 404.073 158.702 404.386C158.928 404.558 158.836 404.825 158.581 404.973C158.343 405.121 158.037 405.211 157.77 405.307C157.225 405.487 156.718 405.602 156.289 405.672C155.427 405.813 154.881 405.807 154.881 405.852Z" fill="#17282F"/>
<path d="M155.251 405.929C155.271 405.944 155.488 405.581 155.429 404.934C155.398 404.616 155.287 404.241 155.051 403.881C154.802 403.559 154.481 403.117 153.866 403.134C153.534 403.174 153.366 403.55 153.416 403.791C153.438 404.043 153.549 404.261 153.651 404.435C153.86 404.796 154.098 405.089 154.318 405.312C154.762 405.757 155.115 405.93 155.131 405.904C155.157 405.869 154.849 405.643 154.458 405.183C154.264 404.953 154.055 404.663 153.869 404.315C153.676 404.009 153.548 403.463 153.91 403.402C154.268 403.372 154.63 403.733 154.846 404.022C155.068 404.335 155.188 404.671 155.24 404.962C155.342 405.546 155.203 405.917 155.251 405.929Z" fill="#17282F"/>
<path d="M131.116 404.118C131.119 404.168 131.756 404.064 132.763 404.196C133.76 404.319 135.145 404.747 136.341 405.725C137.537 406.703 138.23 407.977 138.549 408.931C138.877 409.893 138.902 410.536 138.952 410.531C138.969 410.53 138.979 410.369 138.959 410.08C138.939 409.79 138.876 409.374 138.731 408.874C138.451 407.879 137.758 406.537 136.512 405.515C135.265 404.496 133.813 404.083 132.784 404.006C132.265 403.963 131.843 403.982 131.556 404.021C131.268 404.059 131.113 404.101 131.116 404.118Z" fill="#17282F"/>
<path d="M133.547 394.854C133.472 394.853 133.359 396.906 133.295 399.438C133.23 401.973 133.239 404.026 133.314 404.029C133.389 404.031 133.502 401.98 133.565 399.445C133.629 396.913 133.622 394.857 133.547 394.854Z" fill="#17282F"/>
<path d="M141.821 408.518C141.811 408.588 143.261 408.845 145.075 408.882C146.888 408.926 148.35 408.733 148.341 408.663C148.335 408.585 146.878 408.655 145.081 408.613C143.285 408.576 141.831 408.439 141.821 408.518Z" fill="#17282F"/>
<path d="M137.447 408.456C137.392 408.51 137.562 408.767 137.707 409.103C137.856 409.437 137.929 409.737 138.006 409.732C138.079 409.733 138.125 409.381 137.955 408.994C137.786 408.606 137.495 408.402 137.447 408.456Z" fill="#17282F"/>
<path d="M135.825 406.384C135.771 406.435 135.912 406.669 136.14 406.906C136.367 407.143 136.596 407.294 136.651 407.242C136.703 407.19 136.562 406.955 136.334 406.718C136.107 406.481 135.878 406.331 135.825 406.384Z" fill="#17282F"/>
<path d="M133.478 405.414C133.492 405.492 133.788 405.492 134.116 405.612C134.444 405.724 134.675 405.908 134.735 405.859C134.795 405.819 134.612 405.498 134.205 405.357C133.8 405.212 133.455 405.346 133.478 405.414Z" fill="#17282F"/>
<path d="M131.803 404.951C131.776 405.02 131.903 405.137 132.088 405.211C132.271 405.286 132.444 405.289 132.471 405.219C132.5 405.151 132.372 405.034 132.188 404.961C132.003 404.886 131.832 404.882 131.803 404.951Z" fill="#17282F"/>
<path d="M168.611 168.759L158.195 400.352L123.44 401.083L129.212 207.196L90.1188 402.566H57.075L101.208 168.759" fill="#17282F"/>
<path d="M135 171.696C134.954 171.694 134.879 172.198 134.781 173.112C134.683 174.026 134.566 175.35 134.433 176.988C134.17 180.262 133.853 184.79 133.542 189.791C133.398 192.284 133.259 194.659 133.133 196.846C133.003 199.015 133.008 200.979 132.462 202.479C131.95 203.991 130.904 204.894 130.116 205.267C129.307 205.646 128.774 205.584 128.778 205.652C128.777 205.672 128.903 205.704 129.152 205.71C129.4 205.719 129.771 205.673 130.22 205.509C131.1 205.186 132.294 204.263 132.909 202.646C133.553 201.047 133.589 199.032 133.753 196.884C133.897 194.698 134.053 192.324 134.216 189.833C134.525 184.831 134.768 180.3 134.909 177.018C134.981 175.376 135.026 174.048 135.043 173.129C135.059 172.209 135.046 171.7 135 171.696Z" fill="#33535F"/>
<path d="M131.432 174.771C131.38 174.858 131.724 175.088 131.755 175.636C131.77 175.895 131.698 176.225 131.487 176.427C131.288 176.633 130.928 176.688 130.58 176.55C130.234 176.406 130.012 176.116 130.015 175.83C130.005 175.537 130.183 175.25 130.374 175.075C130.778 174.704 131.185 174.78 131.208 174.681C131.269 174.618 130.779 174.289 130.095 174.688C129.785 174.88 129.436 175.249 129.394 175.812C129.34 176.386 129.77 176.963 130.325 177.176C130.872 177.411 131.582 177.297 131.944 176.848C132.306 176.416 132.313 175.907 132.225 175.554C132.013 174.792 131.431 174.685 131.432 174.771Z" fill="#33535F"/>
<path d="M98.7275 180.262C98.693 180.322 99.7176 180.975 101.615 181.364C103.483 181.761 106.287 181.76 109.018 180.542C111.747 179.318 113.619 177.229 114.569 175.571C115.545 173.899 115.742 172.699 115.675 172.686C115.564 172.645 115.206 173.774 114.166 175.317C113.147 176.85 111.318 178.77 108.742 179.925C106.165 181.074 103.516 181.156 101.693 180.894C99.8509 180.639 98.7716 180.154 98.7275 180.262Z" fill="#33535F"/>
<path d="M156.526 171.698C156.455 171.692 156.304 172.669 156.65 174.207C156.981 175.726 157.93 177.805 159.761 179.412C161.595 181.018 163.781 181.687 165.329 181.814C166.898 181.956 167.846 181.679 167.832 181.607C167.821 181.494 166.87 181.595 165.392 181.343C163.927 181.099 161.914 180.4 160.206 178.906C158.501 177.408 157.543 175.502 157.111 174.082C156.663 172.65 156.64 171.693 156.526 171.698Z" fill="#33535F"/>
<path d="M174.145 71.0069L206.53 79.4214C206.53 79.4214 233.314 49.6813 234.564 48.6432C235.816 47.6039 252.256 52.8183 252.256 52.8183L233.176 88.168C228.618 99.7016 221.848 106.201 215.257 106.486L162.179 95.9408L174.145 71.0069Z" fill="#A07166"/>
<path d="M233.503 49.9587C233.503 49.9587 237.208 42.5347 237.717 41.4097C238.994 38.5858 240.932 31.4725 240.932 31.4725C240.932 31.4725 243.138 30.9868 243 35.9179C242.86 40.849 243.853 39.4799 243.853 39.4799C243.853 39.4799 254.091 27.0355 256.572 27.8593C257.499 28.1665 256.22 31.1213 254.531 32.719C252.841 34.3167 250.998 36.8989 250.998 36.8989C250.998 36.8989 260.629 28.2141 262.836 29.5808C262.836 29.5808 263.913 30.4356 260.854 32.9952C256.614 36.5429 253.728 39.8763 253.728 39.8763C253.728 39.8763 263.278 33.1417 264.356 33.8679C266.145 35.0727 256.464 41.943 254.861 44.5014C254.861 44.5014 262.06 38.9787 262.254 40.7525C262.448 42.5264 253.491 48.7468 249.397 57.7875L233.503 49.9587Z" fill="#A07166"/>
<path d="M241.2 40.699C241.144 40.7978 241.851 41.1752 242.67 42.105C243.485 43.011 244.368 44.5765 244.406 46.4432L244.423 47.2896L245 46.6563L245.034 46.617C246.276 45.1908 247.894 44.4241 249.092 44.1062C250.303 43.7765 251.108 43.7991 251.111 43.6872C251.12 43.6134 250.304 43.4145 248.989 43.6407C247.691 43.8538 245.888 44.6098 244.526 46.1753L244.486 46.217L245.08 46.4313C245.034 44.3407 243.975 42.6574 243.013 41.7752C242.038 40.8633 241.223 40.6323 241.2 40.699Z" fill="#B14532"/>
<path d="M91.316 72.3938L58.9315 80.8083C58.9315 80.8083 36.4136 55.8053 31.7165 50.8611C30.8954 49.2123 28.1773 43.7503 27.7453 42.7967C26.4672 39.9728 24.5298 32.8595 24.5298 32.8595C24.5298 32.8595 22.3235 32.3738 22.4616 37.3048C22.6008 42.2371 21.6095 40.8668 21.6095 40.8668C13.3768 25.5843 7.41947 33.3345 6.86253 34.7524C6.30441 36.1703 6.3889 45.3765 6.3889 45.3765C6.23658 46.7717 9.77694 48.9301 13.2864 54.1803L13.2066 54.2053L32.2853 89.5561C36.8432 101.09 43.6145 107.589 50.2037 107.873L103.282 97.329L91.316 72.3938Z" fill="#A07166"/>
<path d="M24.2621 42.0871C24.2383 42.0204 23.4243 42.2514 22.4496 43.1621C21.4869 44.0443 20.4266 45.7289 20.3814 47.8182L20.9752 47.6051L20.9359 47.5622C19.5745 45.9967 17.7716 45.2408 16.4733 45.0289C15.1571 44.8015 14.3407 45.0015 14.3514 45.0753C14.3538 45.186 15.1595 45.1634 16.3685 45.4944C17.5681 45.811 19.1854 46.5789 20.4266 48.0051L20.4623 48.0432L21.0394 48.6766L21.0561 47.8301C21.0942 45.9646 21.9772 44.3979 22.7912 43.4919C23.6099 42.5621 24.318 42.1847 24.2621 42.0871Z" fill="#B14532"/>
<path d="M133.229 3.21468L130.591 3.69208L130.406 2.67541C130.285 2.00634 130.73 1.36585 131.399 1.24442L131.614 1.20512C132.283 1.08488 132.925 1.52895 133.045 2.19802L133.229 3.21468Z" fill="#F03D5F"/>
<path d="M133.229 3.21468L130.591 3.69208L130.406 2.67541C130.285 2.00634 130.73 1.36585 131.399 1.24442L131.614 1.20512C132.283 1.08488 132.925 1.52895 133.045 2.19802L133.229 3.21468Z" fill="#040606"/>
<path d="M138.38 47.6503C138.441 47.7908 138.508 47.9301 138.578 48.067C139.579 50.0147 141.388 51.5374 143.485 52.1719C145.729 52.8517 148.263 52.5029 150.24 51.2421C151.929 50.1635 153.255 48.1956 152.861 46.2289C153.543 47.1896 155.053 47.2849 156.026 46.6194C156.999 45.9551 157.471 44.7336 157.519 43.5574C157.567 42.3788 157.251 41.2216 156.937 40.0859C157.861 40.9764 159.455 40.9621 160.466 40.1716C161.477 39.3811 161.892 37.9632 161.632 36.706C161.372 35.4488 160.508 34.3655 159.431 33.6678C160.417 33.7238 161.418 33.2726 162.028 32.4976C162.639 31.7226 162.842 30.644 162.558 29.6999C162.033 27.9606 160.141 27.0486 158.385 26.5843C156.63 26.12 154.713 25.845 153.367 24.6248C152.354 23.7069 151.813 22.3592 151.619 21.0056C151.424 19.652 151.544 18.2746 151.664 16.9127L145.284 17.0817L138.38 47.6503Z" fill="#17282F"/>
<path d="M117.3 20.9818C117.074 22.3544 115.237 25.8879 114.067 26.6415C112.899 27.3927 111.555 27.8177 110.244 28.2808C108.932 28.7415 107.608 29.2654 106.553 30.1713C105.496 31.0761 104.741 32.4392 104.894 33.8214C105.049 35.2036 106.326 36.4679 107.706 36.306C106.832 37.406 105.943 38.5346 105.483 39.862C105.024 41.1906 105.07 42.78 105.959 43.8693C106.847 44.9586 108.698 45.2527 109.668 44.236C108.837 46.2658 109.48 48.8016 111.175 50.1909C112.871 51.5802 115.482 51.71 117.308 50.4968C117.709 52.8743 119.77 54.8743 122.157 55.2017C124.545 55.5291 127.068 54.1588 128.094 51.9766" fill="#17282F"/>
<path d="M121.852 67.1532L143.31 65.4389C143.444 62.9329 143.265 53.2374 143.265 53.2374C143.265 53.2374 152.192 51.8481 152.303 42.9181C152.413 33.9893 150.866 13.484 150.866 13.484C140.532 9.04221 128.606 10.5411 119.694 17.4032L118.37 18.4222L121.852 67.1532Z" fill="#A07166"/>
<path d="M150.975 26.9998C150.836 27.1546 149.959 26.4808 148.729 26.4748C147.5 26.451 146.608 27.1034 146.472 26.9462C146.405 26.876 146.546 26.5974 146.935 26.2998C147.317 26.0069 147.973 25.7224 148.739 25.7319C149.505 25.7414 150.154 26.0403 150.529 26.3438C150.911 26.6498 151.043 26.9319 150.975 26.9998Z" fill="#17282F"/>
<path d="M137.622 27.6463C137.482 27.8011 136.605 27.126 135.376 27.1213C134.147 27.0963 133.255 27.7498 133.118 27.5915C133.052 27.5225 133.191 27.2427 133.58 26.9463C133.963 26.6522 134.619 26.3689 135.385 26.3784C136.152 26.3879 136.8 26.6867 137.175 26.9903C137.557 27.2951 137.689 27.5784 137.622 27.6463Z" fill="#17282F"/>
<path d="M142.552 38.0215C142.544 37.9251 143.304 37.7715 144.539 37.6001C144.862 37.5656 145.114 37.493 145.137 37.3192C145.195 37.1251 145.07 36.781 144.907 36.3977C144.59 35.5846 144.27 34.7607 143.935 33.8988C142.591 30.3392 141.65 27.3974 141.831 27.3296C142.01 27.2617 143.246 30.0916 144.588 33.6524C144.907 34.5215 145.209 35.3512 145.509 36.1703C145.628 36.5429 145.852 36.9775 145.685 37.5072C145.597 37.7739 145.344 37.9656 145.132 38.0215C144.918 38.0858 144.737 38.0858 144.583 38.093C143.335 38.1382 142.56 38.118 142.552 38.0215Z" fill="#17282F"/>
<path d="M143.279 53.1076C143.279 53.1076 137.638 53.5671 131.643 49.8004C131.643 49.8004 134.393 56.2255 143.3 55.4219L143.279 53.1076Z" fill="#84584E"/>
<path d="M151.05 15.7305C151.05 15.7305 145.827 18.7544 138.518 15.7567C133.721 13.7899 128.245 13.0602 127.125 14.078C126.006 15.0971 131.281 13.0316 127.863 20.3389C127.863 20.3389 124.223 38.6287 118.967 30.6332C116.98 27.6129 116.544 16.3436 116.54 16.3198L125.089 11.3292L134.633 8.78266L143.849 9.39341L151.05 10.8041V15.7305Z" fill="#17282F"/>
<path d="M119.471 27.6713C119.319 27.6058 113.338 25.8569 113.533 31.9619C113.727 38.0668 119.814 36.612 119.819 36.4369C119.823 36.2608 119.471 27.6713 119.471 27.6713Z" fill="#A07166"/>
<path d="M117.881 34.1833C117.854 34.1643 117.776 34.2619 117.6 34.3488C117.427 34.4357 117.128 34.5 116.805 34.3916C116.153 34.175 115.578 33.169 115.513 32.069C115.48 31.513 115.58 30.9808 115.762 30.5368C115.934 30.0844 116.213 29.763 116.535 29.6951C116.857 29.6106 117.092 29.7975 117.172 29.9665C117.26 30.1344 117.224 30.257 117.258 30.2666C117.275 30.282 117.385 30.1606 117.328 29.9094C117.299 29.7892 117.223 29.6475 117.076 29.5344C116.926 29.4213 116.708 29.3665 116.483 29.3987C116.013 29.4463 115.603 29.8927 115.402 30.3808C115.176 30.8713 115.051 31.4701 115.088 32.094C115.167 33.3226 115.833 34.4535 116.723 34.6809C117.156 34.7786 117.51 34.6381 117.69 34.4881C117.875 34.3309 117.903 34.194 117.881 34.1833Z" fill="#B14532"/>
<path d="M144.997 23.489C145.184 23.8247 146.352 23.5128 147.761 23.4652C149.17 23.3878 150.36 23.5938 150.516 23.2438C150.687 22.9235 149.467 22.033 147.701 22.1164C145.935 22.1914 144.799 23.1854 144.997 23.489Z" fill="#17282F"/>
<path d="M131.304 23.6414C131.49 23.9759 132.658 23.664 134.067 23.6164C135.476 23.539 136.666 23.745 136.822 23.3949C136.993 23.0747 135.772 22.1842 134.006 22.2675C132.241 22.3425 131.104 23.3366 131.304 23.6414Z" fill="#17282F"/>
<path d="M121.629 21.6151C121.629 21.6151 166.77 15.6436 168.264 14.0316C169.453 12.7506 163.094 11.3375 151.703 12.2471C148.684 15.6638 134.358 18.677 121.629 21.6151Z" fill="#F03D5F"/>
<path d="M116.342 23.0283L152.308 16.3079C152.308 16.3079 153.058 6.83739 142.049 3.87302C134.893 1.94559 127.131 3.31587 121.651 8.30647C118.292 11.3649 115.533 16.0472 116.342 23.0283Z" fill="#F03D5F"/>
<path d="M142.776 40.4644C142.879 40.599 141.908 41.2395 140.612 40.9347C139.313 40.643 138.716 39.6442 138.87 39.5692C139.006 39.4537 139.683 40.1013 140.75 40.3299C141.811 40.5894 142.703 40.3025 142.776 40.4644Z" fill="#17282F"/>
<path d="M116.342 23.0283C116.342 23.0283 122.441 21.8163 123.904 21.6151C125.073 21.4544 128.551 20.7473 128.551 20.7473C141.356 18.9579 167.574 15.09 168.264 14.0316C169.219 12.5685 163.094 11.3375 151.703 12.2471C148.684 15.6638 129.072 20.0901 116.342 23.0283Z" fill="#040606"/>
<path d="M132.096 3.22658C132.169 3.3242 131.268 3.92185 130.206 5.23617C129.664 5.8838 129.151 6.75286 128.674 7.75527C128.233 8.77791 127.866 9.95174 127.629 11.2208C127.174 13.7697 127.277 16.1448 127.424 17.8436C127.58 19.546 127.767 20.5961 127.67 20.6175C127.6 20.6342 127.26 19.6127 126.989 17.896C126.727 16.1852 126.548 13.7518 127.018 11.1089C127.265 9.79341 127.666 8.57076 128.156 7.51478C128.684 6.47666 129.264 5.59092 129.873 4.95281C130.466 4.30756 131.012 3.84207 131.429 3.58731C131.838 3.31944 132.072 3.19205 132.096 3.22658Z" fill="#17282F"/>
<path d="M146.938 14.6495C146.84 14.6817 146.506 13.5935 145.633 12.0149C144.77 10.4411 143.274 8.3946 141.089 6.74218C138.902 5.08737 136.527 4.20522 134.777 3.80521C133.021 3.39448 131.886 3.37067 131.889 3.2659C131.886 3.20043 133.035 3.06589 134.865 3.37542C136.684 3.67543 139.185 4.52427 141.463 6.24694C143.741 7.9696 145.238 10.1447 146.022 11.8137C146.819 13.4912 147.003 14.6352 146.938 14.6495Z" fill="#17282F"/>
<path d="M116.201 18.7187L118.927 17.7734L119.819 20.9818L116.201 22.1116C116.201 22.1116 116.002 19.4842 116.201 18.7187Z" fill="#17282F"/>
<path d="M69.2574 77.4963L74.7031 109.264L103.047 103.548L102.066 135.322L99.1262 171.931L172.682 176.776C172.861 169.376 166.611 103.424 166.611 103.424L184.135 109.325L193.685 73.6938L164.678 65.8472C154.283 62.8412 147.023 62.3829 143.881 61.9888C136.255 64.3377 128.628 64.3329 121.003 61.9745C117.466 62.1245 114.41 62.7483 111.53 63.7912L69.2574 77.4963Z" fill="#33535F"/>
<path d="M117.966 61.8638C117.942 61.9031 118.281 62.1424 118.919 62.5424C119.548 62.9555 120.517 63.4614 121.752 64.0007C122.986 64.5496 124.516 65.0603 126.252 65.4853C127.994 65.8794 129.945 66.1675 132.008 66.2389C134.073 66.2877 136.038 66.1115 137.8 65.8175C139.557 65.4936 141.114 65.0722 142.377 64.5948C143.641 64.1281 144.638 63.6781 145.29 63.3019C145.951 62.9388 146.302 62.7198 146.28 62.6781C146.223 62.5674 144.752 63.3376 142.223 64.1424C140.963 64.5543 139.424 64.9198 137.699 65.2044C135.967 65.4579 134.047 65.6115 132.027 65.5651C130.01 65.4948 128.101 65.2305 126.388 64.8782C124.681 64.4948 123.166 64.0412 121.932 63.5579C119.453 62.609 118.029 61.7554 117.966 61.8638Z" fill="#17282F"/>
<path d="M179.413 107.455C179.457 107.472 179.675 107.013 180.033 106.17C180.39 105.328 180.883 104.098 181.47 102.572C182.644 99.5171 184.185 95.267 185.763 90.53C187.34 85.7906 188.654 81.4643 189.544 78.3154C189.989 76.7416 190.333 75.463 190.551 74.5737C190.771 73.6843 190.871 73.1867 190.826 73.1736C190.781 73.1605 190.596 73.6331 190.3 74.4986C189.968 75.507 189.563 76.7344 189.088 78.1773C188.022 81.4381 186.646 85.6537 185.123 90.3169C183.548 94.9599 182.123 99.1588 181.021 102.408C180.537 103.848 180.125 105.073 179.787 106.079C179.505 106.949 179.37 107.439 179.413 107.455Z" fill="#17282F"/>
<path d="M98.7275 168.613C98.7168 168.799 115.846 169.964 136.983 171.217C158.127 172.467 175.271 173.331 175.282 173.145C175.292 172.959 158.166 171.794 137.023 170.542C115.886 169.292 98.7383 168.427 98.7275 168.613Z" fill="#17282F"/>
<path d="M114.556 169.624C114.385 169.624 114.246 145.94 114.246 116.732C114.246 87.5133 114.385 63.8341 114.556 63.8341C114.726 63.8341 114.866 87.5133 114.866 116.732C114.866 145.94 114.726 169.624 114.556 169.624Z" fill="#FAFAF9"/>
<path d="M127.735 169.938C127.565 169.938 127.425 146.609 127.425 117.835C127.425 89.0526 127.565 65.727 127.735 65.727C127.906 65.727 128.045 89.0526 128.045 117.835C128.045 146.609 127.906 169.938 127.735 169.938Z" fill="#FAFAF9"/>
<path d="M141.465 169.044C141.294 169.044 141.156 145.712 141.156 116.94C141.156 88.1573 141.294 64.8318 141.465 64.8318C141.637 64.8318 141.776 88.1573 141.776 116.94C141.776 145.712 141.637 169.044 141.465 169.044Z" fill="#FAFAF9"/>
<path d="M154.3 170.536C154.13 170.536 153.991 146.604 153.991 117.089C153.991 87.5645 154.13 63.6365 154.3 63.6365C154.471 63.6365 154.611 87.5645 154.611 117.089C154.611 146.604 154.471 170.536 154.3 170.536Z" fill="#FAFAF9"/>
<path d="M165.642 105.142C165.471 105.142 165.333 96.2516 165.333 85.2858C165.333 74.3177 165.471 65.4282 165.642 65.4282C165.814 65.4282 165.953 74.3177 165.953 85.2858C165.953 96.2516 165.814 105.142 165.642 105.142Z" fill="#FAFAF9"/>
<path d="M177.808 94.3932C177.637 94.3944 177.474 88.9799 177.445 82.3024C177.415 75.6225 177.531 70.2081 177.702 70.2069C177.873 70.2057 178.035 75.6189 178.065 82.3C178.094 88.9776 177.979 94.392 177.808 94.3932Z" fill="#FAFAF9"/>
<path d="M99.3797 104.287C99.2083 104.287 99.0691 96.2563 99.0691 86.3525C99.0691 76.4439 99.2083 68.4151 99.3797 68.4151C99.551 68.4151 99.6891 76.4439 99.6891 86.3525C99.6891 96.2563 99.551 104.287 99.3797 104.287Z" fill="#FAFAF9"/>
<path d="M83.5593 107.532C83.3891 107.532 83.2499 99.9112 83.2499 90.5121C83.2499 81.1107 83.3891 73.4915 83.5593 73.4915C83.7307 73.4915 83.8699 81.1107 83.8699 90.5121C83.8699 99.9112 83.7307 107.532 83.5593 107.532Z" fill="#FAFAF9"/>
<path d="M79.155 109.032C79.1133 109.045 78.9336 108.604 78.642 107.798C78.3493 106.992 77.9589 105.815 77.5055 104.351C76.5987 101.422 75.4801 97.3326 74.49 92.7586C73.5035 88.1823 72.8346 83.9953 72.4526 80.9536C72.261 79.4321 72.1301 78.1988 72.0647 77.344C71.9969 76.4892 71.9802 76.0154 72.0219 76.0094C72.0647 76.0047 72.1635 76.4701 72.3039 77.3142C72.4634 78.2916 72.6573 79.4845 72.887 80.8905C73.3785 83.9084 74.1127 88.068 75.0957 92.6277C76.0823 97.1861 77.1295 101.277 77.9268 104.229C78.2993 105.603 78.6147 106.771 78.8729 107.727C79.0931 108.554 79.1954 109.019 79.155 109.032Z" fill="#17282F"/>
<path d="M20.4385 17.471L17.029 24.4462C16.3983 25.9724 15.3772 27.3081 14.0694 28.3177L9.89949 31.5332C9.61746 31.7511 9.39611 32.0404 9.26044 32.369L0.0471601 54.6624C-0.0837441 54.9791 0.0673844 55.3422 0.382745 55.4731L12.9198 60.6578C13.2364 60.7887 13.5993 60.6376 13.7302 60.3221L22.8899 38.156C23.0327 37.8096 23.0792 37.4286 23.0197 37.0584L22.3723 31.7154C22.1771 30.1034 22.4568 28.9022 23.0197 26.9688L25.1534 19.421L20.4385 17.471Z" fill="#F03D5F"/>
<path d="M21.4452 41.6526L12.9971 38.1584L6.86249 53.0029L15.3106 56.497" fill="#FAFAF9"/>
<path d="M25.0011 19.4115L20.5539 17.571C20.0481 17.3627 19.8066 16.7829 20.016 16.2757L20.0839 16.1126C20.2933 15.6067 20.8728 15.3662 21.3786 15.5757L25.827 17.415C26.3327 17.6246 26.5731 18.2044 26.3637 18.7103L26.297 18.8734C26.0876 19.3806 25.508 19.621 25.0011 19.4115Z" fill="#F03D5F"/>
<path d="M20.9264 26.1486L17.0147 24.5307L19.083 20.2437L22.7424 21.7568L20.9264 26.1486Z" fill="#FAFAF9"/>
<path d="M18.3773 49.0754C17.6764 50.7707 15.7331 51.5778 14.0373 50.8766C12.3415 50.1754 11.5346 48.2313 12.2367 46.5348C12.9377 44.8384 14.881 44.0312 16.5768 44.7324C18.2726 45.4336 19.0794 47.3777 18.3773 49.0754Z" fill="#F03D5F"/>
<path d="M21.1858 42.2824C21.1632 42.3371 20.348 42.0609 18.9485 41.5323C17.549 41.0049 15.5664 40.2276 13.2102 39.2811L13.5684 39.1323C12.7401 41.1633 11.8 43.4681 10.8039 45.9122C9.78404 48.3492 8.82248 50.6445 7.97399 52.6683L7.82523 52.3088C10.1625 53.3041 12.1153 54.1541 13.4791 54.7684C14.8417 55.3827 15.614 55.7637 15.5914 55.8184C15.5688 55.8732 14.7536 55.597 13.3541 55.0684C11.9547 54.541 9.97206 53.7636 7.61578 52.8172L7.3623 52.7148L7.46703 52.4576C8.2953 50.4254 9.23423 48.1218 10.2315 45.6753C11.2513 43.2407 12.2129 40.9454 13.0614 38.9228L13.1673 38.6668L13.4196 38.7739C15.7568 39.768 17.7097 40.618 19.0723 41.2323C20.4349 41.8478 21.2084 42.2276 21.1858 42.2824Z" fill="#DADBD8"/>
<path d="M21.2965 22.5092C21.231 22.6675 20.5777 22.5485 19.8387 22.2425C19.0985 21.9354 18.5523 21.5604 18.6165 21.402C18.6832 21.2437 19.3353 21.3639 20.0755 21.6699C20.8145 21.9759 21.3619 22.3521 21.2965 22.5092Z" fill="#DADBD8"/>
<path d="M20.6384 24.1021C20.573 24.2593 19.9208 24.1402 19.1806 23.8343C18.4416 23.5283 17.8942 23.1521 17.9597 22.9926C18.0251 22.8354 18.6772 22.9545 19.4175 23.2604C20.1577 23.5664 20.7039 23.9438 20.6384 24.1021Z" fill="#DADBD8"/>
<path d="M10.0982 31.5988C11.0229 33.4083 11.9475 35.2167 12.8722 37.0263C13.1828 37.6334 13.4827 38.4025 13.0757 38.9477C12.771 39.3537 12.1689 39.437 11.6905 39.2668C11.2121 39.0965 10.8348 38.7263 10.4921 38.3513C9.30683 37.0548 8.33932 35.5584 7.64196 33.9452C7.64196 33.9452 7.20879 32.8143 8.10489 32.0964C9.00218 31.3797 10.0982 31.5988 10.0982 31.5988Z" fill="#A07166"/>
<path d="M6.29966 37.6572C7.22432 39.4668 8.15016 41.2764 9.07482 43.086C9.38423 43.6919 9.68532 44.461 9.27714 45.0062C8.97249 45.4122 8.37033 45.4955 7.89193 45.3253C7.41354 45.1551 7.03629 44.7848 6.69355 44.411C5.50828 43.1133 4.54078 41.6169 3.84342 40.0037C3.84342 40.0037 3.41025 38.8739 4.30754 38.156C5.20363 37.4382 6.29966 37.6572 6.29966 37.6572Z" fill="#A07166"/>
<path d="M8.40481 34.7C9.33066 36.5096 10.2553 38.3192 11.18 40.1287C11.4894 40.7347 11.7905 41.5038 11.3823 42.049C11.0788 42.4562 10.4755 42.5383 9.99708 42.3681C9.51869 42.1978 9.14145 41.8276 8.79872 41.4538C7.61344 40.1561 6.64593 38.6597 5.94857 37.0465C5.94857 37.0465 4.9787 34.9679 6.65665 33.8667C8.33579 32.7631 8.40481 34.7 8.40481 34.7Z" fill="#A07166"/>
<path d="M26.4934 12.3851C26.5493 10.9303 26.6136 9.43982 27.1848 8.10169C27.756 6.76356 28.9544 5.5933 30.4063 5.48973C31.8557 5.38615 33.3671 6.71119 33.1005 8.14218C32.8684 9.39102 31.5594 10.1018 30.361 10.5232C29.1639 10.9434 27.1622 11.3065 26.4934 12.3851Z" fill="#33535F"/>
<path d="M25.5283 8.29218C24.5084 6.50761 24.0574 4.40278 24.2573 2.35749C24.337 1.54438 24.5762 0.651506 25.2736 0.225305C25.84 -0.121133 26.6076 -0.0520754 27.155 0.322935C27.7037 0.697944 28.0369 1.33961 28.1226 1.99796C28.2701 3.1337 27.7417 4.24327 27.1539 5.22662C26.566 6.20998 25.8888 7.18381 25.6901 8.3136" fill="#33535F"/>
<path d="M253.653 34.1833C253.68 34.1643 253.756 34.2619 253.934 34.3488C254.106 34.4357 254.406 34.5 254.729 34.3916C255.381 34.175 255.955 33.169 256.021 32.069C256.054 31.513 255.954 30.9808 255.772 30.5368C255.6 30.0844 255.321 29.763 254.997 29.6951C254.677 29.6106 254.442 29.7975 254.361 29.9665C254.274 30.1344 254.308 30.257 254.276 30.2666C254.258 30.282 254.148 30.1606 254.205 29.9094C254.235 29.7892 254.311 29.6475 254.457 29.5344C254.608 29.4213 254.826 29.3665 255.051 29.3987C255.521 29.4463 255.93 29.8927 256.13 30.3808C256.358 30.8713 256.483 31.4701 256.445 32.094C256.367 33.3226 255.701 34.4535 254.811 34.6809C254.377 34.7786 254.024 34.6381 253.843 34.4881C253.659 34.3309 253.631 34.194 253.653 34.1833Z" fill="#F68260"/>
</svg>
