<svg width="17" height="17" viewBox="0 0 17 17" fill="none" xmlns="http://www.w3.org/2000/svg">
<circle cx="8.5" cy="8.5" r="8.5" fill="#BC283B"/>
<path fill-rule="evenodd" clip-rule="evenodd" d="M10.8769 6.12307C11.041 6.28716 11.041 6.55321 10.8769 6.7173L6.7173 10.8769C6.55321 11.041 6.28716 11.041 6.12307 10.8769C5.95898 10.7128 5.95898 10.4468 6.12307 10.2827L10.2827 6.12307C10.4468 5.95898 10.7128 5.95898 10.8769 6.12307Z" fill="white"/>
<path fill-rule="evenodd" clip-rule="evenodd" d="M6.12307 6.12307C6.28716 5.95898 6.55321 5.95898 6.7173 6.12307L10.8769 10.2827C11.041 10.4468 11.041 10.7128 10.8769 10.8769C10.7128 11.041 10.4468 11.041 10.2827 10.8769L6.12307 6.7173C5.95898 6.55321 5.95898 6.28716 6.12307 6.12307Z" fill="white"/>
</svg>
