<svg width="7" height="28" viewBox="0 0 7 28" fill="none" xmlns="http://www.w3.org/2000/svg">
<path d="M3.39999 20.4C2.49825 20.4 1.63345 20.7582 0.995826 21.3958C0.358202 22.0335 -1.14441e-05 22.8983 -1.14441e-05 23.8C-1.14441e-05 24.7017 0.358202 25.5665 0.995826 26.2042C1.63345 26.8418 2.49825 27.2 3.39999 27.2C4.30172 27.2 5.16653 26.8418 5.80415 26.2042C6.44177 25.5665 6.79999 24.7017 6.79999 23.8C6.79999 22.8983 6.44177 22.0335 5.80415 21.3958C5.16653 20.7582 4.30172 20.4 3.39999 20.4ZM3.39999 10.2C2.49825 10.2 1.63345 10.5582 0.995826 11.1958C0.358202 11.8335 -1.14441e-05 12.6983 -1.14441e-05 13.6C-1.14441e-05 14.5017 0.358202 15.3665 0.995826 16.0042C1.63345 16.6418 2.49825 17 3.39999 17C4.30172 17 5.16653 16.6418 5.80415 16.0042C6.44177 15.3665 6.79999 14.5017 6.79999 13.6C6.79999 12.6983 6.44177 11.8335 5.80415 11.1958C5.16653 10.5582 4.30172 10.2 3.39999 10.2ZM3.39999 0C2.49825 0 1.63345 0.358213 0.995826 0.995837C0.358202 1.63346 -1.14441e-05 2.49826 -1.14441e-05 3.4C-1.14441e-05 4.30174 0.358202 5.16654 0.995826 5.80416C1.63345 6.44179 2.49825 6.8 3.39999 6.8C4.30172 6.8 5.16653 6.44179 5.80415 5.80416C6.44177 5.16654 6.79999 4.30174 6.79999 3.4C6.79999 2.49826 6.44177 1.63346 5.80415 0.995837C5.16653 0.358213 4.30172 0 3.39999 0Z" fill="white"/>
</svg>
