<svg width="229" height="59" viewBox="0 0 229 59" fill="none" xmlns="http://www.w3.org/2000/svg">
<g filter="url(#filter0_ddd)">
<rect x="5" y="4" width="219" height="49" rx="8" fill="#ECECEC"/>
</g>
<path d="M94.9922 28.3828H87.9844V33.6328H96.1758V36H85.0195V18.9375H96.0938V21.3281H87.9844V26.0391H94.9922V28.3828ZM100.957 23.3203L101.039 24.7852C101.977 23.6523 103.207 23.0859 104.73 23.0859C107.371 23.0859 108.715 24.5977 108.762 27.6211V36H105.914V27.7852C105.914 26.9805 105.738 26.3867 105.387 26.0039C105.043 25.6133 104.477 25.418 103.688 25.418C102.539 25.418 101.684 25.9375 101.121 26.9766V36H98.2734V23.3203H100.957ZM115.242 20.2383V23.3203H117.48V25.4297H115.242V32.5078C115.242 32.9922 115.336 33.3438 115.523 33.5625C115.719 33.7734 116.062 33.8789 116.555 33.8789C116.883 33.8789 117.215 33.8398 117.551 33.7617V35.9648C116.902 36.1445 116.277 36.2344 115.676 36.2344C113.488 36.2344 112.395 35.0273 112.395 32.6133V25.4297H110.309V23.3203H112.395V20.2383H115.242ZM126.305 25.9219C125.93 25.8594 125.543 25.8281 125.145 25.8281C123.84 25.8281 122.961 26.3281 122.508 27.3281V36H119.66V23.3203H122.379L122.449 24.7383C123.137 23.6367 124.09 23.0859 125.309 23.0859C125.715 23.0859 126.051 23.1406 126.316 23.25L126.305 25.9219ZM135.328 36C135.203 35.7578 135.094 35.3633 135 34.8164C134.094 35.7617 132.984 36.2344 131.672 36.2344C130.398 36.2344 129.359 35.8711 128.555 35.1445C127.75 34.418 127.348 33.5195 127.348 32.4492C127.348 31.0977 127.848 30.0625 128.848 29.3438C129.855 28.6172 131.293 28.2539 133.16 28.2539H134.906V27.4219C134.906 26.7656 134.723 26.2422 134.355 25.8516C133.988 25.4531 133.43 25.2539 132.68 25.2539C132.031 25.2539 131.5 25.418 131.086 25.7461C130.672 26.0664 130.465 26.4766 130.465 26.9766H127.617C127.617 26.2812 127.848 25.6328 128.309 25.0312C128.77 24.4219 129.395 23.9453 130.184 23.6016C130.98 23.2578 131.867 23.0859 132.844 23.0859C134.328 23.0859 135.512 23.4609 136.395 24.2109C137.277 24.9531 137.73 26 137.754 27.3516V33.0703C137.754 34.2109 137.914 35.1211 138.234 35.8008V36H135.328ZM132.199 33.9492C132.762 33.9492 133.289 33.8125 133.781 33.5391C134.281 33.2656 134.656 32.8984 134.906 32.4375V30.0469H133.371C132.316 30.0469 131.523 30.2305 130.992 30.5977C130.461 30.9648 130.195 31.4844 130.195 32.1562C130.195 32.7031 130.375 33.1406 130.734 33.4688C131.102 33.7891 131.59 33.9492 132.199 33.9492ZM147.375 25.9219C147 25.8594 146.613 25.8281 146.215 25.8281C144.91 25.8281 144.031 26.3281 143.578 27.3281V36H140.73V23.3203H143.449L143.52 24.7383C144.207 23.6367 145.16 23.0859 146.379 23.0859C146.785 23.0859 147.121 23.1406 147.387 23.25L147.375 25.9219Z" fill="#F7981D"/>
<defs>
<filter id="filter0_ddd" x="0" y="0" width="229" height="59" filterUnits="userSpaceOnUse" color-interpolation-filters="sRGB">
<feFlood flood-opacity="0" result="BackgroundImageFix"/>
<feColorMatrix in="SourceAlpha" type="matrix" values="0 0 0 0 0 0 0 0 0 0 0 0 0 0 0 0 0 0 127 0"/>
<feOffset dy="1"/>
<feGaussianBlur stdDeviation="2.5"/>
<feColorMatrix type="matrix" values="0 0 0 0 0 0 0 0 0 0 0 0 0 0 0 0 0 0 0.12 0"/>
<feBlend mode="normal" in2="BackgroundImageFix" result="effect1_dropShadow"/>
<feColorMatrix in="SourceAlpha" type="matrix" values="0 0 0 0 0 0 0 0 0 0 0 0 0 0 0 0 0 0 127 0"/>
<feOffset dy="2"/>
<feGaussianBlur stdDeviation="1"/>
<feColorMatrix type="matrix" values="0 0 0 0 0 0 0 0 0 0 0 0 0 0 0 0 0 0 0.14 0"/>
<feBlend mode="normal" in2="effect1_dropShadow" result="effect2_dropShadow"/>
<feColorMatrix in="SourceAlpha" type="matrix" values="0 0 0 0 0 0 0 0 0 0 0 0 0 0 0 0 0 0 127 0"/>
<feOffset dy="3"/>
<feGaussianBlur stdDeviation="0.5"/>
<feColorMatrix type="matrix" values="0 0 0 0 0 0 0 0 0 0 0 0 0 0 0 0 0 0 0.2 0"/>
<feBlend mode="normal" in2="effect2_dropShadow" result="effect3_dropShadow"/>
<feBlend mode="normal" in="SourceGraphic" in2="effect3_dropShadow" result="shape"/>
</filter>
</defs>
</svg>
