<svg width="19" height="19" viewBox="0 0 19 19" fill="none" xmlns="http://www.w3.org/2000/svg">
<path d="M13.2011 11.7453H12.4111L12.1311 11.4753C13.1111 10.3353 13.7011 8.8553 13.7011 7.2453C13.7011 3.6553 10.7911 0.7453 7.20108 0.7453C3.61108 0.7453 0.70108 3.6553 0.70108 7.2453C0.70108 10.8353 3.61108 13.7453 7.20108 13.7453C8.81108 13.7453 10.2911 13.1553 11.4311 12.1753L11.7011 12.4553V13.2453L16.7011 18.2353L18.1911 16.7453L13.2011 11.7453ZM7.20108 11.7453C4.71108 11.7453 2.70108 9.7353 2.70108 7.2453C2.70108 4.7553 4.71108 2.7453 7.20108 2.7453C9.69108 2.7453 11.7011 4.7553 11.7011 7.2453C11.7011 9.7353 9.69108 11.7453 7.20108 11.7453Z" fill="#363A44"/>
</svg>
