<svg width="149" height="149" viewBox="0 0 149 149" fill="none" xmlns="http://www.w3.org/2000/svg">
<circle cx="74.5" cy="74.5" r="72.5" stroke="#FF83A1" stroke-width="4"/>
<path fill-rule="evenodd" clip-rule="evenodd" d="M85.6197 65.3804C86.238 65.9987 86.238 67.0012 85.6197 67.6196L66.6197 86.6196C66.0013 87.2379 64.9988 87.2379 64.3805 86.6196C63.7622 86.0012 63.7622 84.9987 64.3805 84.3804L83.3805 65.3804C83.9988 64.7621 85.0013 64.7621 85.6197 65.3804Z" fill="#FF83A1"/>
<path fill-rule="evenodd" clip-rule="evenodd" d="M64.3805 65.3804C64.9988 64.7621 66.0013 64.7621 66.6197 65.3804L85.6197 84.3804C86.238 84.9987 86.238 86.0012 85.6197 86.6196C85.0013 87.2379 83.9988 87.2379 83.3805 86.6196L64.3805 67.6196C63.7622 67.0012 63.7622 65.9987 64.3805 65.3804Z" fill="#FF83A1"/>
</svg>
