<svg width="375" height="199" viewBox="0 0 375 199" fill="none" xmlns="http://www.w3.org/2000/svg">
<g clip-path="url(#clip0)">
<path d="M40.6161 31.3743V35.0133H18.7825L28.7896 45.0204L26.2059 47.604L11.7957 33.1938L26.2059 18.7836L28.7896 21.3672L18.7825 31.3743L40.6161 31.3743Z" fill="white"/>
<path d="M337 40.8C336.098 40.8 335.233 41.1582 334.596 41.7958C333.958 42.4334 333.6 43.2982 333.6 44.2C333.6 45.1017 333.958 45.9665 334.596 46.6041C335.233 47.2417 336.098 47.6 337 47.6C337.902 47.6 338.767 47.2417 339.404 46.6041C340.042 45.9665 340.4 45.1017 340.4 44.2C340.4 43.2982 340.042 42.4334 339.404 41.7958C338.767 41.1582 337.902 40.8 337 40.8ZM337 30.6C336.098 30.6 335.233 30.9582 334.596 31.5958C333.958 32.2334 333.6 33.0982 333.6 34C333.6 34.9017 333.958 35.7665 334.596 36.4041C335.233 37.0417 336.098 37.4 337 37.4C337.902 37.4 338.767 37.0417 339.404 36.4041C340.042 35.7665 340.4 34.9017 340.4 34C340.4 33.0982 340.042 32.2334 339.404 31.5958C338.767 30.9582 337.902 30.6 337 30.6ZM337 20.4C336.098 20.4 335.233 20.7582 334.596 21.3958C333.958 22.0334 333.6 22.8982 333.6 23.8C333.6 24.7017 333.958 25.5665 334.596 26.2041C335.233 26.8417 336.098 27.2 337 27.2C337.902 27.2 338.767 26.8417 339.404 26.2041C340.042 25.5665 340.4 24.7017 340.4 23.8C340.4 22.8982 340.042 22.0334 339.404 21.3958C338.767 20.7582 337.902 20.4 337 20.4Z" fill="white"/>
</g>
<defs>
<clipPath id="clip0">
<rect width="394" height="199" fill="white" transform="translate(-13)"/>
</clipPath>
</defs>
</svg>
