<svg width="15" height="20" viewBox="0 0 15 20" fill="none" xmlns="http://www.w3.org/2000/svg">
<path opacity="0.65" fill-rule="evenodd" clip-rule="evenodd" d="M10.3121 9.20981L10.3221 3.20981C10.3221 1.55181 8.98214 0.209808 7.32214 0.209808C5.66214 0.209808 4.32214 1.55181 4.32214 3.20981V9.20981C4.32214 10.8658 5.66214 12.2098 7.32214 12.2098C8.98214 12.2098 10.3121 10.8658 10.3121 9.20981ZM12.6221 9.20981C12.6221 12.2098 10.0821 14.3098 7.32214 14.3098C4.56214 14.3098 2.02213 12.2098 2.02213 9.20981H0.322144C0.322144 12.6248 3.04214 15.4428 6.32214 15.9278V19.2098H8.32214V15.9278C11.6021 15.4428 14.3221 12.6248 14.3221 9.20981H12.6221Z" fill="#363A44"/>
</svg>
